SplineFontDB: 3.0
FontName: Kathiru
FullName: Kathiru
FamilyName: Kathiru
Weight: Book
Copyright: Copyright (c) Copyright 2014 Appropriate Technology Promotion Society (ATPS) (http://atps.in) 
Version: Kathiru:0.4
ItalicAngle: 0
UnderlinePosition: -520
UnderlineWidth: 34
Ascent: 1638
Descent: 410
sfntRevision: 0x00060000
LayerCount: 2
Layer: 0 1 "Back"  1
Layer: 1 1 "Fore"  0
XUID: [1021 400 1097251280 6556427]
FSType: 0
OS2Version: 1
OS2_WeightWidthSlopeOnly: 0
OS2_UseTypoMetrics: 1
CreationTime: 1201144321
ModificationTime: 1416758491
PfmFamily: 81
TTFWeight: 400
TTFWidth: 5
LineGap: 0
VLineGap: 0
Panose: 0 0 6 3 0 0 0 0 0 0
OS2TypoAscent: 1638
OS2TypoAOffset: 0
OS2TypoDescent: -1100
OS2TypoDOffset: 0
OS2TypoLinegap: 0
OS2WinAscent: 1366
OS2WinAOffset: 0
OS2WinDescent: 1100
OS2WinDOffset: 0
HheadAscent: 1366
HheadAOffset: 0
HheadDescent: -1100
HheadDOffset: 0
OS2SubXSize: 1330
OS2SubYSize: 1228
OS2SubXOff: 0
OS2SubYOff: 152
OS2SupXSize: 1330
OS2SupYSize: 1430
OS2SupXOff: 0
OS2SupYOff: 980
OS2StrikeYSize: 102
OS2StrikeYPos: 512
OS2Vendor: 'PfEd'
OS2CodePages: 00000001.00000000
OS2UnicodeRanges: 80800001.00002000.00000000.00000000
Lookup: 4 0 0 "'akhn' Akhand in Malay+AQEA-lam2 lookup 0"  {"'akhn' Akhand in Malay+AQEA-lam2 lookup 0 subtable"  } ['akhn' ('mlm2' <'dflt' > ) ]
Lookup: 4 0 0 "'akhn' Akhand in Malay+AQEA-lam2 lookup 1"  {"'akhn' Akhand in Malay+AQEA-lam2 lookup 1 subtable"  } ['akhn' ('mlm2' <'dflt' > ) ]
Lookup: 4 0 0 "'blwf' Below Base Forms in Malay+AQEA-lam2 lookup 2"  {"'blwf' Below Base Forms in Malay+AQEA-lam2 lookup 2 subtable"  } ['blwf' ('mlm2' <'dflt' > ) ]
Lookup: 4 0 0 "'blws' Below Base Substitutions lookup 3"  {"'blws' Below Base Substitutions lookup 3 subtable"  } ['blws' ('mlm2' <'dflt' > 'mlym' <'dflt' > ) ]
Lookup: 4 0 0 "'haln' Halant Forms in Malay+AQEA-lam lookup 4"  {"'haln' Halant Forms in Malay+AQEA-lam lookup 4 subtable"  } ['haln' ('mlym' <'dflt' > ) ]

StartChar: .notdef
Encoding: 65536 -1 0
Width: 636
GlyphClass: 2
Flags: W
LayerCount: 2
Fore
SplineSet
120 1 m 2,0,-1
 120 980 l 2,1,2
 120 985 120 985 126 985 c 2,3,-1
 592 985 l 2,4,5
 599 985 599 985 611 976 c 128,-1,6
 623 967 623 967 633 955 c 0,7,8
 646 940 646 940 646 931 c 2,9,-1
 646 -48 l 2,10,11
 646 -53 646 -53 640 -53 c 2,12,-1
 174 -53 l 2,13,14
 167 -53 167 -53 155 -44 c 128,-1,15
 143 -35 143 -35 133 -23 c 0,16,17
 120 -8 120 -8 120 1 c 2,0,-1
180 6 m 1,18,-1
 586 6 l 1,19,-1
 586 926 l 1,20,-1
 180 926 l 1,21,-1
 180 6 l 1,18,-1
EndSplineSet
EndChar

StartChar: aexc
Encoding: 33 33 5
Width: 306
GlyphClass: 2
Flags: W
LayerCount: 2
Fore
SplineSet
232 219 m 0,0,1
 220 229 220 229 211 241 c 128,-1,2
 202 253 202 253 202 260 c 0,3,4
 194 887 194 887 195 1020 c 0,5,6
 195 1032 195 1032 216 1018 c 0,7,8
 220 1015 220 1015 224 1012 c 0,9,10
 236 1002 236 1002 245 990 c 128,-1,11
 254 978 254 978 254 971 c 0,12,13
 253 838 253 838 261 212 c 0,14,15
 261 199 261 199 240 213 c 0,16,17
 236 216 236 216 232 219 c 0,0,1
211 97 m 0,18,19
 225 97 225 97 238 90 c 0,20,21
 256 81 256 81 272.5 62.5 c 128,-1,22
 289 44 289 44 295 31 c 0,23,24
 296 29 296 29 297 28 c 0,25,26
 301 16 301 16 301 5 c 0,27,28
 301 -24 301 -24 276 -33 c 0,29,30
 268 -36 268 -36 259 -36 c 0,31,32
 241 -36 241 -36 224 -25 c 0,33,34
 203 -12 203 -12 190 6 c 128,-1,35
 177 24 177 24 173 36 c 0,36,37
 170 45 170 45 170 54 c 0,38,39
 170 83 170 83 194 94 c 0,40,41
 202 97 202 97 211 97 c 0,18,19
EndSplineSet
EndChar

StartChar: aDQ
Encoding: 34 34 6
Width: 567
GlyphClass: 2
Flags: W
LayerCount: 2
Fore
SplineSet
442 1131 m 1,0,1
 442 1134 442 1134 446 1135 c 0,2,3
 447 1136 447 1136 448 1136 c 0,4,5
 472 1136 472 1136 494 1123 c 256,6,7
 516 1110 516 1110 533 1089 c 128,-1,8
 550 1068 550 1068 557 1052 c 0,9,10
 557 1051 557 1051 558 1050 c 0,11,12
 563 1035 563 1035 563 1021 c 0,13,14
 563 950 563 950 526 767 c 1,15,-1
 516 706 l 2,16,17
 514 694 514 694 490 712 c 0,18,19
 487 714 487 714 484 717 c 0,20,21
 472 728 472 728 464 739.5 c 128,-1,22
 456 751 456 751 457 758 c 2,23,-1
 467 819 l 1,24,25
 489 929 489 929 498 998 c 1,26,27
 497 998 497 998 495 998 c 0,28,29
 478 998 478 998 460 1009 c 0,30,31
 440 1022 440 1022 426.5 1040 c 128,-1,32
 413 1058 413 1058 409 1070 c 0,33,34
 407 1079 407 1079 407 1088 c 0,35,36
 407 1118 407 1118 431 1128 c 0,37,38
 436 1131 436 1131 442 1131 c 1,0,1
196 1131 m 0,39,40
 197 1134 197 1134 200 1135 c 0,41,42
 201 1136 201 1136 202 1136 c 0,43,44
 227 1136 227 1136 249 1123 c 0,45,46
 270 1110 270 1110 287.5 1089 c 128,-1,47
 305 1068 305 1068 311 1052 c 0,48,49
 312 1051 312 1051 312 1050 c 0,50,51
 317 1035 317 1035 317 1021 c 0,52,53
 317 950 317 950 280 767 c 1,54,-1
 270 706 l 2,55,56
 268 694 268 694 244 712 c 0,57,58
 241 714 241 714 238 717 c 0,59,60
 226 728 226 728 218 739.5 c 128,-1,61
 210 751 210 751 211 758 c 2,62,-1
 221 819 l 1,63,64
 244 931 244 931 253 1000 c 1,65,66
 238 1002 238 1002 224 1011 c 0,67,68
 203 1024 203 1024 190 1042 c 128,-1,69
 177 1060 177 1060 173 1072 c 0,70,71
 170 1081 170 1081 170 1090 c 0,72,73
 170 1120 170 1120 194 1130 c 0,74,75
 195 1131 195 1131 196 1131 c 0,39,40
EndSplineSet
EndChar

StartChar: ahs
Encoding: 35 35 7
Width: 860
GlyphClass: 2
Flags: W
LayerCount: 2
Fore
SplineSet
184 288 m 0,0,1
 163 313 163 313 174 317 c 0,2,3
 175 318 175 318 176 318 c 2,4,-1
 328 318 l 1,5,-1
 373 631 l 1,6,-1
 265 631 l 2,7,8
 258 631 258 631 245.5 640 c 128,-1,9
 233 649 233 649 223 661 c 1,10,11
 205 686 205 686 216 690 c 1,12,-1
 382 690 l 1,13,-1
 426 995 l 2,14,15
 428 1007 428 1007 452 989 c 0,16,17
 455 987 455 987 458 984 c 0,18,19
 470 974 470 974 478 962 c 128,-1,20
 486 950 486 950 486 944 c 2,21,-1
 449 690 l 1,22,-1
 657 690 l 1,23,-1
 701 995 l 2,24,25
 703 1007 703 1007 727 989 c 0,26,27
 730 987 730 987 733 984 c 0,28,29
 745 974 745 974 753 962 c 128,-1,30
 761 950 761 950 760 944 c 2,31,-1
 723 690 l 1,32,-1
 801 690 l 2,33,34
 808 690 808 690 820 681.5 c 128,-1,35
 832 673 832 673 842 661 c 0,36,37
 863 636 863 636 852 632 c 0,38,39
 851 631 851 631 850 631 c 2,40,-1
 715 631 l 1,41,-1
 669 318 l 1,42,-1
 761 318 l 2,43,44
 768 318 768 318 780 309 c 128,-1,45
 792 300 792 300 802 288 c 0,46,47
 823 263 823 263 812 259 c 0,48,49
 811 258 811 258 810 258 c 2,50,-1
 660 258 l 1,51,-1
 614 -60 l 1,52,53
 616 -67 616 -67 614 -70 c 1,54,55
 612 -71 612 -71 611 -71 c 0,56,57
 605 -75 605 -75 587 -61 c 0,58,59
 584 -59 584 -59 581 -56 c 0,60,61
 569 -46 569 -46 561 -34 c 128,-1,62
 553 -22 553 -22 554 -16 c 2,63,-1
 594 258 l 1,64,-1
 385 258 l 1,65,-1
 338 -67 l 2,66,67
 336 -79 336 -79 312 -61 c 0,68,69
 309 -59 309 -59 306 -56 c 0,70,71
 294 -46 294 -46 286 -34 c 128,-1,72
 278 -22 278 -22 279 -16 c 2,73,-1
 319 258 l 1,74,-1
 225 258 l 2,75,76
 218 258 218 258 205.5 267 c 128,-1,77
 193 276 193 276 184 288 c 0,0,1
602 318 m 1,78,-1
 648 631 l 1,79,-1
 440 631 l 1,80,-1
 394 318 l 1,81,-1
 602 318 l 1,78,-1
EndSplineSet
EndChar

StartChar: adlr
Encoding: 36 36 8
Width: 834
GlyphClass: 2
Flags: W
LayerCount: 2
Fore
SplineSet
170 54 m 0,0,1
 169 67 169 67 190 54 c 0,2,3
 194 52 194 52 198 48 c 0,4,5
 234 20 234 20 300 1 c 0,6,7
 362 -17 362 -17 441 -18 c 1,8,-1
 441 447 l 1,9,10
 363 488 363 488 307 535 c 0,11,12
 175 646 175 646 181 759 c 0,13,14
 192 943 192 943 441 984 c 1,15,-1
 441 1086 l 2,16,17
 441 1099 441 1099 463 1085 c 0,18,19
 467 1082 467 1082 471 1079 c 0,20,21
 483 1069 483 1069 491.5 1057 c 128,-1,22
 500 1045 500 1045 500 1038 c 2,23,-1
 500 986 l 1,24,25
 662 979 662 979 792 880 c 0,26,27
 804 871 804 871 813.5 859 c 128,-1,28
 823 847 823 847 824 839 c 0,29,30
 826 831 826 831 819 832 c 1,31,32
 811 832 811 832 798 842 c 0,33,34
 742 884 742 884 666 907 c 128,-1,35
 590 930 590 930 504 927 c 0,36,37
 502 926 502 926 500 926 c 1,38,-1
 500 458 l 1,39,40
 604 409 604 409 678 359 c 0,41,42
 767 299 767 299 808 229 c 0,43,44
 831 191 831 191 830 158 c 0,45,46
 823 -76 823 -76 500 -77 c 1,47,-1
 500 -204 l 2,48,49
 500 -217 500 -217 479 -203 c 0,50,51
 475 -200 475 -200 471 -197 c 0,52,53
 459 -187 459 -187 450 -175 c 128,-1,54
 441 -163 441 -163 441 -156 c 2,55,-1
 441 -75 l 1,56,57
 382 -71 382 -71 334 -57 c 0,58,59
 263 -37 263 -37 201 12 c 0,60,61
 189 22 189 22 180 34 c 128,-1,62
 171 46 171 46 170 54 c 0,0,1
441 914 m 1,63,64
 249 866 249 866 241 709 c 0,65,66
 236 628 236 628 309 567 c 0,67,68
 358 526 358 526 441 485 c 1,69,-1
 441 914 l 1,63,64
500 -16 m 1,70,71
 765 1 765 1 771 207 c 0,72,73
 771 230 771 230 759 251 c 0,74,75
 742 280 742 280 675 325 c 0,76,77
 612 367 612 367 500 418 c 1,78,-1
 500 -16 l 1,70,71
EndSplineSet
EndChar

StartChar: aprc
Encoding: 37 37 9
Width: 1175
GlyphClass: 2
Flags: W
LayerCount: 2
Fore
SplineSet
471 961 m 0,0,1
 529 961 529 961 590 907 c 0,2,3
 633 869 633 869 646.5 831.5 c 128,-1,4
 660 794 660 794 660 748 c 0,5,6
 660 614 660 614 579 496 c 256,7,8
 498 378 498 378 380 378 c 0,9,10
 334 378 334 378 297 397 c 1,11,12
 272 411 272 411 249 433 c 0,13,14
 219 461 219 461 202 496 c 1,15,16
 172 553 172 553 170 612 c 128,-1,17
 168 671 168 671 191.5 730 c 128,-1,18
 215 789 215 789 263 856 c 0,19,20
 340 961 340 961 471 961 c 0,0,1
519 902 m 0,21,22
 395 902 395 902 320 800 c 0,23,24
 251 705 251 705 235 617 c 128,-1,25
 219 529 219 529 254 467 c 0,26,27
 259 458 259 458 263 454 c 0,28,29
 265 452 265 452 272.5 448.5 c 128,-1,30
 280 445 280 445 297 441 c 128,-1,31
 314 437 314 437 332 437 c 0,32,33
 444 437 444 437 522 552 c 0,34,35
 601 667 601 667 601 797 c 0,36,37
 601 825 601 825 595 848 c 128,-1,38
 589 871 589 871 582 879 c 1,39,40
 556 902 556 902 519 902 c 0,21,22
956 1002 m 128,-1,42
 968 991 968 991 974.5 979.5 c 128,-1,43
 981 968 981 968 979 963 c 2,44,-1
 419 -88 l 2,45,46
 417 -93 417 -93 406.5 -88 c 128,-1,47
 396 -83 396 -83 384 -72 c 128,-1,48
 372 -61 372 -61 365.5 -49.5 c 128,-1,49
 359 -38 359 -38 361 -33 c 2,50,-1
 921 1018 l 2,51,52
 923 1023 923 1023 933.5 1018 c 128,-1,41
 944 1013 944 1013 956 1002 c 128,-1,42
980 568 m 0,53,54
 1039 568 1039 568 1100 514 c 0,55,56
 1143 476 1143 476 1156.5 438.5 c 128,-1,57
 1170 401 1170 401 1170 355 c 0,58,59
 1170 221 1170 221 1090 104 c 0,60,61
 1009 -15 1009 -15 891 -15 c 0,62,63
 844 -15 844 -15 807 5 c 0,64,65
 782 18 782 18 759 40 c 0,66,67
 730 69 730 69 712 103 c 0,68,69
 682 160 682 160 680.5 219 c 128,-1,70
 679 278 679 278 702 337.5 c 128,-1,71
 725 397 725 397 773 463 c 0,72,73
 851 568 851 568 980 568 c 0,53,54
1029 509 m 0,74,75
 905 509 905 509 830 407 c 0,76,77
 762 313 762 313 746 225 c 128,-1,78
 730 137 730 137 765 75 c 0,79,80
 770 65 770 65 773 61 c 0,81,82
 775 59 775 59 783 55.5 c 128,-1,83
 791 52 791 52 807.5 48 c 128,-1,84
 824 44 824 44 842 44 c 0,85,86
 954 44 954 44 1032 159 c 0,87,88
 1111 274 1111 274 1111 404 c 0,89,90
 1111 432 1111 432 1105 455 c 128,-1,91
 1099 478 1099 478 1093 487 c 1,92,93
 1066 509 1066 509 1029 509 c 0,74,75
EndSplineSet
EndChar

StartChar: aamp
Encoding: 38 38 10
Width: 1291
GlyphClass: 2
Flags: W
LayerCount: 2
Fore
SplineSet
512 522 m 1,0,1
 636 582 636 582 732 643 c 1,2,3
 839 721 839 721 839 829 c 0,4,5
 839 878 839 878 817 912 c 0,6,7
 814 918 814 918 810 922 c 0,8,9
 800 935 800 935 769.5 947.5 c 128,-1,10
 739 960 739 960 690 960 c 0,11,12
 613 960 613 960 553 914 c 0,13,14
 464 846 464 846 464 731 c 0,15,16
 464 637 464 637 512 522 c 1,0,1
739 94 m 1,17,18
 627 222 627 222 514 438 c 1,19,20
 233 290 233 290 229 128 c 0,21,22
 228 85 228 85 246 38 c 0,23,24
 253 17 253 17 258.5 10 c 128,-1,25
 264 3 264 3 274 -3 c 0,26,27
 325 -36 325 -36 426 -36 c 0,28,29
 456 -36 456 -36 484 -33 c 0,30,31
 643 -16 643 -16 739 94 c 1,17,18
1238 567 m 0,32,33
 1259 542 1259 542 1250 537 c 0,34,35
 1249 536 1249 536 1247 536 c 0,36,37
 1197 532 1197 532 1171 515 c 0,38,39
 1079 452 1079 452 1047 386 c 1,40,41
 971 250 971 250 811 55 c 1,42,43
 908 -36 908 -36 1005 -36 c 0,44,45
 1035 -36 1035 -36 1063 -27 c 1,46,47
 1174 4 1174 4 1228 134 c 0,48,49
 1229 137 1229 137 1234 136.5 c 128,-1,50
 1239 136 1239 136 1246.5 131.5 c 128,-1,51
 1254 127 1254 127 1262 119 c 0,52,53
 1274 108 1274 108 1281 96.5 c 128,-1,54
 1288 85 1288 85 1286 80 c 0,55,56
 1231 -54 1231 -54 1116 -86 c 0,57,58
 1086 -95 1086 -95 1054 -95 c 0,59,60
 932 -95 932 -95 795 36 c 1,61,62
 697 -74 697 -74 534 -92 c 0,63,64
 506 -95 506 -95 475 -95 c 0,65,66
 363 -95 363 -95 292 -50 c 0,67,68
 256 -26 256 -26 228.5 8 c 128,-1,69
 201 42 201 42 189 74 c 0,70,71
 169 129 169 129 170 177 c 0,72,73
 174 351 174 351 479 506 c 1,74,75
 475 514 475 514 471 522 c 0,76,77
 405 665 405 665 405 779 c 0,78,79
 405 901 405 901 497 971 c 0,80,81
 560 1020 560 1020 642 1020 c 0,82,83
 765 1020 765 1020 845 921 c 0,84,85
 855 908 855 908 864 894 c 0,86,87
 898 841 898 841 898 780 c 0,88,89
 898 666 898 666 788 586 c 1,90,91
 685 520 685 520 550 456 c 0,92,93
 547 455 547 455 544 453 c 1,94,95
 655 234 655 234 756 114 c 1,96,97
 914 306 914 306 989 441 c 1,98,99
 1021 509 1021 509 1115 572 c 0,100,101
 1143 591 1143 591 1197 596 c 0,102,103
 1204 596 1204 596 1216 587.5 c 128,-1,104
 1228 579 1228 579 1238 567 c 0,32,33
EndSplineSet
EndChar

StartChar: aSQ
Encoding: 39 39 11
Width: 322
GlyphClass: 2
Flags: W
LayerCount: 2
Fore
SplineSet
196 1131 m 0,0,1
 197 1134 197 1134 200 1135 c 0,2,3
 201 1136 201 1136 202 1136 c 0,4,5
 227 1136 227 1136 249 1123 c 0,6,7
 270 1110 270 1110 287.5 1089 c 128,-1,8
 305 1068 305 1068 311 1052 c 0,9,10
 312 1051 312 1051 312 1050 c 0,11,12
 317 1035 317 1035 317 1021 c 0,13,14
 317 950 317 950 282 767 c 2,15,-1
 270 706 l 2,16,17
 268 694 268 694 244 712 c 0,18,19
 241 715 241 715 238 717 c 0,20,21
 226 728 226 728 218 740 c 128,-1,22
 210 752 210 752 211 758 c 2,23,-1
 223 819 l 2,24,25
 245 931 245 931 253 1000 c 1,26,27
 238 1002 238 1002 224 1011 c 0,28,29
 203 1024 203 1024 190 1042 c 128,-1,30
 177 1060 177 1060 173 1072 c 0,31,32
 170 1081 170 1081 170 1090 c 0,33,34
 170 1120 170 1120 194 1130 c 0,35,36
 195 1131 195 1131 196 1131 c 0,0,1
EndSplineSet
EndChar

StartChar: apl
Encoding: 40 40 12
Width: 593
GlyphClass: 2
Flags: W
LayerCount: 2
Fore
SplineSet
583 -259 m 0,0,1
 588 -271 588 -271 578 -270 c 0,2,3
 572 -270 572 -270 564 -264 c 0,4,5
 406 -164 406 -164 295 10 c 1,6,7
 170 209 170 209 170 438 c 0,8,9
 170 836 170 836 509 1075 c 0,10,11
 518 1081 518 1081 531 1090 c 0,12,13
 535 1093 535 1093 546.5 1086.5 c 128,-1,14
 558 1080 558 1080 569.5 1068 c 128,-1,15
 581 1056 581 1056 586 1045.5 c 128,-1,16
 591 1035 591 1035 587 1032 c 0,17,18
 574 1023 574 1023 564 1017 c 0,19,20
 229 781 229 781 229 389 c 0,21,22
 229 171 229 171 343 -9 c 0,23,24
 428 -142 428 -142 546 -217 c 0,25,26
 557 -225 557 -225 568 -237 c 128,-1,27
 579 -249 579 -249 583 -259 c 0,0,1
EndSplineSet
EndChar

StartChar: apr
Encoding: 41 41 13
Width: 593
GlyphClass: 2
Flags: W
LayerCount: 2
Fore
SplineSet
176 1077 m 1,0,1
 171 1089 171 1089 181 1088 c 0,2,3
 187 1088 187 1088 195 1082 c 0,4,5
 353 982 353 982 463 808 c 0,6,7
 589 609 589 609 589 377 c 0,8,9
 589 -21 589 -21 250 -260 c 1,10,-1
 227 -272 l 2,11,12
 222 -274 222 -274 210.5 -267.5 c 128,-1,13
 199 -261 199 -261 188 -249 c 128,-1,14
 177 -237 177 -237 172.5 -226.5 c 128,-1,15
 168 -216 168 -216 172 -214 c 2,16,-1
 195 -202 l 1,17,18
 529 34 529 34 529 425 c 0,19,20
 529 647 529 647 416 827 c 1,21,22
 331 960 331 960 213 1035 c 0,23,24
 201 1043 201 1043 190 1055 c 128,-1,25
 179 1067 179 1067 176 1077 c 1,0,1
EndSplineSet
EndChar

StartChar: astr
Encoding: 42 42 14
Width: 976
GlyphClass: 2
Flags: W
LayerCount: 2
Fore
SplineSet
200 763 m 0,0,1
 188 773 188 773 179 785 c 128,-1,2
 170 797 170 797 170 804 c 0,3,4
 170 865 170 865 219 882 c 0,5,6
 232 887 232 887 243 887 c 0,7,8
 306 887 306 887 368 811 c 0,9,10
 369 810 369 810 370 809 c 0,11,12
 427 737 427 737 468 704 c 0,13,14
 498 681 498 681 539 658 c 0,15,16
 550 652 550 652 561 640 c 1,17,18
 571 631 571 631 576 622 c 1,19,20
 576 623 576 623 577 624 c 1,21,22
 572 629 572 629 569 634 c 0,23,24
 560 646 560 646 560 653 c 2,25,-1
 560 707 l 2,26,27
 560 767 560 767 584 848 c 1,28,29
 616 965 616 965 616 985 c 0,30,31
 616 999 616 999 613 1009 c 1,32,33
 605 1010 605 1010 596 1010 c 0,34,35
 585 1010 585 1010 577 1007 c 0,36,37
 572 1005 572 1005 560 1012 c 128,-1,38
 548 1019 548 1019 537 1031 c 0,39,40
 530 1038 530 1038 525.5 1046 c 128,-1,41
 521 1054 521 1054 520.5 1058.5 c 128,-1,42
 520 1063 520 1063 523 1065 c 0,43,44
 534 1070 534 1070 547 1070 c 0,45,46
 577 1070 577 1070 603 1053 c 256,47,48
 629 1036 629 1036 646 1013 c 128,-1,49
 663 990 663 990 670 970 c 0,50,51
 675 955 675 955 675 936 c 0,52,53
 675 914 675 914 643 795 c 1,54,55
 619 716 619 716 619 659 c 2,56,-1
 619 649 l 1,57,58
 659 670 659 670 699 685 c 1,59,-1
 861 733 l 1,60,61
 910 753 910 753 910 802 c 0,62,63
 910 813 910 813 908 827 c 0,64,65
 908 828 908 828 907 830 c 1,66,67
 899 832 899 832 890 832 c 0,68,69
 883 832 883 832 871 840.5 c 128,-1,70
 859 849 859 849 849 862 c 0,71,72
 831 887 831 887 841 891 c 1,73,74
 875 891 875 891 904 871 c 0,75,76
 954 835 954 835 967 784 c 0,77,78
 967 783 967 783 967 782 c 0,79,80
 969 767 969 767 969 753 c 0,81,82
 969 697 969 697 914 675 c 1,83,-1
 752 626 l 1,84,85
 693 604 693 604 633 568 c 0,86,87
 631 567 631 567 628 567 c 1,88,89
 629 567 629 567 629 567 c 1,90,91
 633 564 633 564 637 562 c 0,92,93
 692 519 692 519 777 414 c 0,94,95
 798 388 798 388 813 378 c 128,-1,96
 828 368 828 368 847 368 c 0,97,98
 854 368 854 368 861 370 c 0,99,100
 912 382 912 382 912 443 c 0,101,102
 912 456 912 456 934 441 c 0,103,104
 938 439 938 439 942 435 c 0,105,106
 954 425 954 425 962.5 413 c 128,-1,107
 971 401 971 401 971 394 c 0,108,109
 971 325 971 325 914 311 c 0,110,111
 905 309 905 309 896 309 c 0,112,113
 866 309 866 309 825 336.5 c 128,-1,114
 784 364 784 364 742 415 c 0,115,116
 679 493 679 493 646 520 c 1,117,118
 627 531 627 531 607 540 c 1,119,120
 597 543 597 543 585 555 c 0,121,122
 574 565 574 565 567 575 c 1,123,124
 567 572 567 572 565 570 c 0,125,126
 561 568 561 568 557 565 c 1,127,128
 565 558 565 558 572 548 c 0,129,130
 581 536 581 536 581 529 c 2,131,-1
 583 491 l 1,132,-1
 583 474 l 2,133,134
 583 420 583 420 561 348 c 1,135,136
 525 237 525 237 525 211 c 0,137,138
 525 200 525 200 530 189 c 0,139,140
 530 188 530 188 530 187 c 0,141,142
 536 186 536 186 543 186 c 128,-1,143
 550 186 550 186 562.5 177 c 128,-1,144
 575 168 575 168 585 156 c 0,145,146
 605 131 605 131 594 127 c 0,147,148
 593 126 593 126 592 126 c 0,149,150
 565 126 565 126 540 142 c 0,151,152
 493 173 493 173 474 224 c 0,153,154
 466 244 466 244 466 260 c 0,155,156
 466 289 466 289 502 401 c 0,157,158
 524 471 524 471 524 523 c 2,159,-1
 524 539 l 2,160,161
 524 543 524 543 524 547 c 1,162,163
 484 526 484 526 440 511 c 1,164,-1
 282 463 l 1,165,166
 230 445 230 445 229 392 c 1,167,168
 230 383 230 383 233 375 c 1,169,170
 241 372 241 372 252 370 c 0,171,172
 260 369 260 369 272 359 c 128,-1,173
 284 349 284 349 293 337 c 0,174,175
 312 313 312 313 299 311 c 0,176,177
 298 311 298 311 296 311 c 0,178,179
 260 318 260 318 230 341 c 0,180,181
 175 384 175 384 170 440 c 1,182,183
 170 440 170 440 170 441 c 0,184,185
 170 501 170 501 229 521 c 1,186,-1
 387 570 l 1,187,188
 452 592 452 592 510 628 c 0,189,190
 515 631 515 631 526 624.5 c 128,-1,191
 537 618 537 618 549 606 c 0,192,193
 555 599 555 599 559 592 c 1,194,195
 560 597 560 597 565 597 c 0,196,197
 568 597 568 597 572 596 c 0,198,199
 589 589 589 589 606 580 c 1,200,201
 600 585 600 585 595 590 c 0,202,203
 586 599 586 599 581 607 c 1,204,205
 581 605 581 605 579 604 c 0,206,207
 575 601 575 601 564 607 c 0,208,209
 514 635 514 635 473 666 c 0,210,211
 472 667 472 667 470 668 c 0,212,213
 409 717 409 717 334 812 c 0,214,215
 321 828 321 828 292 828 c 0,216,217
 283 828 283 828 272 824 c 0,218,219
 229 808 229 808 229 755 c 0,220,221
 229 743 229 743 208 757 c 0,222,223
 204 759 204 759 200 763 c 0,0,1
EndSplineSet
EndChar

StartChar: apls
Encoding: 43 43 15
Width: 1134
GlyphClass: 2
Flags: W
LayerCount: 2
Fore
SplineSet
184 542 m 0,0,1
 163 567 163 567 174 571 c 0,2,3
 175 572 175 572 176 572 c 2,4,-1
 619 572 l 1,5,-1
 619 1086 l 2,6,7
 619 1099 619 1099 641 1085 c 0,8,9
 644 1082 644 1082 648 1079 c 0,10,11
 661 1069 661 1069 669.5 1056.5 c 128,-1,12
 678 1044 678 1044 678 1038 c 2,13,-1
 678 572 l 1,14,-1
 1075 572 l 2,15,16
 1081 572 1081 572 1093.5 563.5 c 128,-1,17
 1106 555 1106 555 1116 543 c 0,18,19
 1136 518 1136 518 1126 513 c 0,20,21
 1125 513 1125 513 1123 513 c 0,22,23
 901 513 901 513 678 513 c 1,24,-1
 678 -50 l 2,25,26
 678 -63 678 -63 656 -49 c 0,27,28
 652 -46 652 -46 648 -43 c 0,29,30
 636 -33 636 -33 627.5 -20.5 c 128,-1,31
 619 -8 619 -8 619 -2 c 2,32,-1
 619 513 l 1,33,-1
 225 513 l 2,34,35
 218 513 218 513 206 521.5 c 128,-1,36
 194 530 194 530 184 542 c 0,0,1
EndSplineSet
EndChar

StartChar: acm
Encoding: 44 44 16
Width: 464
GlyphClass: 2
Flags: W
LayerCount: 2
Fore
SplineSet
272 161 m 1,0,1
 264 160 264 160 257 158 c 1,2,3
 250 154 250 154 245 150 c 1,4,5
 237 135 237 135 234 116 c 1,6,7
 238 117 238 117 242 119 c 0,8,9
 271 129 271 129 272 161 c 1,0,1
202 92 m 0,10,11
 190 102 190 102 181 114.5 c 128,-1,12
 172 127 172 127 172 133 c 0,13,14
 172 138 172 138 172 142 c 0,15,16
 170 152 170 152 170 161 c 0,17,18
 170 190 170 190 187 206 c 1,19,20
 204 239 204 239 241 252 c 0,21,22
 257 258 257 258 276 258 c 0,23,24
 310 258 310 258 342 239 c 0,25,26
 407 200 407 200 440 119 c 0,27,28
 460 71 460 71 460 13 c 0,29,30
 460 -150 460 -150 347 -266 c 1,31,32
 314 -298 314 -298 275 -321 c 0,33,34
 271 -324 271 -324 259.5 -317 c 128,-1,35
 248 -310 248 -310 237 -298.5 c 128,-1,36
 226 -287 226 -287 221 -276.5 c 128,-1,37
 216 -266 216 -266 220 -263 c 0,38,39
 258 -240 258 -240 290 -209 c 1,40,41
 400 -96 400 -96 400 62 c 0,42,43
 400 114 400 114 384 154 c 0,44,45
 374 179 374 179 365 189 c 1,46,47
 351 199 351 199 325 199 c 0,48,49
 308 199 308 199 294 193 c 0,50,51
 291 192 291 192 288 191 c 1,52,53
 293 186 293 186 298 181 c 0,54,55
 316 160 316 160 324 145 c 0,56,57
 324 143 324 143 325 142 c 0,58,59
 331 127 331 127 331 112 c 0,60,61
 331 73 331 73 296 60 c 0,62,63
 285 56 285 56 273 56 c 0,64,65
 250 56 250 56 229 70 c 0,66,67
 215 80 215 80 204 91 c 0,68,69
 203 91 203 91 202 92 c 0,10,11
EndSplineSet
EndChar

StartChar: aHP
Encoding: 45 45 17
Width: 739
GlyphClass: 2
Flags: W
LayerCount: 2
Fore
SplineSet
184 495 m 0,0,1
 163 520 163 520 174 524 c 0,2,3
 175 525 175 525 176 525 c 2,4,-1
 680 525 l 2,5,6
 687 525 687 525 699 516 c 128,-1,7
 711 507 711 507 721 495 c 0,8,9
 742 470 742 470 731 466 c 0,10,11
 730 465 730 465 729 465 c 2,12,-1
 225 465 l 2,13,14
 218 465 218 465 205.5 474 c 128,-1,15
 193 483 193 483 184 495 c 0,0,1
EndSplineSet
EndChar

StartChar: aprd
Encoding: 46 46 18
Width: 335
GlyphClass: 2
Flags: W
LayerCount: 2
Fore
SplineSet
272 98 m 1,0,1
 264 97 264 97 257 95 c 1,2,3
 231 83 231 83 229 52 c 1,4,5
 236 53 236 53 242 56 c 0,6,7
 271 66 271 66 272 98 c 1,0,1
225 157 m 0,8,9
 243 157 243 157 261 148 c 1,10,11
 280 137 280 137 298 117 c 128,-1,12
 316 97 316 97 324 81 c 0,13,14
 324 80 324 80 325 79 c 0,15,16
 331 64 331 64 331 49 c 0,17,18
 331 10 331 10 296 -3 c 0,19,20
 285 -7 285 -7 273 -7 c 0,21,22
 250 -7 250 -7 229 7 c 0,23,24
 206 22 206 22 192 41.5 c 128,-1,25
 178 61 178 61 174 75 c 0,26,27
 170 86 170 86 170 98 c 0,28,29
 170 138 170 138 203 153 c 0,30,31
 213 157 213 157 225 157 c 0,8,9
EndSplineSet
EndChar

StartChar: aslh
Encoding: 47 47 19
Width: 566
GlyphClass: 2
Flags: W
LayerCount: 2
Fore
SplineSet
536 1004 m 0,0,1
 548 993 548 993 555.5 981 c 128,-1,2
 563 969 563 969 561 964 c 2,3,-1
 229 -89 l 1,4,5
 227 -92 227 -92 222.5 -91.5 c 128,-1,6
 218 -91 218 -91 210.5 -87 c 128,-1,7
 203 -83 203 -83 195 -76 c 0,8,9
 183 -65 183 -65 176 -53 c 128,-1,10
 169 -41 169 -41 170 -36 c 2,11,-1
 503 1017 l 2,12,13
 504 1020 504 1020 508.5 1019.5 c 128,-1,14
 513 1019 513 1019 520.5 1015 c 128,-1,15
 528 1011 528 1011 536 1004 c 0,0,1
EndSplineSet
EndChar

StartChar: a0
Encoding: 48 48 20
Width: 973
GlyphClass: 2
Flags: W
LayerCount: 2
Fore
SplineSet
594 -70 m 0,0,1
 487 -70 487 -70 403 -17 c 0,2,3
 280 61 280 61 218 220 c 1,4,5
 170 347 170 347 170 495 c 0,6,7
 170 703 170 703 267 851 c 0,8,9
 294 893 294 893 328 921 c 0,10,11
 419 997 419 997 551 997 c 0,12,13
 615 997 615 997 670 976 c 0,14,15
 725 956 725 956 779 910 c 128,-1,16
 833 864 833 864 873 802 c 0,17,18
 968 652 968 652 968 438 c 0,19,20
 968 170 968 170 830 28 c 1,21,22
 732 -70 732 -70 594 -70 c 0,0,1
543 -11 m 0,23,24
 678 -11 678 -11 773 85 c 0,25,26
 909 223 909 223 909 487 c 0,27,28
 909 689 909 689 826 820 c 1,29,30
 800 859 800 859 773.5 882 c 128,-1,31
 747 905 747 905 707 920 c 0,32,33
 658 938 658 938 600 938 c 0,34,35
 473 938 473 938 384 863 c 1,36,37
 351 837 351 837 324 796 c 0,38,39
 229 650 229 650 229 446 c 0,40,41
 229 303 229 303 274 184 c 1,42,43
 318 72 318 72 384 31 c 0,44,45
 450 -11 450 -11 543 -11 c 0,23,24
EndSplineSet
EndChar

StartChar: a1
Encoding: 49 49 21
Width: 420
GlyphClass: 2
Flags: W
LayerCount: 2
Fore
SplineSet
188.5 863 m 128,-1,1
 177 875 177 875 172.5 885 c 128,-1,2
 168 895 168 895 172 898 c 2,3,-1
 346 997 l 2,4,5
 348 998 348 998 352 997 c 2,6,-1
 365 994 l 2,7,8
 373 992 373 992 385.5 982 c 128,-1,9
 398 972 398 972 406 960 c 1,10,11
 416 948 416 948 416 941 c 2,12,-1
 416 64 l 1,13,-1
 414 -64 l 2,14,15
 414 -76 414 -76 392 -62 c 0,16,17
 388 -59 388 -59 384 -56 c 0,18,19
 372 -46 372 -46 363 -33.5 c 128,-1,20
 354 -21 354 -21 354 -15 c 2,21,-1
 356 113 l 1,22,-1
 356 914 l 1,23,-1
 227 840 l 2,24,25
 223 838 223 838 211.5 844.5 c 128,-1,0
 200 851 200 851 188.5 863 c 128,-1,1
EndSplineSet
EndChar

StartChar: a2
Encoding: 50 50 22
Width: 879
GlyphClass: 2
Flags: W
LayerCount: 2
Fore
SplineSet
198 663 m 0,0,1
 186 674 186 674 178 686 c 128,-1,2
 170 698 170 698 172 703 c 0,3,4
 246 988 246 988 498 998 c 1,5,-1
 518 998 l 2,6,7
 597 998 597 998 665 970.5 c 128,-1,8
 733 943 733 943 793 876 c 0,9,10
 874 787 874 787 874 685 c 0,11,12
 874 453 874 453 675 332 c 0,13,14
 545 253 545 253 519 235 c 2,15,-1
 229 45 l 1,16,-1
 229 -7 l 1,17,-1
 814 -7 l 2,18,19
 821 -7 821 -7 833 -16 c 128,-1,20
 845 -25 845 -25 855 -37 c 0,21,22
 875 -62 875 -62 865 -66 c 0,23,24
 864 -67 864 -67 862 -67 c 2,25,-1
 224 -67 l 2,26,27
 215 -67 215 -67 200 -54 c 0,28,29
 188 -44 188 -44 179 -32 c 128,-1,30
 170 -20 170 -20 170 -13 c 2,31,-1
 170 97 l 2,32,33
 170 100 170 100 172 102 c 2,34,-1
 463 292 l 1,35,36
 489 311 489 311 620 390 c 0,37,38
 815 508 815 508 815 734 c 0,39,40
 815 815 815 815 767 867 c 0,41,42
 740 897 740 897 688.5 918 c 128,-1,43
 637 939 637 939 566 939 c 2,44,-1
 547 939 l 1,45,46
 303 929 303 929 231 651 c 0,47,48
 229 647 229 647 224.5 647.5 c 128,-1,49
 220 648 220 648 213 652 c 128,-1,50
 206 656 206 656 198 663 c 0,0,1
EndSplineSet
EndChar

StartChar: a3
Encoding: 51 51 23
Width: 894
GlyphClass: 2
Flags: W
LayerCount: 2
Fore
SplineSet
221 718 m 0,0,1
 209 729 209 729 202 740.5 c 128,-1,2
 195 752 195 752 197 758 c 0,3,4
 273 945 273 945 424 986 c 1,5,6
 471 997 471 997 525 997 c 0,7,8
 550 997 550 997 573 995 c 0,9,10
 705 980 705 980 787 875 c 0,11,12
 835 812 835 812 835 743 c 0,13,14
 835 633 835 633 707 533 c 0,15,16
 697 525 697 525 684 516 c 1,17,18
 793 468 793 468 830 405 c 1,19,20
 867 363 867 363 878 322 c 128,-1,21
 889 281 889 281 889 221 c 0,22,23
 889 96 889 96 724 1 c 1,24,25
 603 -70 603 -70 428 -70 c 0,26,27
 305 -70 305 -70 247 -39 c 0,28,29
 227 -28 227 -28 205.5 -7.5 c 128,-1,30
 184 13 184 13 173 34 c 0,31,32
 168 44 168 44 172 47.5 c 128,-1,33
 176 51 176 51 187 45 c 0,34,35
 205 36 205 36 222 13 c 1,36,37
 269 -11 269 -11 379 -11 c 0,38,39
 550 -11 550 -11 669 58 c 0,40,41
 830 151 830 151 830 270 c 0,42,43
 830 317 830 317 820 352.5 c 128,-1,44
 810 388 810 388 802 398 c 1,45,46
 786 414 786 414 781 426 c 1,47,48
 743 456 743 456 636 491 c 0,49,50
 622 496 622 496 605 514 c 0,51,52
 594 525 594 525 589 535.5 c 128,-1,53
 584 546 584 546 589 549 c 0,54,55
 626 570 626 570 651 590 c 0,56,57
 776 687 776 687 776 792 c 0,58,59
 776 845 776 845 749 880 c 0,60,61
 735 898 735 898 700 915 c 128,-1,62
 665 932 665 932 608 937 c 0,63,64
 591 938 591 938 574 938 c 0,65,66
 522 938 522 938 476 927 c 1,67,68
 330 887 330 887 255 704 c 0,69,70
 254 701 254 701 249 701.5 c 128,-1,71
 244 702 244 702 236.5 706.5 c 128,-1,72
 229 711 229 711 221 718 c 0,0,1
EndSplineSet
EndChar

StartChar: a4
Encoding: 52 52 24
Width: 986
GlyphClass: 2
Flags: W
LayerCount: 2
Fore
SplineSet
970 224 m 0,0,1
 988 199 988 199 978 195 c 1,2,-1
 816 195 l 1,3,-1
 816 -61 l 2,4,5
 816 -73 816 -73 795 -59 c 0,6,7
 791 -56 791 -56 787 -53 c 0,8,9
 775 -43 775 -43 766 -31 c 128,-1,10
 757 -19 757 -19 757 -12 c 2,11,-1
 757 195 l 1,12,-1
 224 195 l 2,13,14
 215 195 215 195 200 208 c 1,15,16
 188 217 188 217 179 229.5 c 128,-1,17
 170 242 170 242 170 249 c 2,18,-1
 170 343 l 2,19,20
 170 346 170 346 172 347 c 0,21,22
 440 583 440 583 635 996 c 0,23,24
 636 998 636 998 639 998 c 2,25,-1
 762 998 l 2,26,27
 771 998 771 998 787 985 c 0,28,29
 799 975 799 975 807.5 963 c 128,-1,30
 816 951 816 951 816 944 c 2,31,-1
 816 254 l 1,32,-1
 929 254 l 2,33,34
 936 254 936 254 948 245.5 c 128,-1,35
 960 237 960 237 970 224 c 0,0,1
757 254 m 1,36,-1
 757 939 l 1,37,-1
 692 939 l 1,38,39
 497 528 497 528 229 292 c 1,40,-1
 229 254 l 1,41,-1
 757 254 l 1,36,-1
EndSplineSet
EndChar

StartChar: a5
Encoding: 53 53 25
Width: 923
GlyphClass: 2
Flags: W
LayerCount: 2
Fore
SplineSet
854 967 m 0,0,1
 875 942 875 942 864 937 c 0,2,3
 863 937 863 937 862 937 c 2,4,-1
 510 937 l 1,5,-1
 368 672 l 1,6,7
 563 672 563 672 701 606 c 0,8,9
 748 584 748 584 787 553 c 0,10,11
 906 460 906 460 918 330 c 1,12,13
 925 228 925 228 875 131 c 0,14,15
 832 48 832 48 758 5 c 1,16,17
 686 -38 686 -38 607.5 -57.5 c 128,-1,18
 529 -77 529 -77 440 -77 c 0,19,20
 303 -77 303 -77 201 3 c 0,21,22
 189 13 189 13 180 25 c 128,-1,23
 171 37 171 37 170 45 c 0,24,25
 169 58 169 58 190 46 c 0,26,27
 194 43 194 43 198 40 c 0,28,29
 230 15 230 15 280 -1 c 128,-1,30
 330 -17 330 -17 391 -17 c 0,31,32
 479 -17 479 -17 555.5 1.5 c 128,-1,33
 632 20 632 20 703 62 c 0,34,35
 775 104 775 104 817 185 c 0,36,37
 866 280 866 280 859 377 c 1,38,39
 850 470 850 470 790 517 c 0,40,41
 766 535 766 535 732 552 c 0,42,43
 580 625 580 625 341 611 c 0,44,45
 326 610 326 610 302 632 c 0,46,47
 291 643 291 643 284 654.5 c 128,-1,48
 277 666 277 666 279 671 c 2,49,-1
 453 994 l 2,50,51
 454 996 454 996 457 996 c 2,52,-1
 813 996 l 2,53,54
 820 996 820 996 832 987.5 c 128,-1,55
 844 979 844 979 854 967 c 0,0,1
EndSplineSet
EndChar

StartChar: a6
Encoding: 54 54 26
Width: 944
GlyphClass: 2
Flags: W
LayerCount: 2
Fore
SplineSet
382 534.5 m 128,-1,1
 371 546 371 546 366 556.5 c 128,-1,2
 361 567 361 567 366 570 c 0,3,4
 474 629 474 629 536 634 c 0,5,6
 552 636 552 636 578 636 c 0,7,8
 654 636 654 636 714 613 c 0,9,10
 762 595 762 595 808.5 557.5 c 128,-1,11
 855 520 855 520 889 469 c 0,12,13
 889 468 889 468 890 467 c 0,14,15
 940 384 940 384 940 276 c 0,16,17
 940 92 940 92 805 -4 c 1,18,19
 716 -69 716 -69 590 -69 c 0,20,21
 526 -69 526 -69 471 -52 c 0,22,23
 413 -34 413 -34 356 9 c 128,-1,24
 299 52 299 52 256 115 c 0,25,26
 170 238 170 238 170 414 c 0,27,28
 170 689 170 689 402 861 c 1,29,30
 425 876 425 876 446 890 c 0,31,32
 570 972 570 972 728 992 c 0,33,34
 781 999 781 999 850 1005 c 0,35,36
 856 1006 856 1006 868 997.5 c 128,-1,37
 880 989 880 989 891 977 c 0,38,39
 912 952 912 952 902 946 c 0,40,41
 901 946 901 946 900 946 c 0,42,43
 831 940 831 940 779 933 c 0,44,45
 624 913 624 913 501 832 c 0,46,47
 480 818 480 818 458 804 c 1,48,49
 229 634 229 634 229 365 c 0,50,51
 229 203 229 203 300 101 c 0,52,53
 324 66 324 66 354 43 c 128,-1,54
 384 20 384 20 432 6 c 1,55,56
 482 -10 482 -10 542 -10 c 0,57,58
 663 -10 663 -10 749 54 c 1,59,60
 880 147 880 147 880 325 c 0,61,62
 880 422 880 422 841 487 c 0,63,64
 825 512 825 512 805 528.5 c 128,-1,65
 785 545 785 545 748 558 c 0,66,67
 696 577 696 577 627 577 c 0,68,69
 602 577 602 577 586 575 c 0,70,71
 527 570 527 570 421 512 c 0,72,73
 416 509 416 509 404.5 516 c 128,-1,0
 393 523 393 523 382 534.5 c 128,-1,1
EndSplineSet
EndChar

StartChar: a7
Encoding: 55 55 27
Width: 872
GlyphClass: 2
Flags: W
LayerCount: 2
Fore
SplineSet
184 963 m 0,0,1
 163 988 163 988 174 992 c 0,2,3
 175 993 175 993 176 993 c 2,4,-1
 814 993 l 2,5,6
 821 993 821 993 833 984 c 128,-1,7
 845 975 845 975 855 963 c 0,8,9
 868 947 868 947 868 939 c 2,10,-1
 868 811 l 2,11,12
 868 809 868 809 866 807 c 2,13,-1
 695 633 l 1,14,15
 559 455 559 455 520 -59 c 0,16,17
 519 -72 519 -72 496 -54 c 0,18,19
 493 -52 493 -52 490 -50 c 0,20,21
 478 -39 478 -39 469.5 -27 c 128,-1,22
 461 -15 461 -15 461 -9 c 0,23,24
 500 508 500 508 638 690 c 1,25,-1
 808 863 l 1,26,-1
 808 933 l 1,27,-1
 225 933 l 2,28,29
 218 933 218 933 205.5 942 c 128,-1,30
 193 951 193 951 184 963 c 0,0,1
EndSplineSet
EndChar

StartChar: a8
Encoding: 56 56 28
Width: 873
GlyphClass: 2
Flags: W
LayerCount: 2
Fore
SplineSet
612 493 m 1,0,1
 660 470 660 470 696 448 c 0,2,3
 745 418 745 418 783.5 380 c 128,-1,4
 822 342 822 342 837 305 c 1,5,6
 868 249 868 249 868 182 c 0,7,8
 868 33 868 33 728 -34 c 1,9,10
 648 -70 648 -70 540 -70 c 0,11,12
 448 -70 448 -70 374.5 -42 c 128,-1,13
 301 -14 301 -14 239 56 c 0,14,15
 165 140 165 140 170 226 c 0,16,17
 173 273 173 273 225 368 c 0,18,19
 260 433 260 433 399 494 c 1,20,21
 273 550 273 550 210 647 c 0,22,23
 210 648 210 648 209 649 c 0,24,25
 180 697 180 697 180 761 c 0,26,27
 180 883 180 883 301 950 c 0,28,29
 385 997 385 997 497 997 c 0,30,31
 581 997 581 997 648 971.5 c 128,-1,32
 715 946 715 946 773 880 c 0,33,34
 840 804 840 804 833 735 c 0,35,36
 822 621 822 621 735 563 c 0,37,38
 669 519 669 519 612 493 c 1,0,1
558 476 m 0,39,40
 543 482 543 482 527 500 c 0,41,42
 520 507 520 507 515.5 514.5 c 128,-1,43
 511 522 511 522 510.5 527 c 128,-1,44
 510 532 510 532 513 533 c 0,45,46
 586 559 586 559 680 621 c 1,47,48
 763 677 763 677 774 786 c 0,49,50
 778 835 778 835 744 875 c 0,51,52
 723 899 723 899 671.5 918.5 c 128,-1,53
 620 938 620 938 546 938 c 0,54,55
 437 938 437 938 355 892 c 0,56,57
 239 827 239 827 239 712 c 0,58,59
 239 660 239 660 258 628 c 1,60,61
 296 570 296 570 414 530 c 0,62,63
 436 523 436 523 461 516 c 0,64,65
 476 512 476 512 494 492 c 0,66,67
 501 484 501 484 505.5 476.5 c 128,-1,68
 510 469 510 469 511 464 c 128,-1,69
 512 459 512 459 508 458 c 0,70,71
 324 388 324 388 283 313 c 0,72,73
 232 220 232 220 230 176 c 1,74,75
 225 110 225 110 267 62 c 0,76,77
 293 33 293 33 350.5 11 c 128,-1,78
 408 -11 408 -11 491 -11 c 0,79,80
 596 -11 596 -11 674 24 c 1,81,82
 809 89 809 89 809 231 c 0,83,84
 809 290 809 290 784 333 c 0,85,86
 782 336 782 336 781 339 c 0,87,88
 776 353 776 353 765.5 363.5 c 128,-1,89
 755 374 755 374 726 394 c 0,90,91
 665 434 665 434 558 476 c 0,39,40
EndSplineSet
EndChar

StartChar: a9
Encoding: 57 57 29
Width: 936
GlyphClass: 2
Flags: W
LayerCount: 2
Fore
SplineSet
751.5 415 m 128,-1,1
 763 403 763 403 767.5 392.5 c 128,-1,2
 772 382 772 382 768 380 c 0,3,4
 639 299 639 299 519 296 c 1,5,6
 456 296 456 296 404 313 c 0,7,8
 355 329 355 329 307.5 365.5 c 128,-1,9
 260 402 260 402 225 455 c 0,10,11
 170 538 170 538 170 647 c 0,12,13
 170 818 170 818 295 921 c 0,14,15
 387 996 387 996 516 996 c 0,16,17
 547 996 547 996 577 992 c 0,18,19
 728 969 728 969 837 828 c 1,20,21
 932 702 932 702 932 530 c 0,22,23
 932 292 932 292 762 120 c 0,24,25
 716 73 716 73 659 36 c 1,26,27
 553 -42 553 -42 387 -59 c 1,28,29
 337 -67 337 -67 271 -75 c 0,30,31
 265 -76 265 -76 253 -68 c 128,-1,32
 241 -60 241 -60 231 -48 c 0,33,34
 209 -22 209 -22 219 -17 c 0,35,36
 219 -16 219 -16 221 -16 c 0,37,38
 286 -7 286 -7 336 0 c 1,39,40
 499 17 499 17 604 93 c 1,41,42
 660 130 660 130 706 177 c 0,43,44
 872 345 872 345 872 578 c 0,45,46
 872 734 872 734 798 834 c 1,47,48
 732 919 732 919 615 934 c 0,49,50
 591 937 591 937 565 937 c 0,51,52
 441 937 441 937 351 864 c 0,53,54
 229 764 229 764 229 598 c 0,55,56
 229 502 229 502 270 439 c 0,57,58
 287 414 287 414 308.5 398 c 128,-1,59
 330 382 330 382 368 370 c 0,60,61
 413 355 413 355 470 355 c 1,62,63
 586 358 586 358 713 437 c 0,64,65
 717 440 717 440 728.5 433.5 c 128,-1,0
 740 427 740 427 751.5 415 c 128,-1,1
EndSplineSet
EndChar

StartChar: acln
Encoding: 58 58 30
Width: 335
GlyphClass: 2
Flags: W
LayerCount: 2
Fore
SplineSet
272 870 m 1,0,1
 264 869 264 869 257 867 c 1,2,3
 231 855 231 855 229 825 c 1,4,5
 236 825 236 825 242 828 c 0,6,7
 271 838 271 838 272 870 c 1,0,1
225 929 m 0,8,9
 244 929 244 929 261 920 c 0,10,11
 280 910 280 910 298 889.5 c 128,-1,12
 316 869 316 869 324 854 c 0,13,14
 324 852 324 852 325 851 c 0,15,16
 331 836 331 836 331 821 c 0,17,18
 331 782 331 782 296 769 c 0,19,20
 286 765 286 765 273 765 c 0,21,22
 250 765 250 765 229 779 c 0,23,24
 207 794 207 794 193 813.5 c 128,-1,25
 179 833 179 833 174 847 c 0,26,27
 170 858 170 858 170 870 c 0,28,29
 170 910 170 910 203 925 c 0,30,31
 214 929 214 929 225 929 c 0,8,9
272 100 m 1,32,33
 264 99 264 99 257 96 c 0,34,35
 231 85 231 85 229 54 c 1,36,37
 236 55 236 55 242 57 c 0,38,39
 271 68 271 68 272 100 c 1,32,33
225 159 m 0,40,41
 243 159 243 159 261 149 c 0,42,43
 280 139 280 139 298 119 c 128,-1,44
 316 99 316 99 324 83 c 0,45,46
 324 82 324 82 325 81 c 0,47,48
 331 65 331 65 331 51 c 0,49,50
 331 11 331 11 296 -1 c 0,51,52
 285 -5 285 -5 273 -5 c 0,53,54
 250 -5 250 -5 229 9 c 0,55,56
 206 24 206 24 192 43 c 128,-1,57
 178 62 178 62 174 76 c 0,58,59
 170 88 170 88 170 100 c 0,60,61
 170 140 170 140 203 154 c 0,62,63
 213 159 213 159 225 159 c 0,40,41
EndSplineSet
EndChar

StartChar: ascln
Encoding: 59 59 31
Width: 472
GlyphClass: 2
Flags: W
LayerCount: 2
Fore
SplineSet
209 67 m 0,0,1
 197 77 197 77 188.5 89 c 128,-1,2
 180 101 180 101 180 108 c 0,3,4
 180 116 180 116 180 124 c 1,5,6
 176 132 176 132 174 138 c 0,7,8
 170 150 170 150 170 162 c 0,9,10
 170 202 170 202 203 216 c 0,11,12
 213 221 213 221 226 221 c 0,13,14
 230 221 230 221 234 220 c 1,15,16
 240 224 240 224 248 227 c 0,17,18
 264 233 264 233 283 233 c 0,19,20
 317 233 317 233 349 214 c 0,21,22
 414 175 414 175 447 94 c 0,23,24
 467 46 467 46 467 -12 c 0,25,26
 467 -175 467 -175 354 -291 c 1,27,28
 321 -323 321 -323 283 -346 c 0,29,30
 278 -349 278 -349 267 -342.5 c 128,-1,31
 256 -336 256 -336 244.5 -324 c 128,-1,32
 233 -312 233 -312 228 -301.5 c 128,-1,33
 223 -291 223 -291 228 -288 c 0,34,35
 265 -265 265 -265 298 -234 c 1,36,37
 408 -121 408 -121 408 37 c 0,38,39
 408 89 408 89 391 129 c 0,40,41
 381 154 381 154 372 164 c 1,42,43
 358 174 358 174 332 174 c 0,44,45
 319 174 319 174 307 170 c 1,46,47
 318 157 318 157 324 145 c 0,48,49
 324 144 324 144 325 143 c 0,50,51
 331 127 331 127 331 113 c 0,52,53
 331 73 331 73 296 61 c 0,54,55
 285 57 285 57 273 57 c 0,56,57
 256 57 256 57 239 65 c 1,58,59
 239 62 239 62 239 60 c 0,60,61
 239 47 239 47 217 61 c 0,62,63
 213 64 213 64 209 67 c 0,0,1
318 874 m 1,64,65
 310 874 310 874 303 871 c 0,66,67
 277 859 277 859 275 829 c 1,68,69
 282 830 282 830 288 832 c 0,70,71
 317 843 317 843 318 874 c 1,64,65
271 934 m 0,72,73
 289 934 289 934 307 924 c 0,74,75
 326 914 326 914 344 894 c 128,-1,76
 362 874 362 874 370 858 c 0,77,78
 370 857 370 857 371 856 c 0,79,80
 377 840 377 840 377 826 c 0,81,82
 377 786 377 786 342 774 c 0,83,84
 331 770 331 770 319 770 c 0,85,86
 296 770 296 770 275 784 c 1,87,88
 252 798 252 798 238 817.5 c 128,-1,89
 224 837 224 837 220 851 c 0,90,91
 216 863 216 863 216 875 c 0,92,93
 216 915 216 915 249 929 c 0,94,95
 259 934 259 934 271 934 c 0,72,73
251 124 m 1,96,97
 266 132 266 132 270 150 c 1,98,99
 259 139 259 139 251 124 c 1,96,97
EndSplineSet
EndChar

StartChar: alt
Encoding: 60 60 32
Width: 1178
GlyphClass: 2
Flags: W
LayerCount: 2
Fore
SplineSet
1155 1087 m 128,-1,1
 1166 1075 1166 1075 1171 1064.5 c 128,-1,2
 1176 1054 1176 1054 1172 1052 c 2,3,-1
 253 508 l 1,4,-1
 1133 -12 l 2,5,6
 1144 -18 1144 -18 1155.5 -30.5 c 128,-1,7
 1167 -43 1167 -43 1171.5 -53 c 128,-1,8
 1176 -63 1176 -63 1171.5 -65.5 c 128,-1,9
 1167 -68 1167 -68 1155 -61 c 2,10,-1
 211 497 l 2,11,12
 200 503 200 503 188.5 515 c 128,-1,13
 177 527 177 527 172.5 537.5 c 128,-1,14
 168 548 168 548 172 550 c 2,15,-1
 1117 1109 l 2,16,17
 1121 1112 1121 1112 1132.5 1105.5 c 128,-1,0
 1144 1099 1144 1099 1155 1087 c 128,-1,1
EndSplineSet
EndChar

StartChar: aeq
Encoding: 61 61 33
Width: 1263
GlyphClass: 2
Flags: W
LayerCount: 2
Fore
SplineSet
181 372 m 1,0,1
 163 397 163 397 174 401 c 1,2,-1
 1206 401 l 2,3,4
 1213 401 1213 401 1225 392.5 c 128,-1,5
 1237 384 1237 384 1247 372 c 1,6,7
 1265 346 1265 346 1255 342 c 1,8,-1
 223 342 l 2,9,10
 216 342 216 342 203.5 351 c 128,-1,11
 191 360 191 360 181 372 c 1,0,1
181 723 m 1,12,13
 163 749 163 749 174 753 c 1,14,-1
 1206 753 l 2,15,16
 1213 753 1213 753 1225 744 c 128,-1,17
 1237 735 1237 735 1247 723 c 1,18,19
 1265 698 1265 698 1255 694 c 1,20,-1
 223 694 l 2,21,22
 216 694 216 694 203.5 702.5 c 128,-1,23
 191 711 191 711 181 723 c 1,12,13
EndSplineSet
EndChar

StartChar: agt
Encoding: 62 62 34
Width: 1184
GlyphClass: 2
Flags: W
LayerCount: 2
Fore
SplineSet
188 1108 m 1,0,-1
 1139 549 l 2,1,2
 1150 542 1150 542 1161 530 c 128,-1,3
 1172 518 1172 518 1177 507.5 c 128,-1,4
 1182 497 1182 497 1178 495 c 2,5,-1
 227 -76 l 2,6,7
 223 -78 223 -78 211.5 -71.5 c 128,-1,8
 200 -65 200 -65 188.5 -53.5 c 128,-1,9
 177 -42 177 -42 172.5 -31.5 c 128,-1,10
 168 -21 168 -21 172 -18 c 2,11,-1
 1097 537 l 1,12,-1
 211 1058 l 1,13,-1
 188 1108 l 1,0,-1
EndSplineSet
EndChar

StartChar: aqm
Encoding: 63 63 35
Width: 736
GlyphClass: 2
Flags: W
LayerCount: 2
Fore
SplineSet
421 140 m 0,0,1
 445 140 445 140 468 128 c 0,2,3
 490 116 490 116 511 93 c 128,-1,4
 532 70 532 70 542 49 c 0,5,6
 553 26 553 26 553 3 c 0,7,8
 553 -56 553 -56 501 -75 c 0,9,10
 485 -81 485 -81 468 -81 c 0,11,12
 437 -81 437 -81 410 -64 c 0,13,14
 385 -49 385 -49 367.5 -26 c 128,-1,15
 350 -3 350 -3 343 16 c 1,16,17
 343 16 343 16 343 17 c 0,18,19
 338 33 338 33 338 50 c 0,20,21
 338 112 338 112 387 134 c 0,22,23
 402 140 402 140 421 140 c 0,0,1
470 81 m 0,24,25
 454 81 454 81 441 76 c 0,26,27
 397 56 397 56 397 1 c 0,28,29
 397 -10 397 -10 400 -20 c 1,30,31
 409 -22 409 -22 420 -22 c 0,32,33
 434 -22 434 -22 447 -17 c 0,34,35
 494 0 494 0 494 52 c 0,36,37
 494 66 494 66 488 79 c 1,38,39
 480 81 480 81 470 81 c 0,24,25
286 676 m 0,40,41
 307 651 307 651 296 647 c 0,42,43
 295 646 295 646 294 646 c 0,44,45
 259 646 259 646 228 672 c 0,46,47
 207 689 207 689 194 706 c 128,-1,48
 181 723 181 723 176.5 741.5 c 128,-1,49
 172 760 172 760 171 769 c 128,-1,50
 170 778 170 778 170 796 c 0,51,52
 170 915 170 915 266 980 c 0,53,54
 328 1021 328 1021 411 1021 c 0,55,56
 483 1021 483 1021 545.5 995.5 c 128,-1,57
 608 970 608 970 665 905 c 1,58,59
 732 826 732 826 732 732 c 0,60,61
 732 624 732 624 634 491 c 0,62,63
 617 467 617 467 578 418 c 1,64,65
 509 327 509 327 488 206 c 1,66,-1
 485 185 l 2,67,68
 483 173 483 173 459 191 c 0,69,70
 456 193 456 193 453 195 c 0,71,72
 441 206 441 206 433 218 c 128,-1,73
 425 230 425 230 426 236 c 2,74,-1
 429 257 l 1,75,76
 450 381 450 381 520 474 c 1,77,78
 560 523 560 523 577 547 c 0,79,80
 673 677 673 677 673 781 c 0,81,82
 673 855 673 855 635 900 c 0,83,84
 613 925 613 925 568.5 943.5 c 128,-1,85
 524 962 524 962 460 962 c 0,86,87
 381 962 381 962 321 923 c 1,88,89
 229 860 229 860 229 747 c 0,90,91
 229 723 229 723 234 706 c 1,92,93
 239 705 239 705 245 705 c 0,94,95
 252 705 252 705 264 696.5 c 128,-1,96
 276 688 276 688 286 676 c 0,40,41
EndSplineSet
EndChar

StartChar: aat
Encoding: 64 64 36
Width: 1160
GlyphClass: 2
Flags: W
LayerCount: 2
Fore
SplineSet
818 324 m 1,0,1
 818 334 818 334 821 351 c 2,2,-1
 896 683 l 1,3,-1
 874 683 l 1,4,-1
 861 629 l 2,5,6
 859 617 859 617 835 636 c 0,7,8
 832 638 832 638 829 641 c 0,9,10
 812 655 812 655 805 670 c 0,11,12
 797 687 797 687 789 699 c 1,13,14
 777 704 777 704 760 704 c 0,15,16
 653 704 653 704 576 581 c 1,17,18
 504 463 504 463 504 325 c 0,19,20
 504 276 504 276 520 239 c 0,21,22
 524 230 524 230 527 225 c 1,23,24
 536 219 536 219 557 213 c 128,-1,25
 578 207 578 207 604 207 c 0,26,27
 605 207 605 207 605 207 c 1,28,29
 722 196 722 196 818 324 c 1,0,1
844 231 m 1,30,31
 757 138 757 138 653 148 c 1,32,33
 608 148 608 148 569.5 163.5 c 128,-1,34
 531 179 531 179 494 225 c 1,35,36
 475 247 475 247 465 272 c 1,37,38
 444 318 444 318 444 374 c 0,39,40
 444 516 444 516 518 636 c 0,41,42
 598 764 598 764 711 764 c 0,43,44
 727 764 727 764 737.5 762 c 128,-1,45
 748 760 748 760 768 749 c 128,-1,46
 788 738 788 738 810 716 c 1,47,-1
 816 739 l 1,48,49
 816 743 816 743 821 743 c 2,50,-1
 913 743 l 2,51,52
 923 743 923 743 941 727 c 0,53,54
 953 717 953 717 961 705 c 128,-1,55
 969 693 969 693 967 687 c 2,56,-1
 880 300 l 1,57,58
 877 281 877 281 877 273 c 0,59,60
 877 252 877 252 881 236 c 0,61,62
 882 231 882 231 884 226 c 1,63,64
 896 223 896 223 911 223 c 0,65,66
 963 223 963 223 1011 295 c 0,67,68
 1096 423 1096 423 1096 567 c 0,69,70
 1096 738 1096 738 996 848 c 1,71,72
 890 961 890 961 713 961 c 2,73,-1
 693 961 l 2,74,75
 506 961 506 961 364 800 c 0,76,77
 229 646 229 646 229 432 c 1,78,79
 230 326 230 326 263 239.5 c 128,-1,80
 296 153 296 153 351 94 c 0,81,82
 471 -33 471 -33 666 -33 c 0,83,84
 687 -33 687 -33 706 -31 c 0,85,86
 803 -24 803 -24 954 53 c 0,87,88
 958 56 958 56 969.5 49 c 128,-1,89
 981 42 981 42 992.5 30 c 128,-1,90
 1004 18 1004 18 1008.5 8 c 128,-1,91
 1013 -2 1013 -2 1008 -5 c 0,92,93
 856 -83 856 -83 756 -90 c 0,94,95
 736 -92 736 -92 715 -92 c 0,96,97
 493 -92 493 -92 328 82 c 1,98,99
 245 171 245 171 208 268.5 c 128,-1,100
 171 366 171 366 170 481 c 1,101,102
 170 700 170 700 307 856 c 0,103,104
 452 1020 452 1020 644 1020 c 2,105,-1
 664 1020 l 2,106,107
 870 1020 870 1020 1021 858 c 1,108,109
 1156 711 1156 711 1156 519 c 0,110,111
 1156 371 1156 371 1068 240 c 0,112,113
 1018 164 1018 164 960 164 c 0,114,115
 943 164 943 164 929 167 c 0,116,117
 896 175 896 175 865 206 c 0,118,119
 854 217 854 217 844 231 c 1,30,31
EndSplineSet
EndChar

StartChar: eA
Encoding: 65 65 37
Width: 1120
GlyphClass: 2
Flags: W
LayerCount: 2
Fore
SplineSet
176 8 m 1,0,1
 187 19 187 19 287 267 c 2,2,-1
 589 1017 l 2,3,4
 590 1020 590 1020 594 1020 c 2,5,-1
 624 1020 l 2,6,7
 631 1020 631 1020 643 1011 c 128,-1,8
 655 1002 655 1002 665 990 c 0,9,10
 673 981 673 981 676 973 c 2,11,-1
 1038 108 l 1,12,13
 1088 7 1088 7 1114 -56 c 0,14,15
 1119 -68 1119 -68 1109 -68 c 0,16,17
 1104 -68 1104 -68 1095 -62 c 0,18,19
 1084 -55 1084 -55 1072.5 -43 c 128,-1,20
 1061 -31 1061 -31 1058 -21 c 1,21,22
 1033 40 1033 40 984 139 c 0,23,24
 983 140 983 140 982 141 c 2,25,-1
 643 953 l 1,26,-1
 414 383 l 1,27,-1
 825 383 l 2,28,29
 832 383 832 383 844.5 374.5 c 128,-1,30
 857 366 857 366 867 354 c 0,31,32
 887 329 887 329 877 325 c 0,33,34
 876 324 876 324 874 324 c 2,35,-1
 452 324 l 2,36,37
 446 324 446 324 433.5 333 c 128,-1,38
 421 342 421 342 411 354 c 0,39,40
 408 359 408 359 405 363 c 1,41,-1
 345 214 l 2,42,43
 332 181 332 181 309 124 c 0,44,45
 268 21 268 21 251 -16.5 c 128,-1,46
 234 -54 234 -54 225 -55 c 0,47,48
 218 -55 218 -55 206 -46.5 c 128,-1,49
 194 -38 194 -38 184 -26 c 0,50,51
 172 -13 172 -13 170.5 -7 c 128,-1,52
 169 -1 169 -1 176 8 c 1,0,1
EndSplineSet
EndChar

StartChar: eB
Encoding: 66 66 38
Width: 934
GlyphClass: 2
Flags: W
LayerCount: 2
Fore
SplineSet
173 983 m 1,0,1
 166 999 166 999 175 999 c 2,2,-1
 445 999 l 2,3,4
 553 999 553 999 629.5 979.5 c 128,-1,5
 706 960 706 960 768 910 c 0,6,7
 877 821 877 821 879 686 c 1,8,9
 879 537 879 537 739 480 c 1,10,11
 813 444 813 444 860 389 c 0,12,13
 900 343 900 343 914.5 301 c 128,-1,14
 929 259 929 259 929 209 c 0,15,16
 929 77 929 77 830 0 c 1,17,18
 758 -67 758 -67 673 -68 c 2,19,-1
 227 -71 l 2,20,21
 220 -71 220 -71 208 -62.5 c 128,-1,22
 196 -54 196 -54 186 -42 c 0,23,24
 173 -26 173 -26 173 -17 c 2,25,-1
 173 983 l 1,0,1
626 519 m 0,26,27
 629 520 629 520 644 524 c 0,28,29
 645 525 645 525 646 525 c 0,30,31
 820 573 820 573 820 734 c 1,32,33
 819 789 819 789 803.5 824.5 c 128,-1,34
 788 860 788 860 769 875 c 0,35,36
 736 902 736 902 663 921 c 128,-1,37
 590 940 590 940 494 940 c 2,38,-1
 232 940 l 1,39,-1
 232 516 l 1,40,41
 429 517 429 517 626 519 c 0,26,27
674 460 m 1,42,-1
 232 456 l 1,43,-1
 232 -11 l 1,44,-1
 624 -8 l 2,45,46
 704 -8 704 -8 773 57 c 1,47,48
 870 132 870 132 870 257 c 0,49,50
 870 300 870 300 858 333.5 c 128,-1,51
 846 367 846 367 831 383 c 0,52,53
 830 384 830 384 830 385 c 0,54,55
 817 400 817 400 776 422 c 0,56,57
 736 443 736 443 674 460 c 1,42,-1
EndSplineSet
EndChar

StartChar: eC
Encoding: 67 67 39
Width: 1113
GlyphClass: 2
Flags: W
LayerCount: 2
Fore
SplineSet
1025.5 187.5 m 128,-1,1
 1030 190 1030 190 1041.5 183.5 c 128,-1,2
 1053 177 1053 177 1064 165 c 2,3,-1
 1090 138 l 2,4,5
 1100 127 1100 127 1105 117 c 128,-1,6
 1110 107 1110 107 1107 104 c 0,7,8
 990 -60 990 -60 779 -87 c 0,9,10
 743 -92 743 -92 707 -92 c 0,11,12
 456 -92 456 -92 296 102 c 1,13,14
 229 185 229 185 199.5 277 c 128,-1,15
 170 369 170 369 170 479 c 0,16,17
 170 732 170 732 326 886 c 1,18,19
 464 1020 464 1020 662 1020 c 0,20,21
 762 1020 762 1020 879 982 c 1,22,23
 915 969 915 969 931 969 c 0,24,25
 938 969 938 969 950 960.5 c 128,-1,26
 962 952 962 952 972 940 c 1,27,28
 990 914 990 914 979 910 c 1,29,30
 959 910 959 910 917 924 c 0,31,32
 807 961 807 961 711 961 c 0,33,34
 518 961 518 961 383 829 c 0,35,36
 229 679 229 679 229 431 c 0,37,38
 229 227 229 227 330 101 c 1,39,40
 441 -33 441 -33 658 -33 c 0,41,42
 693 -33 693 -33 728 -28 c 0,43,44
 926 -3 926 -3 1042 152 c 1,45,46
 1031 164 1031 164 1026 174.5 c 128,-1,0
 1021 185 1021 185 1025.5 187.5 c 128,-1,1
EndSplineSet
EndChar

StartChar: eD
Encoding: 68 68 40
Width: 1081
GlyphClass: 2
Flags: W
LayerCount: 2
Fore
SplineSet
229 940 m 1,0,-1
 229 -12 l 1,1,-1
 463 -12 l 2,2,3
 745 -12 745 -12 889 143 c 0,4,5
 1017 281 1017 281 1017 493 c 0,6,7
 1017 622 1017 622 968 723 c 0,8,9
 949 761 949 761 925 790 c 0,10,11
 870 857 870 857 760.5 898.5 c 128,-1,12
 651 940 651 940 492 940 c 2,13,-1
 234 940 l 2,14,15
 233 940 233 940 229 940 c 1,0,-1
179 994 m 1,16,17
 181 999 181 999 185 999 c 2,18,-1
 443 999 l 2,19,20
 612 999 612 999 739 951 c 128,-1,21
 866 903 866 903 959 790 c 0,22,23
 995 745 995 745 1021 694 c 0,24,25
 1077 581 1077 581 1077 444 c 0,26,27
 1077 227 1077 227 946 87 c 0,28,29
 799 -71 799 -71 512 -71 c 2,30,-1
 224 -71 l 2,31,32
 215 -71 215 -71 200 -58 c 0,33,34
 188 -48 188 -48 179 -36 c 128,-1,35
 170 -24 170 -24 170 -17 c 2,36,-1
 170 989 l 2,37,38
 170 996 170 996 179 994 c 1,16,17
EndSplineSet
EndChar

StartChar: eE
Encoding: 69 69 41
Width: 970
GlyphClass: 2
Flags: W
LayerCount: 2
Fore
SplineSet
941 969 m 0,0,1
 960 944 960 944 949 940 c 1,2,-1
 229 940 l 1,3,-1
 231 550 l 1,4,-1
 586 551 l 2,5,6
 593 551 593 551 605 542.5 c 128,-1,7
 617 534 617 534 627 521 c 0,8,9
 647 496 647 496 637 492 c 0,10,11
 636 492 636 492 634 492 c 0,12,13
 433 491 433 491 231 491 c 1,14,15
 230 240 230 240 229 -12 c 1,16,-1
 913 -12 l 2,17,18
 920 -12 920 -12 932 -20.5 c 128,-1,19
 944 -29 944 -29 954 -41 c 1,20,21
 972 -67 972 -67 962 -71 c 1,22,-1
 224 -71 l 2,23,24
 217 -71 217 -71 205 -62.5 c 128,-1,25
 193 -54 193 -54 183 -41 c 0,26,27
 170 -26 170 -26 170 -17 c 0,28,29
 171 265 171 265 171 546 c 0,30,31
 171 770 171 770 170 994 c 0,32,33
 170 999 170 999 175 999 c 2,34,-1
 900 999 l 2,35,36
 907 999 907 999 919 990.5 c 128,-1,37
 931 982 931 982 941 969 c 0,0,1
EndSplineSet
EndChar

StartChar: eF
Encoding: 70 70 42
Width: 957
GlyphClass: 2
Flags: W
LayerCount: 2
Fore
SplineSet
941 969 m 0,0,1
 960 944 960 944 949 940 c 1,2,-1
 229 940 l 1,3,-1
 231 550 l 1,4,-1
 586 551 l 2,5,6
 593 551 593 551 605 542.5 c 128,-1,7
 617 534 617 534 627 521 c 0,8,9
 647 496 647 496 637 492 c 0,10,11
 636 492 636 492 634 492 c 0,12,13
 433 491 433 491 231 491 c 1,14,15
 230 213 230 213 229 -66 c 0,16,17
 229 -79 229 -79 207 -64 c 0,18,19
 204 -62 204 -62 200 -58 c 0,20,21
 187 -48 187 -48 178.5 -36 c 128,-1,22
 170 -24 170 -24 170 -17 c 0,23,24
 171 265 171 265 171 546 c 0,25,26
 171 770 171 770 170 994 c 0,27,28
 170 999 170 999 175 999 c 2,29,-1
 900 999 l 2,30,31
 907 999 907 999 919 990.5 c 128,-1,32
 931 982 931 982 941 969 c 0,0,1
EndSplineSet
EndChar

StartChar: eG
Encoding: 71 71 43
Width: 1116
GlyphClass: 2
Flags: W
LayerCount: 2
Fore
SplineSet
685 470 m 0,0,1
 664 495 664 495 675 500 c 0,2,3
 676 500 676 500 677 500 c 2,4,-1
 866 505 l 2,5,6
 867 505 867 505 867 505 c 1,7,8
 928 497 928 497 969 484 c 128,-1,9
 1010 471 1010 471 1046 441 c 0,10,11
 1111 389 1111 389 1111 329 c 2,12,-1
 1111 19 l 2,13,14
 1111 17 1111 17 1110 15 c 0,15,16
 1050 -40 1050 -40 883 -75 c 0,17,18
 804 -92 804 -92 741 -92 c 0,19,20
 534 -92 534 -92 380 26 c 0,21,22
 268 113 268 113 219 226.5 c 128,-1,23
 170 340 170 340 170 479 c 0,24,25
 170 727 170 727 322 880 c 1,26,27
 468 1025 468 1025 674 1020 c 0,28,29
 853 1016 853 1016 974 946 c 0,30,31
 986 939 986 939 998.5 925.5 c 128,-1,32
 1011 912 1011 912 1014 901 c 2,33,-1
 1097 649 l 2,34,35
 1101 638 1101 638 1092 639 c 0,36,37
 1086 639 1086 639 1076 646 c 0,38,39
 1064 654 1064 654 1053.5 666.5 c 128,-1,40
 1043 679 1043 679 1040 688 c 2,41,-1
 966 912 l 1,42,43
 866 958 866 958 722 961 c 0,44,45
 522 965 522 965 378 823 c 1,46,47
 229 673 229 673 229 431 c 0,48,49
 229 299 229 299 268.5 207.5 c 128,-1,50
 308 116 308 116 375 64 c 0,51,52
 502 -33 502 -33 692 -33 c 0,53,54
 754 -33 754 -33 831 -16 c 0,55,56
 993 18 993 18 1052 71 c 1,57,-1
 1052 378 l 2,58,59
 1052 396 1052 396 1045 408 c 1,60,61
 1008 434 1008 434 914 445 c 1,62,-1
 726 441 l 2,63,64
 719 441 719 441 707 449.5 c 128,-1,65
 695 458 695 458 685 470 c 0,0,1
EndSplineSet
EndChar

StartChar: eH
Encoding: 72 72 44
Width: 838
GlyphClass: 2
Flags: W
LayerCount: 2
Fore
SplineSet
200 986 m 0,0,1
 212 976 212 976 220.5 964 c 128,-1,2
 229 952 229 952 229 945 c 2,3,-1
 231 550 l 1,4,-1
 772 551 l 1,5,6
 772 773 772 773 772 994 c 0,7,8
 772 1007 772 1007 794 992 c 0,9,10
 798 990 798 990 802 986 c 0,11,12
 814 976 814 976 822.5 964 c 128,-1,13
 831 952 831 952 831 945 c 2,14,-1
 831 505 l 1,15,16
 835 496 835 496 831 493 c 1,17,18
 831 214 831 214 831 -66 c 0,19,20
 831 -79 831 -79 809 -64 c 0,21,22
 805 -62 805 -62 801 -58 c 0,23,24
 789 -48 789 -48 780.5 -36 c 128,-1,25
 772 -24 772 -24 772 -17 c 0,26,27
 772 237 772 237 772 492 c 1,28,29
 501 492 501 492 231 491 c 1,30,31
 230 213 230 213 229 -66 c 0,32,33
 229 -79 229 -79 207 -64 c 0,34,35
 204 -62 204 -62 200 -58 c 0,36,37
 187 -48 187 -48 178.5 -36 c 128,-1,38
 170 -24 170 -24 170 -17 c 0,39,40
 171 265 171 265 171 546 c 0,41,42
 171 770 171 770 170 994 c 0,43,44
 170 1007 170 1007 192 992 c 0,45,46
 196 990 196 990 200 986 c 0,0,1
EndSplineSet
EndChar

StartChar: eI
Encoding: 73 73 45
Width: 234
GlyphClass: 2
Flags: W
LayerCount: 2
Fore
SplineSet
200 -58 m 0,0,1
 188 -48 188 -48 179 -36 c 128,-1,2
 170 -24 170 -24 170 -17 c 2,3,-1
 170 994 l 2,4,5
 170 1007 170 1007 192 992 c 0,6,7
 196 990 196 990 200 986 c 0,8,9
 212 976 212 976 221 964 c 128,-1,10
 230 952 230 952 230 945 c 2,11,-1
 229 -66 l 2,12,13
 229 -79 229 -79 208 -64 c 0,14,15
 204 -62 204 -62 200 -58 c 0,0,1
EndSplineSet
EndChar

StartChar: eJ
Encoding: 74 74 46
Width: 625
GlyphClass: 2
Flags: W
LayerCount: 2
Fore
SplineSet
591 974 m 0,0,1
 603 964 603 964 611.5 951.5 c 128,-1,2
 620 939 620 939 620 932 c 2,3,-1
 620 208 l 2,4,5
 620 -15 620 -15 475 -77 c 0,6,7
 429 -97 429 -97 369 -97 c 0,8,9
 319 -97 319 -97 281 -80 c 0,10,11
 251 -66 251 -66 223 -39 c 0,12,13
 202 -18 202 -18 187 7 c 0,14,15
 170 37 170 37 170 66 c 0,16,17
 170 79 170 79 192 64 c 0,18,19
 196 62 196 62 200 59 c 0,20,21
 212 49 212 49 220.5 36.5 c 128,-1,22
 229 24 229 24 229 17 c 0,23,24
 229 -3 229 -3 237 -15 c 0,25,26
 237 -16 237 -16 238 -17 c 256,27,28
 239 -18 239 -18 240 -20 c 1,29,30
 248 -26 248 -26 270.5 -32 c 128,-1,31
 293 -38 293 -38 320 -38 c 0,32,33
 377 -38 377 -38 421 -19 c 0,34,35
 560 41 560 41 560 257 c 2,36,-1
 561 981 l 2,37,38
 561 994 561 994 583 980 c 0,39,40
 587 977 587 977 591 974 c 0,0,1
EndSplineSet
EndChar

StartChar: eK
Encoding: 75 75 47
Width: 823
GlyphClass: 2
Flags: W
LayerCount: 2
Fore
SplineSet
202 -60 m 0,0,1
 190 -50 190 -50 181 -37.5 c 128,-1,2
 172 -25 172 -25 172 -18 c 2,3,-1
 173 457 l 1,4,5
 168 467 168 467 171 471 c 2,6,-1
 173 473 l 1,7,-1
 174 990 l 2,8,9
 174 1003 174 1003 196 988 c 0,10,11
 200 986 200 986 204 982 c 0,12,13
 216 972 216 972 225 960 c 128,-1,14
 234 948 234 948 234 941 c 2,15,-1
 233 535 l 1,16,-1
 252 556 l 2,17,18
 253 556 253 556 254 557 c 2,19,-1
 529 843 l 2,20,21
 607 924 607 924 697 989 c 0,22,23
 701 992 701 992 712.5 985.5 c 128,-1,24
 724 979 724 979 735 967.5 c 128,-1,25
 746 956 746 956 751.5 945.5 c 128,-1,26
 757 935 757 935 753 931 c 0,27,28
 663 867 663 867 586 787 c 2,29,-1
 316 506 l 1,30,-1
 634 149 l 2,31,32
 697 78 697 78 804 -46 c 0,33,34
 826 -71 826 -71 816 -77 c 0,35,36
 815 -77 815 -77 814 -78 c 1,37,38
 808 -78 808 -78 796 -70 c 128,-1,39
 784 -62 784 -62 773 -50 c 0,40,41
 668 72 668 72 606 142 c 2,42,-1
 299 488 l 1,43,-1
 232 419 l 1,44,-1
 231 -67 l 2,45,46
 231 -80 231 -80 210 -66 c 0,47,48
 206 -63 206 -63 202 -60 c 0,0,1
EndSplineSet
EndChar

StartChar: eL
Encoding: 76 76 48
Width: 889
GlyphClass: 2
Flags: W
LayerCount: 2
Fore
SplineSet
873 -41 m 1,0,1
 891 -67 891 -67 881 -71 c 1,2,-1
 225 -71 l 2,3,4
 218 -71 218 -71 206 -62.5 c 128,-1,5
 194 -54 194 -54 184 -41 c 0,6,7
 171 -26 171 -26 171 -17 c 2,8,-1
 170 994 l 2,9,10
 170 1007 170 1007 192 992 c 0,11,12
 196 990 196 990 200 986 c 0,13,14
 212 976 212 976 220.5 964 c 128,-1,15
 229 952 229 952 229 945 c 2,16,-1
 230 -12 l 1,17,-1
 832 -12 l 2,18,19
 839 -12 839 -12 851 -20.5 c 128,-1,20
 863 -29 863 -29 873 -41 c 1,0,1
EndSplineSet
EndChar

StartChar: eM
Encoding: 77 77 49
Width: 1183
GlyphClass: 2
Flags: W
LayerCount: 2
Fore
SplineSet
200 -59 m 0,0,1
 188 -49 188 -49 179 -37 c 128,-1,2
 170 -25 170 -25 170 -18 c 2,3,-1
 170 993 l 2,4,5
 170 998 170 998 175 998 c 2,6,-1
 194 998 l 2,7,8
 201 998 201 998 213.5 989.5 c 128,-1,9
 226 981 226 981 236 969 c 0,10,11
 240 963 240 963 244 957 c 2,12,-1
 660 252 l 1,13,-1
 1078 996 l 2,14,15
 1079 998 1079 998 1083 998 c 2,16,-1
 1123 997 l 2,17,18
 1130 997 1130 997 1142 988.5 c 128,-1,19
 1154 980 1154 980 1164 968 c 0,20,21
 1177 952 1177 952 1177 944 c 2,22,-1
 1179 -72 l 2,23,24
 1179 -84 1179 -84 1157 -70 c 0,25,26
 1153 -67 1153 -67 1149 -64 c 0,27,28
 1137 -54 1137 -54 1128 -42 c 128,-1,29
 1119 -30 1119 -30 1119 -23 c 2,30,-1
 1118 909 l 1,31,-1
 702 170 l 2,32,33
 700 166 700 166 689.5 170.5 c 128,-1,34
 679 175 679 175 667 186.5 c 128,-1,35
 655 198 655 198 649 209 c 2,36,-1
 229 920 l 1,37,-1
 230 -67 l 2,38,39
 230 -79 230 -79 208 -65 c 0,40,41
 204 -62 204 -62 200 -59 c 0,0,1
EndSplineSet
EndChar

StartChar: eN
Encoding: 78 78 50
Width: 1011
GlyphClass: 2
Flags: W
LayerCount: 2
Fore
SplineSet
200 -57 m 0,0,1
 188 -47 188 -47 179 -35 c 128,-1,2
 170 -23 170 -23 170 -16 c 2,3,-1
 170 995 l 2,4,5
 170 1000 170 1000 175 1000 c 2,6,-1
 207 1000 l 2,7,8
 215 1000 215 1000 229 988.5 c 128,-1,9
 243 977 243 977 252 965 c 2,10,-1
 947 -9 l 1,11,-1
 947 1001 l 2,12,13
 947 1014 947 1014 969 999 c 0,14,15
 973 997 973 997 977 993 c 0,16,17
 989 984 989 984 997.5 971.5 c 128,-1,18
 1006 959 1006 959 1006 952 c 2,19,-1
 1007 -63 l 2,20,21
 1007 -68 1007 -68 1002 -68 c 2,22,-1
 977 -70 l 2,23,24
 976 -70 976 -70 973 -70 c 1,25,26
 965 -67 965 -67 952.5 -57 c 128,-1,27
 940 -47 940 -47 931 -35 c 2,28,-1
 235 941 l 1,29,-1
 229 941 l 1,30,-1
 230 -65 l 2,31,32
 230 -77 230 -77 208 -63 c 0,33,34
 204 -61 204 -61 200 -57 c 0,0,1
EndSplineSet
EndChar

StartChar: eO
Encoding: 79 79 51
Width: 1109
GlyphClass: 2
Flags: W
LayerCount: 2
Fore
SplineSet
656 -92 m 0,0,1
 455 -92 455 -92 308 81 c 0,2,3
 234 169 234 169 202 268.5 c 128,-1,4
 170 368 170 368 170 488 c 0,5,6
 170 735 170 735 307 886 c 0,7,8
 429 1020 429 1020 613 1020 c 0,9,10
 647 1020 647 1020 679 1015 c 0,11,12
 856 991 856 991 983 826 c 1,13,14
 1047 741 1047 741 1076 645 c 128,-1,15
 1105 549 1105 549 1105 434 c 0,16,17
 1105 184 1105 184 962 36 c 0,18,19
 839 -92 839 -92 656 -92 c 0,0,1
603 -33 m 0,20,21
 785 -33 785 -33 905 93 c 1,22,23
 1045 237 1045 237 1045 482 c 0,24,25
 1045 698 1045 698 945 832 c 1,26,27
 861 940 861 940 717 957 c 0,28,29
 690 961 690 961 662 961 c 0,30,31
 483 961 483 961 364 829 c 1,32,33
 229 682 229 682 229 440 c 0,34,35
 229 328 229 328 258.5 237 c 128,-1,36
 288 146 288 146 340 83 c 1,37,38
 439 -33 439 -33 603 -33 c 0,20,21
EndSplineSet
EndChar

StartChar: eP
Encoding: 80 80 52
Width: 794
GlyphClass: 2
Flags: W
LayerCount: 2
Fore
SplineSet
229 430 m 1,0,1
 276 428 276 428 342 428 c 0,2,3
 481 428 481 428 573 471 c 1,4,5
 731 541 731 541 731 718 c 0,6,7
 731 767 731 767 716 804 c 128,-1,8
 701 841 701 841 683 860 c 1,9,10
 648 893 648 893 575 916.5 c 128,-1,11
 502 940 502 940 404 940 c 2,12,-1
 230 940 l 1,13,-1
 229 430 l 1,0,1
229 373 m 1,14,-1
 229 -66 l 2,15,16
 229 -79 229 -79 208 -64 c 0,17,18
 204 -62 204 -62 200 -58 c 0,19,20
 188 -48 188 -48 179 -36 c 128,-1,21
 170 -24 170 -24 170 -17 c 2,22,-1
 170 994 l 2,23,24
 170 999 170 999 176 999 c 2,25,-1
 355 999 l 2,26,27
 465 999 465 999 547 973 c 128,-1,28
 629 947 629 947 698 880 c 0,29,30
 750 829 750 829 770 778 c 128,-1,31
 790 727 790 727 790 669 c 0,32,33
 790 485 790 485 627 412 c 0,34,35
 533 369 533 369 391 369 c 0,36,37
 287 369 287 369 229 373 c 1,14,-1
EndSplineSet
EndChar

StartChar: eQ
Encoding: 81 81 53
Width: 1166
GlyphClass: 2
Flags: W
LayerCount: 2
Fore
SplineSet
738 -79 m 1,0,1
 589 -77 589 -77 486 -37 c 0,2,3
 426 -13 426 -13 371.5 29.5 c 128,-1,4
 317 72 317 72 280 130 c 0,5,6
 175 299 175 299 170 488 c 1,7,8
 166 734 166 734 315 889 c 1,9,10
 441 1023 441 1023 632 1023 c 0,11,12
 858 1023 858 1023 1012 833 c 0,13,14
 1081 747 1081 747 1112 651.5 c 128,-1,15
 1143 556 1143 556 1143 443 c 0,16,17
 1143 117 1143 117 918 -19 c 0,18,19
 850 -61 850 -61 778 -77 c 1,20,21
 804 -144 804 -144 838 -186 c 0,22,23
 907 -272 907 -272 1050 -280 c 0,24,25
 1074 -281 1074 -281 1098 -279 c 0,26,27
 1098 -278 1098 -278 1098 -278 c 1,28,-1
 1106 -278 l 2,29,30
 1113 -278 1113 -278 1125.5 -287 c 128,-1,31
 1138 -296 1138 -296 1148 -308 c 0,32,33
 1168 -333 1168 -333 1158 -337 c 0,34,35
 1157 -338 1157 -338 1155 -338 c 2,36,-1
 1147 -338 l 1,37,38
 1122 -340 1122 -340 1098 -339 c 0,39,40
 919 -330 919 -330 802 -184 c 0,41,42
 765 -137 765 -137 738 -79 c 1,0,1
755 -10 m 1,43,44
 810 6 810 6 863 38 c 0,45,46
 1083 173 1083 173 1083 492 c 0,47,48
 1083 597 1083 597 1054.5 685 c 128,-1,49
 1026 773 1026 773 977 835 c 1,50,51
 872 964 872 964 681 964 c 0,52,53
 495 964 495 964 371 833 c 0,54,55
 225 680 225 680 229 440 c 1,56,57
 234 262 234 262 328 111 c 0,58,59
 346 82 346 82 374 60 c 128,-1,60
 402 38 402 38 450 19 c 0,61,62
 555 -21 555 -21 714 -19 c 1,63,64
 714 -19 714 -19 714 -19 c 1,65,66
 709 -1 709 -1 703 16 c 0,67,68
 649 161 649 161 556 225 c 1,69,70
 550 224 550 224 536 233 c 0,71,72
 535 234 535 234 533 236 c 0,73,74
 517 245 517 245 460 253 c 128,-1,75
 403 261 403 261 326 261 c 0,76,77
 319 261 319 261 306.5 270 c 128,-1,78
 294 279 294 279 284 291 c 1,79,80
 266 316 266 316 277 320 c 1,81,82
 384 320 384 320 436 313 c 0,83,84
 481 306 481 306 517 281 c 1,85,86
 517 281 517 281 517 281 c 1,87,88
 523 281 523 281 533 275 c 0,89,90
 682 178 682 178 755 -10 c 1,43,44
EndSplineSet
EndChar

StartChar: eR
Encoding: 82 82 54
Width: 834
GlyphClass: 2
Flags: W
LayerCount: 2
Fore
SplineSet
817 -41 m 0,0,1
 837 -65 837 -65 825 -68 c 0,2,3
 824 -68 824 -68 822 -68 c 0,4,5
 808 -66 808 -66 795 -63 c 0,6,7
 722 -46 722 -46 655 35 c 2,8,-1
 375 369 l 1,9,10
 283 369 283 369 229 373 c 1,11,-1
 229 -66 l 2,12,13
 229 -79 229 -79 208 -64 c 0,14,15
 204 -62 204 -62 200 -58 c 0,16,17
 188 -48 188 -48 179 -36 c 128,-1,18
 170 -24 170 -24 170 -17 c 2,19,-1
 170 994 l 2,20,21
 170 999 170 999 176 999 c 2,22,-1
 355 999 l 2,23,24
 465 999 465 999 547 973 c 128,-1,25
 629 947 629 947 698 880 c 0,26,27
 750 829 750 829 770 778 c 128,-1,28
 790 727 790 727 790 669 c 0,29,30
 790 485 790 485 627 413 c 1,31,32
 539 371 539 371 408 369 c 1,33,-1
 689 36 l 2,34,35
 689 35 689 35 690 34 c 0,36,37
 704 17 704 17 717 8 c 128,-1,38
 730 -1 730 -1 751 -5 c 1,39,40
 751 -5 751 -5 752 -5 c 0,41,42
 764 -8 764 -8 776 -9 c 0,43,44
 783 -10 783 -10 795.5 -19.5 c 128,-1,45
 808 -29 808 -29 817 -41 c 0,0,1
343 428 m 2,46,47
 482 428 482 428 573 471 c 1,48,49
 731 541 731 541 731 718 c 0,50,51
 731 767 731 767 716 804 c 128,-1,52
 701 841 701 841 683 860 c 1,53,54
 648 893 648 893 575 916.5 c 128,-1,55
 502 940 502 940 404 940 c 2,56,-1
 230 940 l 1,57,-1
 229 430 l 1,58,59
 276 428 276 428 342 428 c 0,60,61
 343 428 343 428 343 428 c 2,46,47
EndSplineSet
EndChar

StartChar: eS
Encoding: 83 83 55
Width: 844
GlyphClass: 2
Flags: W
LayerCount: 2
Fore
SplineSet
196 72 m 1,0,1
 201 73 201 73 213 65.5 c 128,-1,2
 225 58 225 58 236 46 c 0,3,4
 268 10 268 10 314 -3 c 0,5,6
 316 -4 316 -4 318 -5 c 0,7,8
 368 -26 368 -26 489 -26 c 1,9,10
 597 -25 597 -25 674 36 c 1,11,12
 781 115 781 115 781 246 c 0,13,14
 781 296 781 296 773 314 c 1,15,16
 766 325 766 325 758 335 c 0,17,18
 729 372 729 372 661.5 403 c 128,-1,19
 594 434 594 434 491 445 c 1,20,21
 491 445 491 445 490 445 c 0,22,23
 371 470 371 470 294 529 c 1,24,25
 186 614 186 614 172 734 c 0,26,27
 170 748 170 748 170 761 c 0,28,29
 172 907 172 907 278 983 c 1,30,31
 345 1027 345 1027 427 1027 c 0,32,33
 493 1027 493 1027 597 988 c 1,34,35
 600 988 600 988 602 986 c 0,36,37
 692 939 692 939 776 851 c 0,38,39
 787 839 787 839 792 828.5 c 128,-1,40
 797 818 797 818 792.5 815.5 c 128,-1,41
 788 813 788 813 776.5 819.5 c 128,-1,42
 765 826 765 826 754 838 c 0,43,44
 697 897 697 897 632 933 c 1,45,46
 536 968 536 968 475 968 c 0,47,48
 398 968 398 968 334 925 c 1,49,50
 231 852 231 852 229 712 c 0,51,52
 229 701 229 701 231 688 c 0,53,54
 240 605 240 605 290 567 c 0,55,56
 343 526 343 526 446 504 c 1,57,58
 559 491 559 491 646 451 c 128,-1,59
 733 411 733 411 797 329 c 0,60,61
 811 311 811 311 822 292 c 0,62,63
 831 277 831 277 835 261.5 c 128,-1,64
 839 246 839 246 839.5 234.5 c 128,-1,65
 840 223 840 223 840 198 c 0,66,67
 840 60 840 60 730 -21 c 1,68,69
 650 -84 650 -84 538 -85 c 0,70,71
 413 -86 413 -86 353 -61 c 1,72,73
 277 -38 277 -38 209 38 c 0,74,75
 202 46 202 46 197.5 53.5 c 128,-1,76
 193 61 193 61 192.5 65.5 c 128,-1,77
 192 70 192 70 196 72 c 1,0,1
EndSplineSet
EndChar

StartChar: eT
Encoding: 84 84 56
Width: 1050
GlyphClass: 2
Flags: W
LayerCount: 2
Fore
SplineSet
586 -54 m 0,0,1
 574 -44 574 -44 565 -32 c 128,-1,2
 556 -20 556 -20 556 -13 c 2,3,-1
 556 940 l 1,4,-1
 225 940 l 2,5,6
 218 940 218 940 205.5 949 c 128,-1,7
 193 958 193 958 184 970 c 0,8,9
 163 995 163 995 174 999 c 0,10,11
 175 1000 175 1000 176 1000 c 2,12,-1
 990 1000 l 2,13,14
 997 1000 997 1000 1009.5 991 c 128,-1,15
 1022 982 1022 982 1032 970 c 0,16,17
 1052 945 1052 945 1042 941 c 0,18,19
 1041 940 1041 940 1039 940 c 2,20,-1
 615 940 l 1,21,22
 616 939 616 939 616 938 c 2,23,-1
 616 -61 l 2,24,25
 616 -74 616 -74 594 -60 c 0,26,27
 590 -57 590 -57 586 -54 c 0,0,1
EndSplineSet
EndChar

StartChar: eU
Encoding: 85 85 57
Width: 908
GlyphClass: 2
Flags: W
LayerCount: 2
Fore
SplineSet
200 989 m 0,0,1
 212 979 212 979 220.5 967 c 128,-1,2
 229 955 229 955 229 948 c 2,3,-1
 229 302 l 2,4,5
 229 239 229 239 239 188 c 1,6,7
 255 94 255 94 297 44 c 0,8,9
 323 12 323 12 386 -11.5 c 128,-1,10
 449 -35 449 -35 541 -33 c 0,11,12
 758 -28 758 -28 830 223 c 1,13,14
 844 291 844 291 844 357 c 2,15,-1
 844 986 l 2,16,17
 844 998 844 998 866 984 c 0,18,19
 870 981 870 981 874 978 c 0,20,21
 886 968 886 968 895 956 c 128,-1,22
 904 944 904 944 904 937 c 2,23,-1
 904 308 l 2,24,25
 904 240 904 240 889 171 c 1,26,27
 815 -87 815 -87 591 -92 c 0,28,29
 488 -94 488 -94 408 -64.5 c 128,-1,30
 328 -35 328 -35 264 43 c 0,31,32
 199 121 199 121 180 233 c 0,33,34
 170 286 170 286 170 351 c 2,35,-1
 170 997 l 2,36,37
 170 1009 170 1009 192 995 c 0,38,39
 196 993 196 993 200 989 c 0,0,1
EndSplineSet
EndChar

StartChar: eV
Encoding: 86 86 58
Width: 1172
GlyphClass: 2
Flags: W
LayerCount: 2
Fore
SplineSet
205 981 m 0,0,1
 263 928 263 928 310 851 c 0,2,3
 358 772 358 772 407 660 c 1,4,-1
 666 12 l 1,5,-1
 990 787 l 1,6,7
 1044 900 1044 900 1109 996 c 1,8,9
 1109 996 1109 996 1110 997 c 0,10,11
 1110 998 1110 998 1112 998 c 0,12,13
 1116 1000 1116 1000 1124 995 c 1,14,15
 1135 990 1135 990 1146 979 c 0,16,17
 1149 976 1149 976 1152 973 c 0,18,19
 1160 964 1160 964 1164 955 c 1,20,21
 1170 945 1170 945 1167 941 c 0,22,23
 1102 845 1102 845 1048 733 c 1,24,-1
 705 -88 l 1,25,26
 704 -93 704 -93 699 -92 c 0,27,28
 698 -92 698 -92 698 -92 c 257,29,30
 698 -92 698 -92 698 -92 c 1,31,32
 693 -91 693 -91 685 -87 c 1,33,34
 678 -82 678 -82 671 -76 c 0,35,36
 670 -75 670 -75 670 -75 c 2,37,38
 662 -68 662 -68 656 -60 c 128,-1,39
 650 -52 650 -52 647 -45 c 2,40,-1
 351 694 l 1,41,42
 308 793 308 793 267 861 c 1,43,44
 226 927 226 927 197 955 c 0,45,46
 195 956 195 956 193 958 c 0,47,48
 189 961 189 961 186 965 c 0,49,50
 178 974 178 974 173 982 c 1,51,52
 168 993 168 993 171.5 997 c 128,-1,53
 175 1001 175 1001 186 995 c 0,54,55
 195 990 195 990 205 981 c 0,0,1
EndSplineSet
EndChar

StartChar: eW
Encoding: 87 87 59
Width: 1452
GlyphClass: 2
Flags: W
LayerCount: 2
Fore
SplineSet
723 949 m 0,0,1
 724 947 724 947 725 946 c 1,2,3
 725 946 725 946 725 945 c 0,4,5
 817 767 817 767 856 636 c 0,6,7
 857 635 857 635 857 634 c 2,8,-1
 1057 18 l 1,9,-1
 1299 769 l 1,10,-1
 1388 986 l 2,11,12
 1388 987 1388 987 1389 988 c 0,13,14
 1393 992 1393 992 1404 986 c 0,15,16
 1414 981 1414 981 1425 970 c 0,17,18
 1428 967 1428 967 1431 963 c 0,19,20
 1439 954 1439 954 1444 946 c 0,21,22
 1449 936 1449 936 1447 932 c 2,23,-1
 1357 715 l 1,24,-1
 1095 -102 l 2,25,26
 1093 -105 1093 -105 1088.5 -105 c 128,-1,27
 1084 -105 1084 -105 1076.5 -100.5 c 128,-1,28
 1069 -96 1069 -96 1061 -89 c 0,29,30
 1041 -71 1041 -71 1036 -56 c 2,31,-1
 835 563 l 1,32,-1
 612 -102 l 2,33,34
 610 -105 610 -105 605.5 -105 c 128,-1,35
 601 -105 601 -105 593.5 -100.5 c 128,-1,36
 586 -96 586 -96 578 -89 c 0,37,38
 559 -71 559 -71 554 -56 c 2,39,-1
 317 674 l 1,40,41
 275 786 275 786 174 973 c 0,42,43
 173 975 173 975 172 977 c 0,44,45
 168 985 168 985 171 988 c 0,46,47
 175 991 175 991 185 987 c 0,48,49
 185 986 185 986 185.5 986 c 128,-1,50
 186 986 186 986 186 986 c 1,51,52
 188 985 188 985 190 984 c 0,53,54
 199 978 199 978 209 968 c 256,55,56
 219 958 219 958 225 947 c 1,57,58
 225 947 225 947 226 946 c 0,59,60
 330 753 330 753 374 637 c 0,61,62
 374 636 374 636 374 636 c 1,63,-1
 575 16 l 1,64,-1
 797 679 l 1,65,66
 759 805 759 805 672 974 c 0,67,68
 672 975 672 975 672 975 c 1,69,70
 667 985 667 985 670.5 988 c 128,-1,71
 674 991 674 991 683 987 c 0,72,73
 684 986 684 986 685 986 c 2,74,75
 685 986 685 986 686 986 c 1,76,77
 686 985 686 985 687 985 c 0,78,79
 697 979 697 979 708 968 c 0,80,81
 718 958 718 958 723 949 c 0,0,1
EndSplineSet
EndChar

StartChar: eX
Encoding: 88 88 60
Width: 1178
GlyphClass: 2
Flags: W
LayerCount: 2
Fore
SplineSet
1173 -37 m 1,0,-1
 1173 -70 l 2,1,2
 1173 -83 1173 -83 1151 -69 c 0,3,4
 1148 -66 1148 -66 1143 -63 c 1,5,-1
 1173 -37 l 1,0,-1
1173 -37 m 1,6,-1
 1173 -70 l 2,7,8
 1173 -82 1173 -82 1154 -70 c 0,9,10
 1150 -68 1150 -68 1147 -65 c 0,11,12
 1068 -6 1068 -6 956 119 c 0,13,14
 955 120 955 120 954 121 c 2,15,-1
 664 458 l 1,16,-1
 384 79 l 1,17,18
 355 45 355 45 331 13 c 0,19,20
 275 -61 275 -61 225 -72 c 0,21,22
 219 -73 219 -73 207 -65 c 128,-1,23
 195 -57 195 -57 184 -45 c 1,24,25
 164 -19 164 -19 173 -13 c 1,26,27
 219 -3 219 -3 274 69 c 0,28,29
 298 101 298 101 327 134 c 1,30,-1
 612 520 l 1,31,-1
 383 798 l 2,32,33
 297 902 297 902 250 935 c 1,34,-1
 240 935 l 2,35,36
 233 935 233 935 220.5 943.5 c 128,-1,37
 208 952 208 952 198 964 c 0,38,39
 186 980 186 980 186 989 c 2,40,-1
 186 991 l 2,41,42
 186 1000 186 1000 199 994 c 1,43,-1
 210 994 l 2,44,45
 220 994 220 994 240 976 c 1,46,47
 312 925 312 925 417 798 c 2,48,-1
 628 541 l 1,49,-1
 878 858 l 1,50,51
 968 967 968 967 1015 989 c 1,52,53
 1019 1003 1019 1003 1045 982 c 0,54,55
 1057 972 1057 972 1066 959.5 c 128,-1,56
 1075 947 1075 947 1075 940 c 2,57,-1
 1075 937 l 2,58,59
 1075 933 1075 933 1072 932 c 0,60,61
 1027 913 1027 913 935 802 c 1,62,-1
 680 479 l 1,63,-1
 984 126 l 1,64,65
 1060 41 1060 41 1114 -5 c 1,66,-1
 1114 11 l 2,67,68
 1114 12 1114 12 1128.5 0 c 128,-1,69
 1143 -12 1143 -12 1158 -25 c 2,70,-1
 1173 -37 l 1,6,-1
EndSplineSet
EndChar

StartChar: eY
Encoding: 89 89 61
Width: 1145
GlyphClass: 2
Flags: W
LayerCount: 2
Fore
SplineSet
1136 940 m 1,0,1
 1091 888 1091 888 1078 871 c 0,2,3
 1044 822 1044 822 702 387 c 0,4,5
 701 386 701 386 701 386 c 1,6,-1
 704 -65 l 2,7,8
 704 -78 704 -78 683 -64 c 0,9,10
 679 -61 679 -61 675 -58 c 0,11,12
 663 -48 663 -48 654 -36 c 128,-1,13
 645 -24 645 -24 645 -17 c 0,14,15
 644 206 644 206 642 428 c 1,16,-1
 237 914 l 1,17,-1
 190 962 l 2,18,19
 178 974 178 974 173 984.5 c 128,-1,20
 168 995 168 995 172 998.5 c 128,-1,21
 176 1002 176 1002 187 995.5 c 128,-1,22
 198 989 198 989 210 977 c 2,23,-1
 261 925 l 2,24,25
 264 922 264 922 267 918 c 2,26,-1
 654 455 l 1,27,28
 987 878 987 878 1021 926 c 0,29,30
 1034 945 1034 945 1082 1000 c 0,31,32
 1089 1007 1089 1007 1111 989 c 0,33,34
 1123 979 1123 979 1132 967 c 128,-1,35
 1141 955 1141 955 1141 948 c 2,36,-1
 1141 945 l 2,37,38
 1141 941 1141 941 1136 940 c 1,0,1
EndSplineSet
EndChar

StartChar: eZ
Encoding: 90 90 62
Width: 1060
GlyphClass: 2
Flags: W
LayerCount: 2
Fore
SplineSet
244 969 m 1,0,1
 226 995 226 995 236 999 c 1,2,-1
 1002 999 l 2,3,4
 1009 999 1009 999 1021 990.5 c 128,-1,5
 1033 982 1033 982 1043 969 c 0,6,7
 1056 954 1056 954 1056 945 c 2,8,-1
 1056 923 l 2,9,10
 1056 920 1056 920 1055 919 c 2,11,-1
 258 -12 l 1,12,-1
 996 -12 l 2,13,14
 1003 -12 1003 -12 1015 -20.5 c 128,-1,15
 1027 -29 1027 -29 1037 -41 c 1,16,17
 1055 -67 1055 -67 1045 -71 c 1,18,-1
 224 -71 l 2,19,20
 215 -71 215 -71 200 -58 c 0,21,22
 188 -48 188 -48 179 -36 c 128,-1,23
 170 -24 170 -24 170 -17 c 2,24,-1
 170 5 l 2,25,26
 170 8 170 8 171 9 c 2,27,-1
 967 940 l 1,28,-1
 285 940 l 2,29,30
 278 940 278 940 266 948.5 c 128,-1,31
 254 957 254 957 244 969 c 1,0,1
EndSplineSet
EndChar

StartChar: asbl
Encoding: 91 91 63
Width: 539
GlyphClass: 2
Flags: W
LayerCount: 2
Fore
SplineSet
523 -133 m 1,0,1
 541 -158 541 -158 531 -162 c 1,2,-1
 224 -162 l 2,3,4
 217 -162 217 -162 205 -153.5 c 128,-1,5
 193 -145 193 -145 183 -133 c 0,6,7
 170 -117 170 -117 170 -108 c 2,8,-1
 170 1141 l 2,9,10
 170 1146 170 1146 175 1146 c 2,11,-1
 482 1146 l 2,12,13
 489 1146 489 1146 501 1137.5 c 128,-1,14
 513 1129 513 1129 523 1117 c 1,15,16
 541 1091 541 1091 531 1087 c 1,17,-1
 229 1087 l 1,18,-1
 229 -103 l 1,19,-1
 482 -103 l 2,20,21
 489 -103 489 -103 501 -112 c 128,-1,22
 513 -121 513 -121 523 -133 c 1,0,1
EndSplineSet
EndChar

StartChar: abs
Encoding: 92 92 64
Width: 565
GlyphClass: 2
Flags: W
LayerCount: 2
Fore
SplineSet
538 -84 m 1,0,1
 526 -76 526 -76 515.5 -64 c 128,-1,2
 505 -52 505 -52 502 -43 c 2,3,-1
 171 1010 l 2,4,5
 168 1020 168 1020 176 1020 c 0,6,7
 182 1020 182 1020 193 1012 c 0,8,9
 205 1004 205 1004 215.5 992 c 128,-1,10
 226 980 226 980 228 971 c 2,11,-1
 559 -82 l 2,12,13
 562 -92 562 -92 555 -92 c 256,14,15
 548 -92 548 -92 538 -84 c 1,0,1
EndSplineSet
EndChar

StartChar: asbr
Encoding: 93 93 65
Width: 539
GlyphClass: 2
Flags: W
LayerCount: 2
Fore
SplineSet
181 929 m 1,0,1
 163 954 163 954 174 958 c 1,2,-1
 481 958 l 2,3,4
 488 958 488 958 500 949.5 c 128,-1,5
 512 941 512 941 522 929 c 0,6,7
 535 913 535 913 535 904 c 2,8,-1
 535 -345 l 2,9,10
 535 -350 535 -350 529 -350 c 2,11,-1
 223 -350 l 2,12,13
 216 -350 216 -350 203.5 -341.5 c 128,-1,14
 191 -333 191 -333 181 -321 c 1,15,16
 163 -295 163 -295 174 -291 c 1,17,-1
 475 -291 l 1,18,-1
 475 899 l 1,19,-1
 223 899 l 2,20,21
 216 899 216 899 203.5 908 c 128,-1,22
 191 917 191 917 181 929 c 1,0,1
EndSplineSet
EndChar

StartChar: acir
Encoding: 94 94 66
Width: 847
GlyphClass: 2
Flags: W
LayerCount: 2
Fore
SplineSet
170 516 m 1,0,-1
 476 1074 l 2,1,2
 478 1079 478 1079 490 1073 c 0,3,4
 500 1068 500 1068 512 1056.5 c 128,-1,5
 524 1045 524 1045 530 1034 c 2,6,-1
 838 476 l 2,7,8
 844 465 844 465 841 461 c 128,-1,9
 838 457 838 457 827.5 462.5 c 128,-1,10
 817 468 817 468 805 479.5 c 128,-1,11
 793 491 793 491 787 502 c 2,12,-1
 517 989 l 1,13,-1
 228 462 l 1,14,-1
 170 516 l 1,0,-1
EndSplineSet
EndChar

StartChar: aus
Encoding: 95 95 67
Width: 962
GlyphClass: 2
Flags: W
LayerCount: 2
Fore
SplineSet
184 -414 m 0,0,1
 163 -389 163 -389 174 -385 c 0,2,3
 175 -384 175 -384 176 -384 c 2,4,-1
 903 -384 l 2,5,6
 910 -384 910 -384 922 -393 c 128,-1,7
 934 -402 934 -402 944 -414 c 0,8,9
 965 -439 965 -439 954 -443 c 0,10,11
 953 -444 953 -444 952 -444 c 2,12,-1
 225 -444 l 2,13,14
 218 -444 218 -444 205.5 -435 c 128,-1,15
 193 -426 193 -426 184 -414 c 0,0,1
EndSplineSet
EndChar

StartChar: agrv
Encoding: 96 96 68
Width: 559
GlyphClass: 2
Flags: W
LayerCount: 2
Fore
SplineSet
197 1069 m 0,0,1
 185 1079 185 1079 177 1091 c 128,-1,2
 169 1103 169 1103 170 1109 c 0,3,4
 179 1154 179 1154 224 1159 c 0,5,6
 225 1159 225 1159 225 1159 c 2,7,8
 267 1159 267 1159 322 1102 c 2,9,-1
 536 875 l 2,10,11
 547 863 547 863 552 852.5 c 128,-1,12
 557 842 557 842 552.5 839.5 c 128,-1,13
 548 837 548 837 536.5 843.5 c 128,-1,14
 525 850 525 850 514 862 c 2,15,-1
 299 1089 l 2,16,17
 289 1099 289 1099 274 1100 c 1,18,19
 237 1095 237 1095 229 1057 c 0,20,21
 227 1046 227 1046 203 1064 c 0,22,23
 200 1066 200 1066 197 1069 c 0,0,1
EndSplineSet
EndChar

StartChar: ea
Encoding: 97 97 69
Width: 829
GlyphClass: 2
Flags: W
LayerCount: 2
Fore
SplineSet
803.5 38.5 m 128,-1,1
 815 27 815 27 821 16 c 128,-1,2
 827 5 827 5 824 1 c 0,3,4
 796 -34 796 -34 775.5 -49 c 128,-1,5
 755 -64 755 -64 734 -61 c 0,6,7
 695 -56 695 -56 661 -12 c 1,8,9
 566 -89 566 -89 375 -61 c 1,10,11
 330 -61 330 -61 293 -42 c 0,12,13
 263 -27 263 -27 235 2 c 128,-1,14
 207 31 207 31 192 61 c 0,15,16
 191 62 191 62 191 63 c 0,17,18
 170 107 170 107 170 155 c 0,19,20
 170 277 170 277 332 368 c 1,21,22
 449 423 449 423 586 431 c 0,23,24
 587 431 587 431 588 431 c 2,25,-1
 604 429 l 2,26,27
 611 429 611 429 624 420 c 1,28,29
 628 416 628 416 632 413 c 1,30,-1
 632 499 l 2,31,32
 632 574 632 574 619 621 c 1,33,34
 607 657 607 657 592 667 c 0,35,36
 559 689 559 689 495 689 c 0,37,38
 413 689 413 689 349 654 c 1,39,40
 256 606 256 606 256 523 c 0,41,42
 256 513 256 513 259 507 c 0,43,44
 264 497 264 497 259.5 494 c 128,-1,45
 255 491 255 491 244 497 c 128,-1,46
 233 503 233 503 221.5 515 c 128,-1,47
 210 527 210 527 205 538 c 0,48,49
 197 555 197 555 197 572 c 0,50,51
 197 662 197 662 294 712 c 1,52,53
 361 749 361 749 446 749 c 0,54,55
 522 749 522 749 577 712 c 0,56,57
 650 663 650 663 676 581 c 0,58,59
 692 529 692 529 691 450 c 1,60,-1
 691 66 l 2,61,62
 691 53 691 53 669 68 c 0,63,64
 665 70 665 70 661 74 c 0,65,66
 649 84 649 84 640.5 96 c 128,-1,67
 632 108 632 108 632 115 c 2,68,-1
 632 371 l 1,69,70
 499 363 499 363 386 310 c 1,71,72
 229 221 229 221 229 107 c 0,73,74
 229 66 229 66 245 33 c 0,75,76
 252 20 252 20 254 17.5 c 128,-1,77
 256 15 256 15 265 11 c 0,78,79
 290 -2 290 -2 327 -2 c 0,80,81
 328 -2 328 -2 329 -2 c 0,82,83
 544 -34 544 -34 633 72 c 0,84,85
 639 79 639 79 661 61 c 0,86,87
 673 51 673 51 682 39 c 128,-1,88
 691 27 691 27 691 20 c 0,89,90
 691 14 691 14 696 -2 c 1,91,92
 723 3 723 3 767 57 c 0,93,94
 770 61 770 61 781 55.5 c 128,-1,0
 792 50 792 50 803.5 38.5 c 128,-1,1
EndSplineSet
EndChar

StartChar: eb
Encoding: 98 98 70
Width: 815
GlyphClass: 2
Flags: W
LayerCount: 2
Fore
SplineSet
232 662 m 1,0,1
 294 692 294 692 398 696 c 0,2,3
 475 699 475 699 541 676 c 128,-1,4
 607 653 607 653 670 592 c 0,5,6
 671 592 671 592 672 591 c 0,7,8
 746 517 746 517 778.5 435.5 c 128,-1,9
 811 354 811 354 811 259 c 0,10,11
 811 139 811 139 756 54 c 1,12,13
 668 -74 668 -74 505 -74 c 0,14,15
 377 -74 377 -74 298 -30 c 0,16,17
 261 -10 261 -10 229 23.5 c 128,-1,18
 197 57 197 57 181 92 c 0,19,20
 178 97 178 97 178 101 c 2,21,-1
 170 1024 l 2,22,23
 170 1037 170 1037 192 1023 c 0,24,25
 195 1020 195 1020 199 1017 c 0,26,27
 212 1007 212 1007 220.5 995 c 128,-1,28
 229 983 229 983 229 976 c 2,29,-1
 232 662 l 1,0,1
233 566 m 1,30,-1
 237 56 l 1,31,32
 245 42 245 42 252 35 c 128,-1,33
 259 28 259 28 279 18 c 0,34,35
 343 -15 343 -15 456 -15 c 0,36,37
 614 -15 614 -15 698 110 c 1,38,39
 751 192 751 192 751 308 c 0,40,41
 751 394 751 394 724.5 461.5 c 128,-1,42
 698 529 698 529 656 571 c 1,43,44
 623 602 623 602 569.5 621 c 128,-1,45
 516 640 516 640 447 637 c 0,46,47
 305 632 305 632 245 576 c 0,48,49
 240 571 240 571 233 566 c 1,30,-1
EndSplineSet
EndChar

StartChar: ec
Encoding: 99 99 71
Width: 796
GlyphClass: 2
Flags: W
LayerCount: 2
Fore
SplineSet
768 209 m 128,-1,1
 780 198 780 198 786.5 186.5 c 128,-1,2
 793 175 793 175 791 170 c 0,3,4
 709 4 709 4 607 -48 c 1,5,6
 556 -72 556 -72 499 -72 c 0,7,8
 447 -72 447 -72 402 -55 c 256,9,10
 357 -38 357 -38 311.5 0.5 c 128,-1,11
 266 39 266 39 233 90 c 0,12,13
 170 189 170 189 170 322 c 0,14,15
 170 518 170 518 297 628 c 1,16,17
 383 704 383 704 493 704 c 0,18,19
 558 704 558 704 611 684 c 128,-1,20
 664 664 664 664 715 611 c 0,21,22
 772 551 772 551 772 494 c 0,23,24
 772 481 772 481 750 495 c 0,25,26
 746 498 746 498 742 501 c 0,27,28
 730 511 730 511 721 523 c 128,-1,29
 712 535 712 535 712 542 c 0,30,31
 712 577 712 577 693 598 c 0,32,33
 677 615 677 615 637 630 c 128,-1,34
 597 645 597 645 542 645 c 0,35,36
 437 645 437 645 353 572 c 0,37,38
 229 464 229 464 229 273 c 0,39,40
 229 152 229 152 280 72 c 0,41,42
 298 44 298 44 316.5 28.5 c 128,-1,43
 335 13 335 13 365 1 c 1,44,45
 404 -13 404 -13 451 -13 c 0,46,47
 504 -13 504 -13 553 10 c 1,48,49
 653 60 653 60 733 225 c 0,50,51
 735 229 735 229 745.5 224.5 c 128,-1,0
 756 220 756 220 768 209 c 128,-1,1
EndSplineSet
EndChar

StartChar: ed
Encoding: 100 100 72
Width: 788
GlyphClass: 2
Flags: W
LayerCount: 2
Fore
SplineSet
720 598 m 1,0,1
 670 630 670 630 565 634 c 0,2,3
 430 640 430 640 340 550 c 1,4,5
 229 435 229 435 229 256 c 0,6,7
 229 144 229 144 275 69 c 0,8,9
 282 58 282 58 290 49 c 0,10,11
 345 -18 345 -18 462 -18 c 0,12,13
 661 -18 661 -18 716 100 c 1,14,-1
 720 598 l 1,0,1
721 632 m 1,15,-1
 724 1024 l 2,16,17
 724 1037 724 1037 746 1023 c 0,18,19
 750 1020 750 1020 754 1017 c 0,20,21
 766 1007 766 1007 774.5 994.5 c 128,-1,22
 783 982 783 982 783 975 c 2,23,-1
 776 49 l 2,24,25
 776 48 776 48 775 47 c 0,26,27
 719 -78 719 -78 510 -78 c 0,28,29
 360 -78 360 -78 256 49 c 0,30,31
 241 67 241 67 228 88 c 0,32,33
 227 88 227 88 227 89 c 0,34,35
 170 181 170 181 170 304 c 0,36,37
 170 489 170 489 283 607 c 1,38,39
 376 699 376 699 517 693 c 0,40,41
 584 691 584 691 631 678 c 128,-1,42
 678 665 678 665 721 632 c 1,15,-1
EndSplineSet
EndChar

StartChar: ee
Encoding: 101 101 73
Width: 813
GlyphClass: 2
Flags: W
LayerCount: 2
Fore
SplineSet
784 225 m 0,0,1
 796 214 796 214 803 202.5 c 128,-1,2
 810 191 810 191 808 186 c 0,3,4
 728 -33 728 -33 555 -66 c 0,5,6
 527 -72 527 -72 495 -72 c 0,7,8
 415 -72 415 -72 353 -37 c 0,9,10
 309 -12 309 -12 271.5 29.5 c 128,-1,11
 234 71 234 71 212 117 c 0,12,13
 170 205 170 205 170 323 c 0,14,15
 170 529 170 529 292 636 c 0,16,17
 370 704 370 704 479 704 c 0,18,19
 531 704 531 704 572.5 692 c 128,-1,20
 614 680 614 680 655 648 c 0,21,22
 715 601 715 601 741.5 543 c 128,-1,23
 768 485 768 485 776 413 c 0,24,25
 780 370 780 370 782 351 c 0,26,27
 782 345 782 345 776 345 c 2,28,-1
 328 345 l 2,29,30
 321 345 321 345 308.5 354 c 128,-1,31
 296 363 296 363 286 375 c 0,32,33
 266 400 266 400 277 404 c 0,34,35
 278 405 278 405 279 405 c 2,36,-1
 722 405 l 1,37,38
 720 424 720 424 717 459 c 0,39,40
 710 522 710 522 692.5 560 c 128,-1,41
 675 598 675 598 659 610 c 0,42,43
 642 624 642 624 607 634.5 c 128,-1,44
 572 645 572 645 528 645 c 0,45,46
 424 645 424 645 348 579 c 0,47,48
 229 475 229 475 229 274 c 0,49,50
 229 163 229 163 266 87 c 0,51,52
 282 55 282 55 295 40 c 128,-1,53
 308 25 308 25 328 14 c 0,54,55
 376 -13 376 -13 446 -13 c 0,56,57
 477 -13 477 -13 503 -7 c 1,58,59
 671 25 671 25 750 239 c 0,60,61
 751 242 751 242 756 241.5 c 128,-1,62
 761 241 761 241 768.5 236.5 c 128,-1,63
 776 232 776 232 784 225 c 0,0,1
EndSplineSet
EndChar

StartChar: ef
Encoding: 102 102 74
Width: 727
GlyphClass: 2
Flags: W
LayerCount: 2
Fore
SplineSet
554 651 m 1,0,1
 572 626 572 626 561 622 c 1,2,-1
 347 622 l 1,3,-1
 348 98 l 2,4,5
 348 -39 348 -39 306 -65 c 0,6,7
 302 -68 302 -68 290.5 -61.5 c 128,-1,8
 279 -55 279 -55 267.5 -43 c 128,-1,9
 256 -31 256 -31 251.5 -20.5 c 128,-1,10
 247 -10 247 -10 251 -7 c 0,11,12
 289 16 289 16 289 146 c 2,13,-1
 288 622 l 1,14,-1
 225 622 l 2,15,16
 218 622 218 622 205.5 630.5 c 128,-1,17
 193 639 193 639 184 651 c 0,18,19
 163 676 163 676 174 680 c 0,20,21
 175 681 175 681 176 681 c 2,22,-1
 289 681 l 1,23,24
 296 975 296 975 451 1024 c 0,25,26
 490 1036 490 1036 540 1036 c 0,27,28
 566 1036 566 1036 589 1030 c 0,29,30
 656 1013 656 1013 703 947 c 0,31,32
 705 944 705 944 707 941 c 0,33,34
 723 914 723 914 723 888 c 0,35,36
 723 875 723 875 701 889 c 0,37,38
 697 892 697 892 693 895 c 0,39,40
 681 905 681 905 672.5 917.5 c 128,-1,41
 664 930 664 930 664 937 c 0,42,43
 664 949 664 949 659 960 c 1,44,45
 651 965 651 965 631.5 970.5 c 128,-1,46
 612 976 612 976 588 976 c 0,47,48
 541 976 541 976 504 965 c 0,49,50
 368 922 368 922 350 681 c 1,51,-1
 513 681 l 2,52,53
 519 681 519 681 531.5 672 c 128,-1,54
 544 663 544 663 554 651 c 1,0,1
EndSplineSet
EndChar

StartChar: eg
Encoding: 103 103 75
Width: 834
GlyphClass: 2
Flags: W
LayerCount: 2
Fore
SplineSet
374 -61 m 1,0,1
 389 -80 389 -80 387 -87 c 0,2,3
 383 -97 383 -97 321 -144 c 0,4,5
 229 -213 229 -213 229 -287 c 0,6,7
 229 -316 229 -316 243 -329 c 0,8,9
 266 -350 266 -350 315 -365.5 c 128,-1,10
 364 -381 364 -381 427 -381 c 0,11,12
 440 -381 440 -381 454 -379 c 0,13,14
 636 -362 636 -362 686 -299 c 1,15,16
 686 -299 686 -299 686 -298 c 0,17,18
 771 -226 771 -226 771 -159 c 0,19,20
 771 -124 771 -124 761 -101 c 1,21,22
 710 -72 710 -72 603 -70 c 1,23,-1
 447 -69 l 2,24,25
 405 -68 405 -68 374 -61 c 1,0,1
322 -40 m 1,26,27
 304 -29 304 -29 286 -9.5 c 128,-1,28
 268 10 268 10 262 26 c 0,29,30
 257 38 257 38 257 50 c 0,31,32
 257 88 257 88 283 117 c 1,33,-1
 360 174 l 1,34,35
 309 210 309 210 277 254.5 c 128,-1,36
 245 299 245 299 236 342 c 0,37,38
 230 369 230 369 230 400 c 0,39,40
 230 535 230 535 324 601 c 1,41,42
 390 645 390 645 477 654 c 0,43,44
 526 659 526 659 601 630 c 1,45,-1
 665 604 l 1,46,-1
 704 603 l 1,47,-1
 751 622 l 2,48,49
 756 624 756 624 767.5 616.5 c 128,-1,50
 779 609 779 609 790 597 c 0,51,52
 797 590 797 590 801.5 582.5 c 128,-1,53
 806 575 806 575 807 570 c 128,-1,54
 808 565 808 565 804 563 c 2,55,-1
 756 544 l 2,56,57
 755 544 755 544 753 544 c 0,58,59
 739 544 739 544 724 545 c 1,60,61
 787 442 787 442 779 361 c 0,62,63
 764 219 764 219 677 160 c 0,64,65
 611 116 611 116 546 121 c 0,66,67
 501 124 501 124 490 125 c 0,68,69
 463 128 463 128 437 133 c 1,70,-1
 340 60 l 1,71,72
 316 35 316 35 316 2 c 1,73,74
 347 -8 347 -8 398 -10 c 1,75,-1
 555 -11 l 2,76,77
 634 -12 634 -12 685 -26 c 128,-1,78
 736 -40 736 -40 782 -84 c 0,79,80
 788 -90 788 -90 793 -97 c 0,81,82
 816 -126 816 -126 823 -151 c 128,-1,83
 830 -176 830 -176 830 -208 c 0,84,85
 830 -279 830 -279 743 -355 c 1,86,87
 690 -421 690 -421 505 -438 c 0,88,89
 490 -440 490 -440 475 -440 c 0,90,91
 403 -440 403 -440 345.5 -422 c 128,-1,92
 288 -404 288 -404 234 -355 c 0,93,94
 233 -355 233 -355 232 -354 c 0,95,96
 170 -296 170 -296 170 -238 c 0,97,98
 170 -159 170 -159 265 -87 c 0,99,100
 308 -55 308 -55 322 -40 c 1,26,27
681 556 m 1,101,-1
 636 574 l 2,102,103
 571 599 571 599 527 595 c 0,104,105
 444 587 444 587 379 543 c 0,106,107
 289 481 289 481 289 351 c 0,108,109
 289 322 289 322 294 299 c 0,110,111
 300 274 300 274 311 255 c 0,112,113
 321 237 321 237 339 223 c 0,114,115
 356 209 356 209 392 192 c 1,116,117
 418 187 418 187 443 184 c 0,118,119
 454 183 454 183 498 180 c 0,120,121
 558 175 558 175 622 218 c 0,122,123
 705 274 705 274 720 411 c 1,124,125
 726 478 726 478 681 556 c 1,101,-1
EndSplineSet
EndChar

StartChar: eh
Encoding: 104 104 76
Width: 751
GlyphClass: 2
Flags: W
LayerCount: 2
Fore
SplineSet
174 1021 m 0,0,1
 168 1032 168 1032 171 1036 c 128,-1,2
 174 1040 174 1040 185 1035 c 2,3,-1
 194 1031 l 1,4,5
 204 1025 204 1025 216 1013.5 c 128,-1,6
 228 1002 228 1002 234 991 c 0,7,8
 238 984 238 984 238 979 c 2,9,-1
 238 622 l 1,10,11
 324 689 324 689 418 696 c 0,12,13
 438 698 438 698 461 698 c 0,14,15
 516 698 516 698 558.5 685.5 c 128,-1,16
 601 673 601 673 643 639 c 0,17,18
 703 590 703 590 724.5 532 c 128,-1,19
 746 474 746 474 746 401 c 2,20,-1
 746 -58 l 2,21,22
 746 -71 746 -71 725 -57 c 0,23,24
 721 -54 721 -54 717 -51 c 0,25,26
 705 -41 705 -41 696 -29 c 128,-1,27
 687 -17 687 -17 687 -10 c 2,28,-1
 687 449 l 2,29,30
 687 494 687 494 678 530.5 c 128,-1,31
 669 567 669 567 660 583 c 128,-1,32
 651 599 651 599 644 604 c 0,33,34
 629 617 629 617 592.5 628 c 128,-1,35
 556 639 556 639 509 639 c 0,36,37
 487 639 487 639 468 637 c 0,38,39
 348 628 348 628 238 513 c 1,40,-1
 238 -58 l 2,41,42
 238 -71 238 -71 217 -57 c 0,43,44
 213 -54 213 -54 209 -51 c 0,45,46
 197 -41 197 -41 188 -29 c 128,-1,47
 179 -17 179 -17 179 -10 c 2,48,-1
 179 564 l 1,49,-1
 179 1013 l 1,50,51
 176 1017 176 1017 174 1021 c 0,0,1
EndSplineSet
EndChar

StartChar: ei
Encoding: 105 105 77
Width: 381
GlyphClass: 2
Flags: W
LayerCount: 2
Fore
SplineSet
248 1036 m 0,0,1
 274 1036 274 1036 298 1022 c 0,2,3
 321 1009 321 1009 340 986.5 c 128,-1,4
 359 964 359 964 368 945 c 0,5,6
 377 924 377 924 377 904 c 0,7,8
 377 848 377 848 329 828 c 0,9,10
 314 821 314 821 296 821 c 0,11,12
 271 821 271 821 247 836 c 0,13,14
 223 850 223 850 204.5 873 c 128,-1,15
 186 896 186 896 178 916 c 0,16,17
 170 934 170 934 170 953 c 0,18,19
 170 1004 170 1004 215 1028 c 0,20,21
 230 1036 230 1036 248 1036 c 0,0,1
297 976 m 0,22,23
 283 976 283 976 270 970 c 0,24,25
 229 949 229 949 229 904 c 0,26,27
 229 891 229 891 233 882 c 1,28,29
 240 881 240 881 248 881 c 0,30,31
 262 881 262 881 275 886 c 0,32,33
 318 904 318 904 318 953 c 0,34,35
 318 964 318 964 314 975 c 1,36,37
 306 976 306 976 297 976 c 0,22,23
232.5 620 m 128,-1,39
 221 632 221 632 216.5 642.5 c 128,-1,40
 212 653 212 653 216 656 c 2,41,-1
 280 695 l 2,42,43
 287 699 287 699 306 684 c 2,44,-1
 311 680 l 2,45,46
 324 670 324 670 333.5 657 c 128,-1,47
 343 644 343 644 343 637 c 2,48,-1
 345 -60 l 2,49,50
 345 -73 345 -73 323 -59 c 0,51,52
 319 -56 319 -56 315 -53 c 0,53,54
 303 -43 303 -43 294.5 -31 c 128,-1,55
 286 -19 286 -19 286 -12 c 2,56,-1
 284 606 l 1,57,-1
 271 598 l 2,58,59
 267 595 267 595 255.5 601.5 c 128,-1,38
 244 608 244 608 232.5 620 c 128,-1,39
EndSplineSet
EndChar

StartChar: ej
Encoding: 106 106 78
Width: 645
GlyphClass: 2
Flags: W
LayerCount: 2
Fore
SplineSet
510 979 m 0,0,1
 539 979 539 979 564 964 c 0,2,3
 587 951 587 951 605.5 928.5 c 128,-1,4
 624 906 624 906 632 888 c 0,5,6
 641 867 641 867 641 847 c 0,7,8
 641 794 641 794 591 771 c 0,9,10
 578 765 578 765 559 765 c 0,11,12
 533 765 533 765 510 779 c 0,13,14
 485 793 485 793 466.5 816.5 c 128,-1,15
 448 840 448 840 440 859 c 0,16,17
 433 877 433 877 433 896 c 0,18,19
 433 947 433 947 477 971 c 0,20,21
 493 979 493 979 510 979 c 0,0,1
559 920 m 0,22,23
 545 920 545 920 532 913 c 0,24,25
 492 892 492 892 492 847 c 0,26,27
 492 835 492 835 495 825 c 1,28,29
 502 824 502 824 510 824 c 0,30,31
 526 824 526 824 537 829 c 0,32,33
 582 850 582 850 582 896 c 0,34,35
 582 907 582 907 578 918 c 1,36,37
 569 920 569 920 559 920 c 0,22,23
471 544.5 m 128,-1,39
 460 556 460 556 455 567 c 128,-1,40
 450 578 450 578 454 580 c 2,41,-1
 540 638 l 2,42,43
 545 642 545 642 558 633 c 1,44,-1
 566 629 l 1,45,46
 577 621 577 621 588 609 c 128,-1,47
 599 597 599 597 603 587 c 2,48,-1
 605 581 l 1,49,-1
 605 -117 l 2,50,51
 605 -403 605 -403 421 -447 c 0,52,53
 389 -455 389 -455 354 -455 c 0,54,55
 303 -455 303 -455 267 -441 c 0,56,57
 245 -432 245 -432 219 -411.5 c 128,-1,58
 193 -391 193 -391 176 -364 c 0,59,60
 164 -344 164 -344 176 -344 c 1,61,62
 178 -343 178 -343 183 -345 c 0,63,64
 204 -354 204 -354 222 -380 c 1,65,66
 251 -396 251 -396 305 -396 c 0,67,68
 338 -396 338 -396 369 -388 c 0,69,70
 545 -346 545 -346 545 -68 c 2,71,-1
 545 547 l 1,72,-1
 509 523 l 2,73,74
 505 520 505 520 493.5 526.5 c 128,-1,38
 482 533 482 533 471 544.5 c 128,-1,39
EndSplineSet
EndChar

StartChar: ek
Encoding: 107 107 79
Width: 779
GlyphClass: 2
Flags: W
LayerCount: 2
Fore
SplineSet
275 -54 m 0,0,1
 262 -44 262 -44 253.5 -32 c 128,-1,2
 245 -20 245 -20 245 -13 c 2,3,-1
 245 914 l 1,4,5
 236 911 236 911 226 909 c 1,6,7
 219 909 219 909 207 917 c 128,-1,8
 195 925 195 925 185 937 c 0,9,10
 163 962 163 962 173 968 c 0,11,12
 174 968 174 968 175 968 c 0,13,14
 220 974 220 974 240 1033 c 0,15,16
 242 1039 242 1039 255 1032 c 2,17,-1
 261 1029 l 2,18,19
 268 1026 268 1026 275 1020 c 0,20,21
 287 1010 287 1010 296 998 c 128,-1,22
 305 986 305 986 305 979 c 2,23,-1
 304 410 l 1,24,-1
 544 615 l 2,25,26
 620 681 620 681 672 681 c 2,27,-1
 685 681 l 2,28,29
 692 681 692 681 704 672 c 128,-1,30
 716 663 716 663 726 651 c 0,31,32
 747 626 747 626 736 622 c 0,33,34
 735 621 735 621 734 621 c 2,35,-1
 721 621 l 2,36,37
 673 621 673 621 600 559 c 2,38,-1
 385 374 l 1,39,-1
 593 96 l 1,40,41
 622 60 622 60 646 42.5 c 128,-1,42
 670 25 670 25 698 19 c 0,43,44
 710 17 710 17 722 16 c 0,45,46
 729 15 729 15 741.5 5.5 c 128,-1,47
 754 -4 754 -4 764 -16 c 0,48,49
 775 -30 775 -30 775 -38 c 2,50,-1
 775 -61 l 2,51,52
 775 -73 775 -73 753 -59 c 0,53,54
 749 -56 749 -56 745 -53 c 0,55,56
 738 -47 738 -47 728 -37 c 1,57,58
 644 -10 644 -10 557 99 c 0,59,60
 556 100 556 100 555 102 c 2,61,-1
 364 356 l 1,62,-1
 304 305 l 1,63,-1
 304 -61 l 2,64,65
 304 -74 304 -74 282 -60 c 0,66,67
 279 -57 279 -57 275 -54 c 0,0,1
EndSplineSet
EndChar

StartChar: el
Encoding: 108 108 80
Width: 309
GlyphClass: 2
Flags: W
LayerCount: 2
Fore
SplineSet
275 -54 m 0,0,1
 262 -44 262 -44 253.5 -32 c 128,-1,2
 245 -20 245 -20 245 -13 c 2,3,-1
 245 914 l 1,4,5
 236 911 236 911 226 909 c 1,6,7
 219 909 219 909 207 917 c 128,-1,8
 195 925 195 925 185 937 c 0,9,10
 163 962 163 962 173 968 c 0,11,12
 174 968 174 968 175 968 c 0,13,14
 220 974 220 974 240 1033 c 0,15,16
 242 1039 242 1039 255 1032 c 2,17,-1
 261 1029 l 2,18,19
 268 1026 268 1026 275 1020 c 0,20,21
 287 1010 287 1010 296 998 c 128,-1,22
 305 986 305 986 305 979 c 2,23,-1
 304 -61 l 2,24,25
 304 -74 304 -74 282 -60 c 0,26,27
 279 -57 279 -57 275 -54 c 0,0,1
EndSplineSet
EndChar

StartChar: em
Encoding: 109 109 81
Width: 1120
GlyphClass: 2
Flags: W
LayerCount: 2
Fore
SplineSet
618 569 m 1,0,1
 603 610 603 610 583 623 c 0,2,3
 545 647 545 647 477 647 c 0,4,5
 449 647 449 647 427 641 c 1,6,7
 358 627 358 627 241 523 c 1,8,-1
 252 -53 l 2,9,10
 253 -66 253 -66 231 -52 c 0,11,12
 227 -50 227 -50 223 -46 c 0,13,14
 211 -36 211 -36 202 -24 c 128,-1,15
 193 -12 193 -12 193 -5 c 2,16,-1
 182 575 l 1,17,18
 182 575 182 575 182 575 c 1,19,-1
 182 679 l 1,20,-1
 179 683 l 2,21,22
 164 704 164 704 175 706 c 0,23,24
 177 707 177 707 180 706 c 2,25,-1
 191 703 l 2,26,27
 200 701 200 701 212 690.5 c 128,-1,28
 224 680 224 680 232.5 668 c 128,-1,29
 241 656 241 656 241 650 c 2,30,-1
 241 627 l 1,31,32
 322 689 322 689 375 700 c 1,33,34
 398 707 398 707 429 707 c 0,35,36
 509 707 509 707 567 668 c 0,37,38
 607 642 607 642 635 604 c 0,39,40
 638 600 638 600 641 595 c 1,41,42
 746 683 746 683 810 697 c 1,43,44
 834 704 834 704 864 704 c 0,45,46
 935 704 935 704 990 668 c 0,47,48
 1067 617 1067 617 1098 527 c 0,49,50
 1115 477 1115 477 1115 415 c 2,51,-1
 1116 -60 l 2,52,53
 1116 -73 1116 -73 1094 -58 c 0,54,55
 1090 -56 1090 -56 1086 -53 c 0,56,57
 1074 -43 1074 -43 1065.5 -30.5 c 128,-1,58
 1057 -18 1057 -18 1057 -11 c 2,59,-1
 1056 464 l 2,60,61
 1056 521 1056 521 1041 565 c 128,-1,62
 1026 609 1026 609 1006 622 c 0,63,64
 972 644 972 644 913 644 c 0,65,66
 885 644 885 644 862 638 c 1,67,68
 794 624 794 624 678 521 c 1,69,70
 678 521 678 521 678 521 c 1,71,72
 679 517 679 517 679 511 c 128,-1,73
 679 505 679 505 679.5 499.5 c 128,-1,74
 680 494 680 494 680 484 c 128,-1,75
 680 474 680 474 680 466 c 128,-1,76
 680 458 680 458 680 443.5 c 128,-1,77
 680 429 680 429 680 418 c 2,78,-1
 680 -57 l 2,79,80
 680 -70 680 -70 659 -55 c 0,81,82
 655 -53 655 -53 651 -50 c 0,83,84
 639 -40 639 -40 630 -27.5 c 128,-1,85
 621 -15 621 -15 621 -8 c 2,86,-1
 618 569 l 1,0,1
EndSplineSet
EndChar

StartChar: en
Encoding: 110 110 82
Width: 685
GlyphClass: 2
Flags: W
LayerCount: 2
Fore
SplineSet
179 691 m 1,0,1
 164 713 164 713 175 715 c 0,2,3
 177 715 177 715 180 715 c 1,4,-1
 191 711 l 1,5,6
 200 709 200 709 212 699 c 128,-1,7
 224 689 224 689 232.5 677 c 128,-1,8
 241 665 241 665 241 658 c 2,9,-1
 241 635 l 1,10,11
 322 697 322 697 375 709 c 0,12,13
 398 715 398 715 429 715 c 0,14,15
 500 715 500 715 554 679 c 0,16,17
 632 628 632 628 663 538 c 0,18,19
 680 488 680 488 680 426 c 2,20,-1
 680 -48 l 2,21,22
 680 -61 680 -61 659 -47 c 0,23,24
 655 -44 655 -44 651 -41 c 0,25,26
 639 -31 639 -31 630 -19 c 128,-1,27
 621 -7 621 -7 621 0 c 2,28,-1
 621 475 l 2,29,30
 621 532 621 532 605.5 576.5 c 128,-1,31
 590 621 590 621 571 633 c 0,32,33
 537 656 537 656 477 656 c 0,34,35
 449 656 449 656 427 650 c 1,36,37
 358 635 358 635 241 532 c 1,38,-1
 252 -45 l 2,39,40
 253 -58 253 -58 231 -44 c 0,41,42
 227 -41 227 -41 223 -38 c 0,43,44
 211 -28 211 -28 202 -16 c 128,-1,45
 193 -4 193 -4 193 3 c 2,46,-1
 182 583 l 1,47,48
 182 583 182 583 182 584 c 2,49,-1
 182 687 l 1,50,-1
 179 691 l 1,0,1
EndSplineSet
EndChar

StartChar: eo
Encoding: 111 111 83
Width: 845
GlyphClass: 2
Flags: W
LayerCount: 2
Fore
SplineSet
484 704 m 0,0,1
 532 704 532 704 577 691 c 0,2,3
 628 676 628 676 679 638 c 128,-1,4
 730 600 730 600 769 543 c 1,5,6
 841 441 841 441 841 306 c 0,7,8
 841 126 841 126 732 16 c 1,9,10
 647 -72 647 -72 528 -72 c 0,11,12
 483 -72 483 -72 443 -61 c 0,13,14
 391 -46 391 -46 339.5 -7.5 c 128,-1,15
 288 31 288 31 247 89 c 0,16,17
 170 198 170 198 170 341 c 0,18,19
 170 530 170 530 287 633 c 0,20,21
 368 704 368 704 484 704 c 0,0,1
528 645 m 0,22,23
 422 645 422 645 343 576 c 0,24,25
 229 476 229 476 229 292 c 0,26,27
 229 162 229 162 290 77 c 1,28,29
 311 46 311 46 335.5 28 c 128,-1,30
 360 10 360 10 399 -2 c 0,31,32
 436 -13 436 -13 479 -13 c 0,33,34
 593 -13 593 -13 676 72 c 0,35,36
 782 180 782 180 782 355 c 0,37,38
 782 476 782 476 726 556 c 0,39,40
 706 585 706 585 681.5 603 c 128,-1,41
 657 621 657 621 617 633 c 256,42,43
 577 645 577 645 528 645 c 0,22,23
EndSplineSet
EndChar

StartChar: ep
Encoding: 112 112 84
Width: 822
GlyphClass: 2
Flags: W
LayerCount: 2
Fore
SplineSet
237 41 m 1,0,1
 259 27 259 27 304 15.5 c 128,-1,2
 349 4 349 4 406 2 c 0,3,4
 548 -3 548 -3 642 86 c 1,5,6
 758 201 758 201 758 381 c 0,7,8
 758 492 758 492 711 565 c 0,9,10
 705 574 705 574 699 581 c 0,11,12
 674 612 674 612 627 633.5 c 128,-1,13
 580 655 580 655 512 655 c 0,14,15
 302 655 302 655 244 537 c 1,16,-1
 237 41 l 1,0,1
237 7 m 1,17,-1
 229 -503 l 2,18,19
 229 -515 229 -515 207 -501 c 0,20,21
 203 -498 203 -498 199 -495 c 0,22,23
 187 -485 187 -485 178.5 -473 c 128,-1,24
 170 -461 170 -461 170 -454 c 2,25,-1
 185 587 l 2,26,27
 185 589 185 589 185 590 c 0,28,29
 245 714 245 714 463 714 c 0,30,31
 625 714 625 714 734 581 c 1,32,33
 745 566 745 566 756 550 c 0,34,35
 757 549 757 549 757 549 c 1,36,37
 818 455 818 455 818 332 c 0,38,39
 818 147 818 147 698 30 c 0,40,41
 602 -63 602 -63 454 -57 c 0,42,43
 382 -54 382 -54 331.5 -40.5 c 128,-1,44
 281 -27 281 -27 237 7 c 1,17,-1
EndSplineSet
EndChar

StartChar: eq
Encoding: 113 113 85
Width: 822
GlyphClass: 2
Flags: W
LayerCount: 2
Fore
SplineSet
752 -21 m 1,0,1
 690 -53 690 -53 583 -57 c 0,2,3
 506 -60 506 -60 440 -36.5 c 128,-1,4
 374 -13 374 -13 311 47 c 0,5,6
 310 48 310 48 309 49 c 0,7,8
 234 123 234 123 202 204 c 128,-1,9
 170 285 170 285 170 381 c 0,10,11
 170 500 170 500 225 585 c 1,12,13
 312 714 312 714 476 714 c 0,14,15
 604 714 604 714 683 670 c 0,16,17
 719 649 719 649 751.5 615.5 c 128,-1,18
 784 582 784 582 800 547 c 0,19,20
 803 542 803 542 803 538 c 2,21,-1
 818 -502 l 2,22,23
 818 -515 818 -515 796 -501 c 0,24,25
 792 -499 792 -499 788 -495 c 0,26,27
 776 -485 776 -485 767 -473 c 128,-1,28
 758 -461 758 -461 758 -454 c 2,29,-1
 752 -21 l 1,0,1
751 73 m 1,30,-1
 743 583 l 1,31,32
 736 598 736 598 728.5 605 c 128,-1,33
 721 612 721 612 702 622 c 0,34,35
 638 655 638 655 525 655 c 0,36,37
 367 655 367 655 282 530 c 1,38,39
 229 448 229 448 229 332 c 0,40,41
 229 245 229 245 255.5 178 c 128,-1,42
 282 111 282 111 325 68 c 1,43,44
 357 38 357 38 411 19 c 128,-1,45
 465 0 465 0 533 2 c 0,46,47
 676 8 676 8 735 63 c 0,48,49
 740 68 740 68 747 73 c 0,50,51
 748 73 748 73 751 73 c 1,30,-1
EndSplineSet
EndChar

StartChar: er
Encoding: 114 114 86
Width: 494
GlyphClass: 2
Flags: W
LayerCount: 2
Fore
SplineSet
175 681 m 1,0,1
 171 689 171 689 170 694 c 128,-1,2
 169 699 169 699 172.5 700 c 128,-1,3
 176 701 176 701 182 699 c 2,4,-1
 190 696 l 2,5,6
 199 692 199 692 211.5 680.5 c 128,-1,7
 224 669 224 669 231 658 c 0,8,9
 236 649 236 649 236 644 c 2,10,-1
 236 639 l 1,11,12
 270 678 270 678 309 693 c 0,13,14
 330 701 330 701 357 701 c 0,15,16
 372 701 372 701 380.5 700 c 128,-1,17
 389 699 389 699 403 693 c 128,-1,18
 417 687 417 687 433 675 c 0,19,20
 482 638 482 638 489 589 c 0,21,22
 490 581 490 581 483 582 c 0,23,24
 475 583 475 583 462 593 c 0,25,26
 450 602 450 602 440.5 614.5 c 128,-1,27
 431 627 431 627 430 634 c 0,28,29
 430 637 430 637 429 639 c 1,30,31
 418 641 418 641 406 641 c 0,32,33
 381 641 381 641 363 634 c 0,34,35
 291 608 291 608 236 492 c 0,36,37
 235 491 235 491 235 490 c 0,38,39
 236 486 236 486 236 483 c 2,40,-1
 232 -56 l 2,41,42
 232 -68 232 -68 210 -54 c 0,43,44
 207 -51 207 -51 203 -48 c 0,45,46
 191 -38 191 -38 182 -26 c 128,-1,47
 173 -14 173 -14 173 -7 c 2,48,-1
 177 532 l 2,49,50
 177 535 177 535 178 537 c 1,51,52
 177 541 177 541 177 543 c 0,53,54
 177 566 177 566 176 611.5 c 128,-1,55
 175 657 175 657 175 681 c 1,0,1
EndSplineSet
EndChar

StartChar: es
Encoding: 115 115 87
Width: 669
GlyphClass: 2
Flags: W
LayerCount: 2
Fore
SplineSet
199 27.5 m 128,-1,1
 194 38 194 38 198 41.5 c 128,-1,2
 202 45 202 45 212 39 c 2,3,-1
 280 2 l 1,4,5
 316 -11 316 -11 399 -11 c 1,6,7
 475 -10 475 -10 530 30 c 0,8,9
 605 83 605 83 605 170 c 0,10,11
 605 198 605 198 601 210 c 1,12,13
 598 214 598 214 596 216 c 0,14,15
 581 236 581 236 534.5 256.5 c 128,-1,16
 488 277 488 277 414 285 c 1,17,18
 414 285 414 285 413 285 c 0,19,20
 322 303 322 303 264 348 c 0,21,22
 182 411 182 411 171 496 c 0,23,24
 170 505 170 505 170 514 c 0,25,26
 171 613 171 613 248 664 c 0,27,28
 298 697 298 697 355 694 c 0,29,30
 371 693 371 693 392.5 692.5 c 128,-1,31
 414 692 414 692 424.5 691.5 c 128,-1,32
 435 691 435 691 448.5 688.5 c 128,-1,33
 462 686 462 686 472.5 682 c 128,-1,34
 483 678 483 678 494 670 c 1,35,-1
 591 610 l 2,36,37
 602 603 602 603 613 590.5 c 128,-1,38
 624 578 624 578 628 568 c 0,39,40
 633 556 633 556 624 556 c 1,41,42
 619 557 619 557 610 562 c 2,43,-1
 509 625 l 1,44,45
 486 630 486 630 403 635 c 0,46,47
 350 638 350 638 303 607 c 0,48,49
 231 558 231 558 229 465 c 0,50,51
 229 458 229 458 230 450 c 0,52,53
 236 403 236 403 259 386 c 0,54,55
 294 359 294 359 368 344 c 1,56,57
 453 335 453 335 518 306 c 128,-1,58
 583 277 583 277 634 212 c 0,59,60
 642 201 642 201 649 190 c 0,61,62
 653 184 653 184 655.5 179 c 128,-1,63
 658 174 658 174 659.5 168.5 c 128,-1,64
 661 163 661 163 662.5 160 c 128,-1,65
 664 157 664 157 664 150 c 128,-1,66
 664 143 664 143 664.5 141.5 c 128,-1,67
 665 140 665 140 664.5 131.5 c 128,-1,68
 664 123 664 123 664 121 c 0,69,70
 664 28 664 28 586 -27 c 1,71,72
 528 -70 528 -70 448 -70 c 0,73,74
 356 -71 356 -71 313 -53 c 0,75,76
 311 -52 311 -52 309 -51 c 2,77,-1
 239 -13 l 2,78,79
 228 -7 228 -7 216 5 c 128,-1,0
 204 17 204 17 199 27.5 c 128,-1,1
EndSplineSet
EndChar

StartChar: et
Encoding: 116 116 88
Width: 619
GlyphClass: 2
Flags: W
LayerCount: 2
Fore
SplineSet
290 874 m 0,0,1
 286 886 286 886 294 886 c 0,2,3
 308 886 308 886 322 868 c 128,-1,4
 336 850 336 850 343 831 c 2,5,-1
 350 813 l 1,6,-1
 353 660 l 1,7,-1
 528 657 l 2,8,9
 535 657 535 657 547 648.5 c 128,-1,10
 559 640 559 640 569 627 c 0,11,12
 589 602 589 602 578 598 c 0,13,14
 577 598 577 598 576 598 c 2,15,-1
 352 601 l 1,16,-1
 352 127 l 2,17,18
 352 34 352 34 376 -7 c 1,19,20
 390 -13 390 -13 410 -13 c 0,21,22
 497 -13 497 -13 556 101 c 0,23,24
 559 106 559 106 569 101 c 128,-1,25
 579 96 579 96 591 85 c 128,-1,26
 603 74 603 74 610 62.5 c 128,-1,27
 617 51 617 51 614 46 c 0,28,29
 553 -72 553 -72 458 -72 c 0,30,31
 414 -72 414 -72 375 -40 c 0,32,33
 322 2 322 2 307.5 52 c 128,-1,34
 293 102 293 102 293 176 c 2,35,-1
 293 598 l 1,36,-1
 233 598 l 1,37,38
 226 601 226 601 215.5 605 c 128,-1,39
 205 609 205 609 187.5 621.5 c 128,-1,40
 170 634 170 634 170 645 c 0,41,42
 170 649 170 649 174 651 c 0,43,44
 175 652 175 652 176 655 c 0,45,46
 177 657 177 657 181 657 c 2,47,-1
 294 657 l 1,48,-1
 291 861 l 2,49,50
 291 869 291 869 290 874 c 0,0,1
EndSplineSet
EndChar

StartChar: eu
Encoding: 117 117 89
Width: 685
GlyphClass: 2
Flags: W
LayerCount: 2
Fore
SplineSet
671 -49 m 2,0,1
 687 -71 687 -71 676 -73 c 0,2,3
 674 -73 674 -73 671 -72 c 2,4,-1
 659 -69 l 2,5,6
 651 -67 651 -67 638.5 -56.5 c 128,-1,7
 626 -46 626 -46 617.5 -34.5 c 128,-1,8
 609 -23 609 -23 609 -16 c 2,9,-1
 609 7 l 1,10,11
 529 -55 529 -55 476 -66 c 1,12,13
 452 -73 452 -73 422 -73 c 0,14,15
 351 -73 351 -73 296 -37 c 0,16,17
 219 14 219 14 188 104 c 0,18,19
 170 154 170 154 170 216 c 2,20,-1
 170 691 l 2,21,22
 170 704 170 704 192 689 c 0,23,24
 196 687 196 687 200 683 c 0,25,26
 212 673 212 673 220.5 661 c 128,-1,27
 229 649 229 649 229 642 c 2,28,-1
 230 167 l 2,29,30
 230 110 230 110 245 66 c 128,-1,31
 260 22 260 22 280 9 c 0,32,33
 314 -13 314 -13 373 -13 c 0,34,35
 401 -13 401 -13 423 -8 c 0,36,37
 492 7 492 7 609 110 c 1,38,-1
 598 687 l 2,39,40
 598 700 598 700 619 686 c 0,41,42
 623 683 623 683 627 680 c 0,43,44
 639 670 639 670 648 658 c 128,-1,45
 657 646 657 646 657 639 c 2,46,-1
 668 59 l 1,47,-1
 668 59 l 1,48,-1
 668 59 l 1,49,-1
 668 -45 l 1,50,-1
 671 -49 l 2,0,1
EndSplineSet
EndChar

StartChar: ev
Encoding: 118 118 90
Width: 900
GlyphClass: 2
Flags: W
LayerCount: 2
Fore
SplineSet
872.5 665 m 128,-1,1
 884 654 884 654 891 642.5 c 128,-1,2
 898 631 898 631 895 627 c 2,3,-1
 814 478 l 1,4,-1
 576 -83 l 2,5,6
 574 -86 574 -86 569.5 -85.5 c 128,-1,7
 565 -85 565 -85 557.5 -80 c 128,-1,8
 550 -75 550 -75 542 -68 c 0,9,10
 525 -53 525 -53 519 -39 c 2,11,-1
 305 461 l 1,12,13
 268 535 268 535 179 659 c 0,14,15
 163 681 163 681 175 683 c 0,16,17
 177 684 177 684 179 683 c 0,18,19
 188 681 188 681 200.5 670.5 c 128,-1,20
 213 660 213 660 221 648 c 0,21,22
 318 513 318 513 359 430 c 0,23,24
 359 429 359 429 360 428 c 2,25,-1
 537 16 l 1,26,-1
 756 532 l 1,27,-1
 837 681 l 2,28,29
 840 686 840 686 850.5 681 c 128,-1,0
 861 676 861 676 872.5 665 c 128,-1,1
EndSplineSet
EndChar

StartChar: ew
Encoding: 119 119 91
Width: 1217
GlyphClass: 2
Flags: W
LayerCount: 2
Fore
SplineSet
628 657 m 0,0,1
 703 531 703 531 735 437 c 1,2,3
 735 437 735 437 735 436 c 2,4,-1
 889 25 l 1,5,-1
 1081 544 l 1,6,-1
 1153 696 l 1,7,8
 1153 696 1153 696 1154 697 c 0,9,10
 1154 698 1154 698 1156 699 c 0,11,12
 1160 700 1160 700 1169 695 c 0,13,14
 1179 690 1179 690 1190 679 c 0,15,16
 1193 676 1193 676 1196 673 c 0,17,18
 1204 664 1204 664 1209 655 c 256,19,20
 1214 646 1214 646 1211 642 c 2,21,-1
 1139 490 l 1,22,-1
 927 -83 l 2,23,24
 926 -87 926 -87 921 -86 c 128,-1,25
 916 -85 916 -85 908.5 -80.5 c 128,-1,26
 901 -76 901 -76 893 -69 c 0,27,28
 875 -53 875 -53 870 -38 c 2,29,-1
 715 375 l 1,30,-1
 538 -83 l 2,31,32
 537 -87 537 -87 532 -86 c 128,-1,33
 527 -85 527 -85 519.5 -80.5 c 128,-1,34
 512 -76 512 -76 504 -69 c 0,35,36
 486 -53 486 -53 481 -38 c 2,37,-1
 289 473 l 1,38,39
 256 550 256 550 177 677 c 0,40,41
 176 679 176 679 175 680 c 0,42,43
 166 696 166 696 173 698 c 0,44,45
 177 700 177 700 184 696 c 1,46,47
 188 695 188 695 192 692 c 0,48,49
 200 687 200 687 209 678 c 0,50,51
 219 668 219 668 225 658 c 0,52,53
 310 522 310 522 345 439 c 0,54,55
 345 438 345 438 346 437 c 2,56,-1
 500 24 l 1,57,-1
 676 480 l 1,58,59
 646 565 646 565 579 679 c 0,60,61
 578 680 578 680 577 681 c 0,62,63
 575 685 575 685 574 688 c 0,64,65
 572 695 572 695 574 697 c 0,66,67
 578 701 578 701 587 696 c 1,68,69
 591 695 591 695 594 692 c 1,70,71
 603 687 603 687 612 678 c 0,72,73
 622 667 622 667 628 657 c 0,0,1
EndSplineSet
EndChar

StartChar: ex
Encoding: 120 120 92
Width: 873
GlyphClass: 2
Flags: W
LayerCount: 2
Fore
SplineSet
868 -35 m 1,0,-1
 868 -58 l 2,1,2
 868 -71 868 -71 847 -56 c 0,3,4
 843 -54 843 -54 839 -50 c 1,5,-1
 868 -35 l 1,0,-1
868 -35 m 1,6,-1
 868 -58 l 2,7,8
 868 -70 868 -70 849 -58 c 0,9,10
 845 -56 845 -56 842 -53 c 0,11,12
 786 -10 786 -10 707 78 c 0,13,14
 706 79 706 79 705 80 c 2,15,-1
 520 296 l 1,16,-1
 334 42 l 1,17,18
 314 19 314 19 298 -2 c 0,19,20
 259 -53 259 -53 225 -61 c 0,21,22
 219 -62 219 -62 207 -54 c 128,-1,23
 195 -46 195 -46 184 -34 c 1,24,25
 164 -8 164 -8 173 -2 c 1,26,27
 204 5 204 5 240 53 c 0,28,29
 257 75 257 75 277 98 c 1,30,-1
 468 359 l 1,31,-1
 318 542 l 2,32,33
 267 604 267 604 239 625 c 1,34,-1
 234 625 l 2,35,36
 227 625 227 625 215 634 c 128,-1,37
 203 643 203 643 193 655 c 0,38,39
 180 670 180 670 180 679 c 2,40,-1
 180 681 l 2,41,42
 180 688 180 688 192 684 c 1,43,-1
 198 684 l 2,44,45
 209 684 209 684 227 668 c 1,46,47
 280 630 280 630 352 541 c 2,48,-1
 484 380 l 1,49,-1
 650 591 l 1,50,51
 709 664 709 664 742 680 c 1,52,53
 743 682 743 682 746.5 682.5 c 128,-1,54
 750 683 750 683 757 680 c 128,-1,55
 764 677 764 677 772 671 c 0,56,57
 784 661 784 661 793 648.5 c 128,-1,58
 802 636 802 636 802 630 c 2,59,-1
 802 627 l 2,60,61
 802 624 802 624 799 622 c 0,62,63
 767 609 767 609 707 535 c 1,64,-1
 536 317 l 1,65,-1
 735 84 l 1,66,67
 778 37 778 37 809 8 c 1,68,-1
 809 13 l 2,69,70
 809 14 809 14 824 1.5 c 128,-1,71
 839 -11 839 -11 853 -23 c 2,72,-1
 868 -35 l 1,6,-1
EndSplineSet
EndChar

StartChar: ey
Encoding: 121 121 93
Width: 850
GlyphClass: 2
Flags: W
LayerCount: 2
Fore
SplineSet
831 582 m 0,0,1
 851 556 851 556 842 550 c 1,2,3
 811 545 811 545 783 492 c 1,4,5
 778 476 778 476 776 472 c 2,6,-1
 516 -150 l 2,7,8
 411 -401 411 -401 332 -442 c 0,9,10
 300 -459 300 -459 261 -459 c 0,11,12
 254 -459 254 -459 242 -450 c 128,-1,13
 230 -441 230 -441 220 -429 c 0,14,15
 199 -404 199 -404 210 -400 c 0,16,17
 211 -399 211 -399 212 -399 c 0,18,19
 247 -399 247 -399 277 -384 c 0,20,21
 353 -344 353 -344 457 -96 c 2,22,-1
 518 48 l 1,23,24
 517 50 517 50 516 51 c 2,25,-1
 256 524 l 1,26,27
 237 548 237 548 206 569 c 0,28,29
 194 577 194 577 183.5 589.5 c 128,-1,30
 173 602 173 602 171 611 c 0,31,32
 168 621 168 621 176 620 c 0,33,34
 183 620 183 620 193 613 c 0,35,36
 252 572 252 572 294 518 c 0,37,38
 299 512 299 512 302 507 c 0,39,40
 305 503 305 503 307 499 c 2,41,-1
 534 87 l 1,42,-1
 718 525 l 2,43,44
 720 530 720 530 725 546 c 1,45,46
 725 546 725 546 725 547 c 0,47,48
 755 603 755 603 791 609 c 0,49,50
 797 610 797 610 809 602 c 128,-1,51
 821 594 821 594 831 582 c 0,0,1
EndSplineSet
EndChar

StartChar: az
Encoding: 122 122 94
Width: 781
GlyphClass: 2
Flags: W
LayerCount: 2
Fore
SplineSet
765 -29 m 1,0,1
 783 -54 783 -54 772 -58 c 1,2,-1
 224 -58 l 2,3,4
 217 -58 217 -58 205 -49.5 c 128,-1,5
 193 -41 193 -41 183 -29 c 0,6,7
 170 -13 170 -13 170 -4 c 2,8,-1
 170 78 l 2,9,10
 170 80 170 80 171 82 c 2,11,-1
 713 596 l 1,12,-1
 714 629 l 1,13,-1
 265 629 l 2,14,15
 258 629 258 629 246 638 c 128,-1,16
 234 647 234 647 224 659 c 1,17,18
 206 684 206 684 216 688 c 1,19,-1
 722 688 l 2,20,21
 731 688 731 688 747 675 c 0,22,23
 759 665 759 665 767.5 653 c 128,-1,24
 776 641 776 641 776 634 c 2,25,-1
 772 544 l 2,26,27
 772 542 772 542 771 541 c 2,28,-1
 229 26 l 1,29,-1
 229 1 l 1,30,-1
 723 1 l 2,31,32
 730 1 730 1 742.5 -8 c 128,-1,33
 755 -17 755 -17 765 -29 c 1,0,1
EndSplineSet
EndChar

StartChar: acbl
Encoding: 123 123 95
Width: 599
GlyphClass: 2
Flags: W
LayerCount: 2
Fore
SplineSet
581 -360 m 0,0,1
 601 -385 601 -385 590 -389 c 0,2,3
 589 -389 589 -389 588 -389 c 0,4,5
 506 -388 506 -388 455.5 -374.5 c 128,-1,6
 405 -361 405 -361 361 -316 c 0,7,8
 360 -315 360 -315 359 -314 c 0,9,10
 319 -272 319 -272 306.5 -228.5 c 128,-1,11
 294 -185 294 -185 294 -122 c 2,12,-1
 294 148 l 2,13,14
 294 213 294 213 277 244 c 1,15,16
 257 257 257 257 219 269 c 0,17,18
 210 272 210 272 198 282.5 c 128,-1,19
 186 293 186 293 178 305 c 0,20,21
 165 324 165 324 174 327 c 0,22,23
 260 353 260 353 280 401 c 0,24,25
 294 432 294 432 294 495 c 2,26,-1
 294 766 l 2,27,28
 294 918 294 918 385 959 c 0,29,30
 434 982 434 982 539 983 c 0,31,32
 546 984 546 984 558 975 c 128,-1,33
 570 966 570 966 580 954 c 0,34,35
 601 929 601 929 590 925 c 0,36,37
 589 924 589 924 588 924 c 0,38,39
 486 923 486 923 439 901 c 0,40,41
 353 862 353 862 353 718 c 2,42,-1
 353 446 l 2,43,44
 353 381 353 381 339 347 c 1,45,46
 322 309 322 309 268 284 c 1,47,48
 275 279 275 279 282 274 c 0,49,50
 306 253 306 253 321.5 231 c 128,-1,51
 337 209 337 209 343.5 185 c 128,-1,52
 350 161 350 161 351.5 143.5 c 128,-1,53
 353 126 353 126 353 99 c 2,54,-1
 353 -171 l 2,55,56
 353 -215 353 -215 361.5 -250 c 128,-1,57
 370 -285 370 -285 380 -299 c 1,58,59
 396 -310 396 -310 440 -319.5 c 128,-1,60
 484 -329 484 -329 539 -330 c 0,61,62
 546 -330 546 -330 558.5 -339 c 128,-1,63
 571 -348 571 -348 581 -360 c 0,0,1
EndSplineSet
EndChar

StartChar: abar
Encoding: 124 124 96
Width: 234
GlyphClass: 2
Flags: W
LayerCount: 2
Fore
SplineSet
200 -79 m 0,0,1
 188 -69 188 -69 179 -57 c 128,-1,2
 170 -45 170 -45 170 -38 c 2,3,-1
 170 1015 l 2,4,5
 170 1027 170 1027 192 1013 c 0,6,7
 196 1011 196 1011 200 1007 c 0,8,9
 212 997 212 997 220.5 985 c 128,-1,10
 229 973 229 973 229 966 c 2,11,-1
 229 -87 l 2,12,13
 229 -99 229 -99 208 -85 c 0,14,15
 204 -83 204 -83 200 -79 c 0,0,1
EndSplineSet
EndChar

StartChar: acbr
Encoding: 125 125 97
Width: 599
GlyphClass: 2
Flags: W
LayerCount: 2
Fore
SplineSet
183 954 m 0,0,1
 163 979 163 979 174 983 c 0,2,3
 175 983 175 983 176 983 c 0,4,5
 252 983 252 983 298.5 972 c 128,-1,6
 345 961 345 961 386 926 c 0,7,8
 437 881 437 881 453.5 832 c 128,-1,9
 470 783 470 783 470 716 c 2,10,-1
 470 446 l 2,11,12
 470 381 470 381 488 351 c 1,13,14
 505 338 505 338 544 327 c 0,15,16
 553 324 553 324 565.5 313.5 c 128,-1,17
 578 303 578 303 586 291 c 0,18,19
 599 271 599 271 590 268 c 0,20,21
 506 241 506 241 484 193 c 1,22,23
 470 160 470 160 470 99 c 2,24,-1
 470 -172 l 2,25,26
 470 -324 470 -324 381 -365 c 0,27,28
 332 -388 332 -388 225 -389 c 0,29,30
 218 -390 218 -390 206 -381 c 128,-1,31
 194 -372 194 -372 184 -360 c 0,32,33
 163 -335 163 -335 174 -331 c 0,34,35
 175 -330 175 -330 176 -330 c 0,36,37
 280 -329 280 -329 327 -307 c 0,38,39
 411 -268 411 -268 411 -124 c 2,40,-1
 411 148 l 2,41,42
 411 212 411 212 425 247 c 1,43,44
 443 285 443 285 496 311 c 1,45,46
 490 315 490 315 483 321 c 0,47,48
 438 359 438 359 424.5 399.5 c 128,-1,49
 411 440 411 440 411 495 c 2,50,-1
 411 765 l 2,51,52
 411 812 411 812 400.5 848.5 c 128,-1,53
 390 885 390 885 382 895 c 1,54,55
 368 904 368 904 324.5 914 c 128,-1,56
 281 924 281 924 225 924 c 0,57,58
 218 924 218 924 205.5 933 c 128,-1,59
 193 942 193 942 183 954 c 0,0,1
EndSplineSet
EndChar

StartChar: a_h
Encoding: 126 126 98
Width: 1087
GlyphClass: 2
Flags: W
LayerCount: 2
Fore
SplineSet
1059.5 583.5 m 128,-1,1
 1071 572 1071 572 1077.5 560.5 c 128,-1,2
 1084 549 1084 549 1081 545 c 0,3,4
 976 393 976 393 883 369 c 1,5,6
 854 358 854 358 820 358 c 0,7,8
 712 358 712 358 568 437 c 1,9,10
 442 501 442 501 379 505 c 1,11,12
 308 505 308 505 259 438 c 1,13,14
 245 421 245 421 228 398 c 0,15,16
 225 394 225 394 214.5 399 c 128,-1,17
 204 404 204 404 192.5 415.5 c 128,-1,18
 181 427 181 427 174.5 438 c 128,-1,19
 168 449 168 449 171 454 c 0,20,21
 187 477 187 477 202 494 c 1,22,23
 254 565 254 565 331 565 c 1,24,25
 402 560 402 560 540 490 c 0,26,27
 541 490 541 490 542 489 c 0,28,29
 671 418 671 418 771 418 c 0,30,31
 802 418 802 418 830 428 c 1,32,33
 920 451 920 451 1024 601 c 0,34,35
 1027 605 1027 605 1037.5 600 c 128,-1,0
 1048 595 1048 595 1059.5 583.5 c 128,-1,1
EndSplineSet
EndChar

StartChar: M_m
Encoding: 3330 3330 99
Width: 767
GlyphClass: 2
Flags: W
LayerCount: 2
Fore
SplineSet
704 364 m 0,0,1
 704 469 704 469 643 534 c 0,2,3
 588 593 588 593 491 593 c 0,4,5
 384 593 384 593 308 511 c 1,6,7
 229 429 229 429 229 314 c 0,8,9
 229 207 229 207 292 140 c 1,10,11
 347 80 347 80 442 80 c 0,12,13
 551 80 551 80 627 162 c 1,14,15
 704 247 704 247 704 364 c 0,0,1
763 312 m 0,16,17
 763 193 763 193 684 106 c 1,18,19
 605 21 605 21 491 21 c 0,20,21
 367 21 367 21 267 129 c 0,22,23
 170 234 170 234 170 362 c 0,24,25
 170 483 170 483 251 568 c 1,26,27
 330 653 330 653 442 653 c 0,28,29
 568 653 568 653 668 545 c 0,30,31
 763 443 763 443 763 312 c 0,16,17
EndSplineSet
EndChar

StartChar: M_h
Encoding: 3331 3331 100
Width: 537
GlyphClass: 2
Flags: W
LayerCount: 2
Fore
SplineSet
533 149 m 0,0,1
 533 79 533 79 489 32 c 0,2,3
 443 -16 443 -16 376 -16 c 0,4,5
 299 -16 299 -16 234 54 c 1,6,7
 171 119 171 119 171 197 c 0,8,9
 171 267 171 267 217 315 c 0,10,11
 261 361 261 361 327 361 c 0,12,13
 404 361 404 361 470 295 c 0,14,15
 471 293 471 293 473 291 c 0,16,17
 533 226 533 226 533 149 c 0,0,1
473 197 m 0,18,19
 473 251 473 251 449 280 c 1,20,21
 441 287 441 287 421.5 294.5 c 128,-1,22
 402 302 402 302 376 302 c 0,23,24
 315 302 315 302 273 259 c 1,25,26
 230 213 230 213 230 148 c 0,27,28
 230 119 230 119 238.5 97.5 c 128,-1,29
 247 76 247 76 254 69 c 0,30,31
 256 67 256 67 258 65 c 0,32,33
 260 62 260 62 266.5 58 c 128,-1,34
 273 54 273 54 290.5 49 c 128,-1,35
 308 44 308 44 327 44 c 0,36,37
 389 44 389 44 432 89 c 0,38,39
 473 132 473 132 473 197 c 0,18,19
532 693 m 0,40,41
 532 622 532 622 488 576 c 0,42,43
 442 528 442 528 375 528 c 0,44,45
 298 528 298 528 233 598 c 1,46,47
 170 663 170 663 170 741 c 0,48,49
 170 811 170 811 216 859 c 0,50,51
 260 905 260 905 327 905 c 0,52,53
 403 905 403 905 469 839 c 0,54,55
 471 837 471 837 472 835 c 0,56,57
 532 770 532 770 532 693 c 0,40,41
473 740 m 0,58,59
 473 794 473 794 448 824 c 0,60,61
 441 831 441 831 421 838.5 c 128,-1,62
 401 846 401 846 375 846 c 0,63,64
 314 846 314 846 272 802 c 0,65,66
 229 757 229 757 229 692 c 0,67,68
 229 662 229 662 237.5 641 c 128,-1,69
 246 620 246 620 253 613 c 0,70,71
 255 611 255 611 257 609 c 0,72,73
 260 606 260 606 266.5 602 c 128,-1,74
 273 598 273 598 290 592.5 c 128,-1,75
 307 587 307 587 327 587 c 0,76,77
 388 587 388 587 431 633 c 1,78,79
 473 676 473 676 473 740 c 0,58,59
EndSplineSet
EndChar

StartChar: ma
Encoding: 3333 3333 101
Width: 2130
GlyphClass: 2
Flags: W
LayerCount: 2
Fore
SplineSet
2053 615 m 1,0,1
 1833 645 1833 645 1714 485 c 1,2,3
 1643 397 1643 397 1628 307 c 0,4,5
 1601 141 1601 141 1652 42 c 0,6,7
 1662 24 1662 24 1668 17.5 c 128,-1,8
 1674 11 1674 11 1688 4 c 0,9,10
 1721 -14 1721 -14 1771 -14 c 0,11,12
 1871 -14 1871 -14 1941 60 c 0,13,14
 2013 135 2013 135 2038 233 c 1,15,16
 2066 331 2066 331 2066 432 c 0,17,18
 2066 534 2066 534 2053 615 c 1,0,1
2042 668 m 1,19,20
 2021 752 2021 752 1986 799 c 0,21,22
 1952 845 1952 845 1915.5 870.5 c 128,-1,23
 1879 896 1879 896 1829 906 c 0,24,25
 1788 914 1788 914 1744 908 c 0,26,27
 1521 879 1521 879 1427 712 c 1,28,-1
 1429 -47 l 2,29,30
 1429 -60 1429 -60 1408 -45 c 0,31,32
 1404 -43 1404 -43 1400 -39 c 0,33,34
 1388 -29 1388 -29 1379 -17 c 128,-1,35
 1370 -5 1370 -5 1370 2 c 2,36,-1
 1368 758 l 1,37,38
 1343 802 1343 802 1317 828 c 0,39,40
 1289 856 1289 856 1248 877 c 0,41,42
 1174 914 1174 914 1073 914 c 0,43,44
 1037 914 1037 914 975 896 c 1,45,46
 986 890 986 890 996 883 c 0,47,48
 997 882 997 882 999 881 c 0,49,50
 1015 870 1015 870 1030 858 c 0,51,52
 1159 752 1159 752 1159 616 c 0,53,54
 1159 514 1159 514 1062 449 c 1,55,56
 1114 410 1114 410 1148 358 c 1,57,58
 1199 283 1199 283 1199 195 c 0,59,60
 1199 68 1199 68 1114 -3 c 1,61,62
 1026 -73 1026 -73 908 -73 c 0,63,64
 824 -73 824 -73 759 -50 c 0,65,66
 709 -32 709 -32 661.5 5 c 128,-1,67
 614 42 614 42 580 94 c 0,68,69
 500 215 500 215 488 403 c 0,70,71
 465 759 465 759 803 911 c 1,72,73
 765 916 765 916 728 916 c 0,74,75
 552 916 552 916 390 776 c 0,76,77
 229 637 229 637 229 358 c 0,78,79
 229 126 229 126 393 -37 c 0,80,81
 404 -49 404 -49 410 -60 c 128,-1,82
 416 -71 416 -71 412.5 -74.5 c 128,-1,83
 409 -78 409 -78 398 -72.5 c 128,-1,84
 387 -67 387 -67 375 -55 c 0,85,86
 170 150 170 150 170 407 c 0,87,88
 170 691 170 691 334 833 c 0,89,90
 499 975 499 975 679 975 c 0,91,92
 724 975 724 975 766 969 c 0,93,94
 824 961 824 961 879 941 c 1,95,96
 975 974 975 974 1025 973 c 0,97,98
 1074 973 1074 973 1118 964 c 0,99,100
 1275 933 1275 933 1382 789 c 1,101,102
 1481 940 1481 940 1693 967 c 0,103,104
 1740 973 1740 973 1785 965 c 0,105,106
 1846 953 1846 953 1909 909 c 128,-1,107
 1972 865 1972 865 2026 791 c 1,108,109
 2083 715 2083 715 2106 599 c 0,110,111
 2125 506 2125 506 2125 384 c 0,112,113
 2125 280 2125 280 2097 180 c 1,114,115
 2071 80 2071 80 1998 4 c 0,116,117
 1925 -73 1925 -73 1820 -73 c 0,118,119
 1762 -73 1762 -73 1716 -49 c 0,120,121
 1681 -31 1681 -31 1649.5 2 c 128,-1,122
 1618 35 1618 35 1600 70 c 0,123,124
 1540 184 1540 184 1569 358 c 0,125,126
 1584 452 1584 452 1657 541 c 1,127,128
 1788 717 1788 717 2038 669 c 0,129,130
 2040 668 2040 668 2042 668 c 1,19,20
926 880 m 1,131,132
 896 869 896 869 860 854 c 0,133,134
 524 705 524 705 547 356 c 0,135,136
 559 180 559 180 626 78 c 0,137,138
 642 53 642 53 663 37 c 128,-1,139
 684 21 684 21 722 7 c 0,140,141
 780 -14 780 -14 859 -14 c 0,142,143
 973 -14 973 -14 1058 54 c 1,144,145
 1140 122 1140 122 1140 243 c 0,146,147
 1140 319 1140 319 1103 374 c 0,148,149
 1089 394 1089 394 1073 407 c 256,150,151
 1057 420 1057 420 1028 431 c 1,152,-1
 888 430 l 2,153,154
 881 430 881 430 869 439 c 128,-1,155
 857 448 857 448 847 460 c 0,156,157
 826 485 826 485 837 489 c 0,158,159
 838 490 838 490 839 490 c 0,160,161
 909 490 909 490 979 490 c 1,162,163
 1100 556 1100 556 1100 664 c 0,164,165
 1100 767 1100 767 1030 824 c 0,166,167
 1023 830 1023 830 1014 837 c 1,168,169
 972 862 972 862 926 880 c 1,131,132
EndSplineSet
EndChar

StartChar: mA
Encoding: 3334 3334 102
Width: 2440
GlyphClass: 2
Flags: W
LayerCount: 2
Fore
SplineSet
1658.5 -288.5 m 128,-1,1
 1653 -278 1653 -278 1657 -274.5 c 128,-1,2
 1661 -271 1661 -271 1672 -277 c 0,3,4
 1769 -330 1769 -330 1907 -330 c 0,5,6
 2084 -330 2084 -330 2228 -181 c 0,7,8
 2377 -27 2377 -27 2376 220 c 0,9,10
 2376 356 2376 356 2300 463 c 0,11,12
 2258 521 2258 521 2212.5 556 c 128,-1,13
 2167 591 2167 591 2108 608 c 0,14,15
 2099 611 2099 611 2087 621.5 c 128,-1,16
 2075 632 2075 632 2066 643 c 1,17,18
 2051 665 2051 665 2063 667 c 0,19,20
 2065 667 2065 667 2068 666 c 0,21,22
 2139 645 2139 645 2210 590 c 128,-1,23
 2281 535 2281 535 2342 452 c 1,24,25
 2436 321 2436 321 2436 172 c 0,26,27
 2436 -81 2436 -81 2284 -238 c 0,28,29
 2138 -389 2138 -389 1955 -389 c 0,30,31
 1809 -389 1809 -389 1698 -329 c 0,32,33
 1687 -323 1687 -323 1675.5 -311 c 128,-1,0
 1664 -299 1664 -299 1658.5 -288.5 c 128,-1,1
2053 615 m 1,34,35
 1833 645 1833 645 1714 485 c 1,36,37
 1643 397 1643 397 1628 307 c 0,38,39
 1601 141 1601 141 1652 42 c 0,40,41
 1662 24 1662 24 1668 17.5 c 128,-1,42
 1674 11 1674 11 1688 4 c 0,43,44
 1721 -14 1721 -14 1771 -14 c 0,45,46
 1871 -14 1871 -14 1941 60 c 0,47,48
 2013 135 2013 135 2038 233 c 1,49,50
 2066 331 2066 331 2066 432 c 0,51,52
 2066 534 2066 534 2053 615 c 1,34,35
2042 668 m 1,53,54
 2021 752 2021 752 1986 799 c 0,55,56
 1952 845 1952 845 1915.5 870.5 c 128,-1,57
 1879 896 1879 896 1829 906 c 0,58,59
 1788 914 1788 914 1744 908 c 0,60,61
 1521 879 1521 879 1427 712 c 1,62,-1
 1429 -47 l 2,63,64
 1429 -60 1429 -60 1408 -45 c 0,65,66
 1404 -43 1404 -43 1400 -39 c 0,67,68
 1388 -29 1388 -29 1379 -17 c 128,-1,69
 1370 -5 1370 -5 1370 2 c 2,70,-1
 1368 758 l 1,71,72
 1343 802 1343 802 1317 828 c 0,73,74
 1289 856 1289 856 1248 877 c 0,75,76
 1174 914 1174 914 1073 914 c 0,77,78
 1037 914 1037 914 975 896 c 1,79,80
 986 890 986 890 996 883 c 0,81,82
 997 882 997 882 999 881 c 0,83,84
 1015 870 1015 870 1030 858 c 0,85,86
 1159 752 1159 752 1159 616 c 0,87,88
 1159 514 1159 514 1062 449 c 1,89,90
 1114 410 1114 410 1148 358 c 1,91,92
 1199 283 1199 283 1199 195 c 0,93,94
 1199 68 1199 68 1114 -3 c 1,95,96
 1026 -73 1026 -73 908 -73 c 0,97,98
 824 -73 824 -73 759 -50 c 0,99,100
 709 -32 709 -32 661.5 5 c 128,-1,101
 614 42 614 42 580 94 c 0,102,103
 500 215 500 215 488 403 c 0,104,105
 465 759 465 759 803 911 c 1,106,107
 765 916 765 916 728 916 c 0,108,109
 552 916 552 916 390 776 c 0,110,111
 229 637 229 637 229 358 c 0,112,113
 229 126 229 126 393 -37 c 0,114,115
 404 -49 404 -49 410 -60 c 128,-1,116
 416 -71 416 -71 412.5 -74.5 c 128,-1,117
 409 -78 409 -78 398 -72.5 c 128,-1,118
 387 -67 387 -67 375 -55 c 0,119,120
 170 150 170 150 170 407 c 0,121,122
 170 691 170 691 334 833 c 0,123,124
 499 975 499 975 679 975 c 0,125,126
 724 975 724 975 766 969 c 0,127,128
 824 961 824 961 879 941 c 1,129,130
 975 974 975 974 1025 973 c 0,131,132
 1074 973 1074 973 1118 964 c 0,133,134
 1275 933 1275 933 1382 789 c 1,135,136
 1481 940 1481 940 1693 967 c 0,137,138
 1740 973 1740 973 1785 965 c 0,139,140
 1846 953 1846 953 1909 909 c 128,-1,141
 1972 865 1972 865 2026 791 c 1,142,143
 2083 715 2083 715 2106 599 c 0,144,145
 2125 506 2125 506 2125 384 c 0,146,147
 2125 280 2125 280 2097 180 c 1,148,149
 2071 80 2071 80 1998 4 c 0,150,151
 1925 -73 1925 -73 1820 -73 c 0,152,153
 1762 -73 1762 -73 1716 -49 c 0,154,155
 1681 -31 1681 -31 1649.5 2 c 128,-1,156
 1618 35 1618 35 1600 70 c 0,157,158
 1540 184 1540 184 1569 358 c 0,159,160
 1584 452 1584 452 1657 541 c 1,161,162
 1788 717 1788 717 2038 669 c 0,163,164
 2040 668 2040 668 2042 668 c 1,53,54
926 880 m 1,165,166
 896 869 896 869 860 854 c 0,167,168
 524 705 524 705 547 356 c 0,169,170
 559 180 559 180 626 78 c 0,171,172
 642 53 642 53 663 37 c 128,-1,173
 684 21 684 21 722 7 c 0,174,175
 780 -14 780 -14 859 -14 c 0,176,177
 973 -14 973 -14 1058 54 c 1,178,179
 1140 122 1140 122 1140 243 c 0,180,181
 1140 319 1140 319 1103 374 c 0,182,183
 1089 394 1089 394 1073 407 c 256,184,185
 1057 420 1057 420 1028 431 c 1,186,-1
 888 430 l 2,187,188
 881 430 881 430 869 439 c 128,-1,189
 857 448 857 448 847 460 c 0,190,191
 826 485 826 485 837 489 c 0,192,193
 838 490 838 490 839 490 c 0,194,195
 909 490 909 490 979 490 c 1,196,197
 1100 556 1100 556 1100 664 c 0,198,199
 1100 767 1100 767 1030 824 c 0,200,201
 1023 830 1023 830 1014 837 c 1,202,203
 972 862 972 862 926 880 c 1,165,166
EndSplineSet
EndChar

StartChar: mi
Encoding: 3335 3335 103
Width: 1628
GlyphClass: 2
Flags: W
LayerCount: 2
Fore
SplineSet
277.5 513 m 128,-1,1
 266 524 266 524 259.5 535.5 c 128,-1,2
 253 547 253 547 255 551 c 0,3,4
 329 673 329 673 452 673 c 0,5,6
 465 673 465 673 478 672 c 0,7,8
 581 661 581 661 661 559 c 0,9,10
 736 463 736 463 734 348 c 0,11,12
 732 214 732 214 662 147 c 0,13,14
 603 90 603 90 500 94 c 0,15,16
 472 95 472 95 447 101 c 0,17,18
 332 124 332 124 253 231 c 1,19,20
 170 347 170 347 170 499 c 0,21,22
 170 720 170 720 318 851 c 1,23,24
 486 1002 486 1002 661 980 c 0,25,26
 776 966 776 966 883 856 c 0,27,28
 916 823 916 823 938 781 c 1,29,30
 1005 967 1005 967 1179 979 c 0,31,32
 1260 984 1260 984 1327 957 c 0,33,34
 1378 936 1378 936 1427 892 c 128,-1,35
 1476 848 1476 848 1511 790 c 1,36,37
 1624 626 1624 626 1624 418 c 0,38,39
 1624 229 1624 229 1535 93 c 256,40,41
 1446 -43 1446 -43 1287 -43 c 2,42,-1
 373 -44 l 2,43,44
 240 -45 240 -45 233 -180 c 0,45,46
 230 -246 230 -246 260 -306 c 1,47,48
 308 -330 308 -330 409 -330 c 2,49,-1
 1566 -325 l 2,50,51
 1573 -325 1573 -325 1585 -334 c 128,-1,52
 1597 -343 1597 -343 1607 -355 c 0,53,54
 1628 -380 1628 -380 1617 -384 c 0,55,56
 1616 -385 1616 -385 1615 -385 c 2,57,-1
 458 -389 l 2,58,59
 376 -389 376 -389 326.5 -376.5 c 128,-1,60
 277 -364 277 -364 232 -318 c 0,61,62
 223 -308 223 -308 218 -299 c 0,63,64
 169 -215 169 -215 174 -131 c 0,65,66
 182 15 182 15 324 15 c 2,67,-1
 1238 16 l 2,68,69
 1391 16 1391 16 1477 148 c 0,70,71
 1564 281 1564 281 1565 466 c 1,72,73
 1564 663 1564 663 1466 806 c 0,74,75
 1465 807 1465 807 1464 809 c 0,76,77
 1442 845 1442 845 1420 865 c 128,-1,78
 1398 885 1398 885 1364 900 c 0,79,80
 1305 925 1305 925 1229 919 c 0,81,82
 1033 906 1033 906 978 662 c 1,83,-1
 978 126 l 2,84,85
 978 113 978 113 956 127 c 0,86,87
 952 130 952 130 948 133 c 0,88,89
 936 143 936 143 927.5 155 c 128,-1,90
 919 167 919 167 919 174 c 2,91,-1
 919 711 l 1,92,93
 908 758 908 758 892 793 c 256,94,95
 876 828 876 828 863 841 c 0,96,97
 796 910 796 910 707 921 c 0,98,99
 539 942 539 942 374 795 c 0,100,101
 229 666 229 666 229 450 c 0,102,103
 229 313 229 313 294 222 c 1,104,105
 331 172 331 172 408 158 c 0,106,107
 429 154 429 154 452 153 c 0,108,109
 550 149 550 149 606 204 c 0,110,111
 672 268 672 268 675 397 c 1,112,113
 676 496 676 496 623 564 c 0,114,115
 591 606 591 606 524 613 c 0,116,117
 513 614 513 614 500 614 c 0,118,119
 384 614 384 614 313 496 c 0,120,121
 310 492 310 492 299.5 497 c 128,-1,0
 289 502 289 502 277.5 513 c 128,-1,1
EndSplineSet
EndChar

StartChar: mu
Encoding: 3337 3337 105
Width: 1247
GlyphClass: 2
Flags: W
LayerCount: 2
Fore
SplineSet
277.5 513 m 128,-1,1
 266 524 266 524 259.5 535.5 c 128,-1,2
 253 547 253 547 255 551 c 0,3,4
 329 673 329 673 452 673 c 0,5,6
 465 673 465 673 478 672 c 0,7,8
 581 661 581 661 661 559 c 0,9,10
 736 463 736 463 734 348 c 0,11,12
 732 214 732 214 662 147 c 0,13,14
 603 90 603 90 500 94 c 0,15,16
 472 95 472 95 447 101 c 0,17,18
 332 124 332 124 253 231 c 1,19,20
 170 347 170 347 170 499 c 0,21,22
 170 739 170 739 316 862 c 0,23,24
 459 983 459 983 667 983 c 0,25,26
 801 983 801 983 906 942.5 c 128,-1,27
 1011 902 1011 902 1093 806 c 0,28,29
 1237 640 1237 640 1237 421 c 0,30,31
 1237 234 1237 234 1142 96 c 0,32,33
 1049 -39 1049 -39 894 -40 c 2,34,-1
 373 -44 l 2,35,36
 250 -45 250 -45 233 -181 c 0,37,38
 226 -240 226 -240 259 -306 c 1,39,40
 308 -330 308 -330 409 -330 c 2,41,-1
 1187 -330 l 2,42,43
 1194 -330 1194 -330 1206.5 -338.5 c 128,-1,44
 1219 -347 1219 -347 1229 -359 c 0,45,46
 1249 -384 1249 -384 1238 -388 c 0,47,48
 1237 -389 1237 -389 1236 -389 c 2,49,-1
 458 -389 l 2,50,51
 376 -389 376 -389 326 -376.5 c 128,-1,52
 276 -364 276 -364 232 -318 c 0,53,54
 223 -308 223 -308 218 -299 c 0,55,56
 165 -206 165 -206 174 -130 c 0,57,58
 192 14 192 14 324 15 c 2,59,-1
 845 19 l 2,60,61
 994 20 994 20 1085 151 c 1,62,63
 1178 287 1178 287 1178 469 c 0,64,65
 1178 670 1178 670 1063 802 c 0,66,67
 1017 855 1017 855 928.5 889.5 c 128,-1,68
 840 924 840 924 716 924 c 0,69,70
 512 924 512 924 372 805 c 1,71,72
 229 685 229 685 229 450 c 0,73,74
 229 313 229 313 294 222 c 1,75,76
 331 172 331 172 408 158 c 0,77,78
 429 154 429 154 452 153 c 0,79,80
 550 149 550 149 606 204 c 0,81,82
 672 268 672 268 674 397 c 0,83,84
 676 496 676 496 623 564 c 0,85,86
 591 606 591 606 524 613 c 0,87,88
 513 614 513 614 500 614 c 0,89,90
 384 614 384 614 313 496 c 0,91,92
 310 492 310 492 299.5 497 c 128,-1,0
 289 502 289 502 277.5 513 c 128,-1,1
EndSplineSet
EndChar

StartChar: m_r
Encoding: 3339 3339 107
Width: 1398
GlyphClass: 2
Flags: W
LayerCount: 2
Fore
SplineSet
1282 552 m 128,-1,1
 1294 541 1294 541 1300.5 529.5 c 128,-1,2
 1307 518 1307 518 1304 513 c 0,3,4
 1225 379 1225 379 1099 379 c 0,5,6
 1073 379 1073 379 1050 384 c 0,7,8
 960 403 960 403 891 496 c 0,9,10
 822 590 822 590 822 712 c 0,11,12
 822 826 822 826 886 903 c 256,13,14
 950 980 950 980 1054 980 c 0,15,16
 1104 980 1104 980 1147 964 c 0,17,18
 1191 948 1191 948 1235.5 911 c 128,-1,19
 1280 874 1280 874 1312 824 c 0,20,21
 1393 699 1393 699 1393 537 c 0,22,23
 1393 268 1393 268 1210 168 c 1,24,25
 1248 150 1248 150 1281 123 c 0,26,27
 1393 32 1393 32 1393 -107 c 0,28,29
 1393 -191 1393 -191 1350 -252 c 0,30,31
 1306 -313 1306 -313 1242 -347 c 0,32,33
 1180 -381 1180 -381 1095 -400 c 1,34,35
 1011 -421 1011 -421 943 -428 c 1,36,37
 878 -432 878 -432 809 -432 c 128,-1,38
 740 -432 740 -432 674 -428 c 1,39,40
 608 -421 608 -421 521 -400 c 1,41,42
 432 -380 432 -380 364 -344 c 0,43,44
 282 -301 282 -301 223 -219 c 1,45,46
 170 -148 170 -148 170 -59 c 0,47,48
 170 130 170 130 364 188 c 1,49,50
 347 199 347 199 332 211 c 0,51,52
 243 284 243 284 206.5 376.5 c 128,-1,53
 170 469 170 469 170 586 c 0,54,55
 170 741 170 741 247 860 c 0,56,57
 325 980 325 980 460 980 c 0,58,59
 578 980 578 980 665 875 c 0,60,61
 741 784 741 784 741 663 c 0,62,63
 741 546 741 546 681 462 c 0,64,65
 621 379 621 379 513 379 c 0,66,67
 465 379 465 379 422 399 c 256,68,69
 379 419 379 419 337 460.5 c 128,-1,70
 295 502 295 502 266 552 c 0,71,72
 260 564 260 564 262.5 568.5 c 128,-1,73
 265 573 265 573 275.5 568 c 128,-1,74
 286 563 286 563 298 551.5 c 128,-1,75
 310 540 310 540 316 529 c 0,76,77
 336 495 336 495 352 479.5 c 128,-1,78
 368 464 368 464 391 453 c 0,79,80
 423 438 423 438 464 438 c 0,81,82
 566 438 566 438 624 518 c 0,83,84
 682 599 682 599 682 712 c 0,85,86
 682 764 682 764 667.5 806.5 c 128,-1,87
 653 849 653 849 632 874 c 0,88,89
 594 921 594 921 509 921 c 0,90,91
 380 921 380 921 305 805 c 0,92,93
 229 689 229 689 229 537 c 0,94,95
 229 429 229 429 258.5 355 c 128,-1,96
 288 281 288 281 332 245 c 0,97,98
 364 219 364 219 411 199 c 1,99,100
 502 226 502 226 626 234 c 1,101,-1
 760 232 l 2,102,103
 868 230 868 230 933 226 c 0,104,105
 1028 220 1028 220 1104 203 c 1,106,107
 1334 289 1334 289 1334 586 c 0,108,109
 1334 736 1334 736 1266 841 c 0,110,111
 1249 868 1249 868 1231.5 882 c 128,-1,112
 1214 896 1214 896 1184 907 c 0,113,114
 1148 921 1148 921 1103 921 c 0,115,116
 1005 921 1005 921 943 847 c 0,117,118
 881 772 881 772 881 663 c 0,119,120
 881 555 881 555 933 486 c 1,121,122
 955 454 955 454 1002 443 c 0,123,124
 1024 438 1024 438 1051 438 c 0,125,126
 1170 438 1170 438 1247 568 c 0,127,128
 1249 573 1249 573 1259.5 568 c 128,-1,0
 1270 563 1270 563 1282 552 c 128,-1,1
460 139 m 0,129,130
 229 94 229 94 229 -107 c 0,131,132
 229 -182 229 -182 264 -228 c 1,133,134
 293 -269 293 -269 337 -292 c 0,135,136
 396 -323 396 -323 478 -341 c 1,137,138
 563 -362 563 -362 627 -368 c 1,139,140
 692 -373 692 -373 760.5 -373 c 128,-1,141
 829 -373 829 -373 893 -368 c 0,142,143
 959 -362 959 -362 1043 -341 c 1,144,145
 1126 -323 1126 -323 1187 -289 c 1,146,147
 1249 -256 1249 -256 1293 -196 c 1,148,149
 1334 -138 1334 -138 1334 -59 c 0,150,151
 1334 -2 1334 -2 1317.5 35.5 c 128,-1,152
 1301 73 1301 73 1281 89 c 0,153,154
 1237 125 1237 125 1150 144 c 1,155,156
 1150 144 1150 144 1150 144 c 1,157,158
 1075 161 1075 161 980 167 c 0,159,160
 916 171 916 171 809 173 c 2,161,-1
 675 175 l 1,162,163
 551 167 551 167 461 140 c 1,164,165
 461 140 461 140 460 139 c 0,129,130
EndSplineSet
EndChar

StartChar: m_l
Encoding: 3340 3340 108
Width: 1749
GlyphClass: 2
Flags: W
LayerCount: 2
Fore
SplineSet
354 734 m 1,0,1
 229 568 229 568 229 351 c 0,2,3
 229 203 229 203 302 89 c 0,4,5
 311 74 311 74 321 62 c 0,6,7
 364 10 364 10 438 10 c 0,8,9
 562 10 562 10 635 109 c 0,10,11
 703 200 703 200 692 407 c 0,12,13
 688 483 688 483 666 538 c 128,-1,14
 644 593 644 593 617 618 c 1,15,16
 591 644 591 644 536 662.5 c 128,-1,17
 481 681 481 681 408 679 c 0,18,19
 402 679 402 679 389.5 688 c 128,-1,20
 377 697 377 697 367 709 c 0,21,22
 354 724 354 724 354 734 c 1,0,1
358 739 m 1,23,24
 440 740 440 740 505.5 718.5 c 128,-1,25
 571 697 571 697 631 640 c 0,26,27
 693 581 693 581 719.5 513 c 128,-1,28
 746 445 746 445 751 359 c 0,29,30
 762 147 762 147 692 53 c 1,31,32
 617 -50 617 -50 486 -50 c 0,33,34
 378 -50 378 -50 287 63 c 0,35,36
 269 84 269 84 254 108 c 0,37,38
 170 240 170 240 170 400 c 0,39,40
 170 626 170 626 302 795 c 1,41,42
 447 986 447 986 635 965 c 1,43,44
 797 948 797 948 936 791 c 1,45,46
 1028 940 1028 940 1207 952 c 1,47,48
 1437 966 1437 966 1591 783 c 0,49,50
 1598 774 1598 774 1605 765 c 0,51,52
 1745 583 1745 583 1745 351 c 0,53,54
 1745 195 1745 195 1665 71 c 1,55,56
 1588 -52 1588 -52 1448 -52 c 0,57,58
 1331 -52 1331 -52 1240 59 c 0,59,60
 1220 83 1220 83 1203 112 c 0,61,62
 1129 238 1129 238 1143 384 c 0,63,64
 1158 542 1158 542 1271 627 c 0,65,66
 1397 722 1397 722 1515 680 c 0,67,68
 1524 676 1524 676 1536.5 665.5 c 128,-1,69
 1549 655 1549 655 1557 643 c 0,70,71
 1570 622 1570 622 1558 622 c 1,72,73
 1556 621 1556 621 1552 623 c 0,74,75
 1447 660 1447 660 1326 570 c 1,76,77
 1217 487 1217 487 1202 333 c 0,78,79
 1189 198 1189 198 1253 89 c 0,80,81
 1263 72 1263 72 1274 59 c 0,82,83
 1316 7 1316 7 1400 7 c 0,84,85
 1533 7 1533 7 1608 126 c 0,86,87
 1685 248 1685 248 1685 400 c 0,88,89
 1685 616 1685 616 1567 770 c 0,90,91
 1563 776 1563 776 1559 781 c 0,92,93
 1512 837 1512 837 1436 868 c 128,-1,94
 1360 899 1360 899 1257 892 c 0,95,96
 1078 881 1078 881 989 729 c 0,97,98
 989 728 989 728 990 728 c 0,99,100
 991 723 991 723 992.5 715.5 c 128,-1,101
 994 708 994 708 994.5 704 c 128,-1,102
 995 700 995 700 995.5 690 c 128,-1,103
 996 680 996 680 996 676.5 c 128,-1,104
 996 673 996 673 996 660 c 128,-1,105
 996 647 996 647 996 643 c 2,106,-1
 996 -27 l 2,107,108
 996 -39 996 -39 974 -25 c 0,109,110
 970 -22 970 -22 966 -19 c 0,111,112
 954 -9 954 -9 945.5 3 c 128,-1,113
 937 15 937 15 937 22 c 2,114,-1
 937 691 l 2,115,116
 937 731 937 731 934 753 c 1,117,118
 883 820 883 820 823 859 c 1,119,120
 762 897 762 897 682 906 c 0,121,122
 501 926 501 926 359 740 c 1,123,124
 359 740 359 740 358 739 c 1,23,24
EndSplineSet
EndChar

StartChar: me
Encoding: 3342 3342 109
Width: 2009
GlyphClass: 2
Flags: W
LayerCount: 2
Fore
SplineSet
1703.5 -396.5 m 128,-1,1
 1692 -385 1692 -385 1686.5 -374 c 128,-1,2
 1681 -363 1681 -363 1685 -360 c 0,3,4
 1945 -128 1945 -128 1945 312 c 0,5,6
 1945 465 1945 465 1912.5 588.5 c 128,-1,7
 1880 712 1880 712 1821 796 c 0,8,9
 1809 814 1809 814 1796 829 c 0,10,11
 1697 948 1697 948 1539 939 c 0,12,13
 1337 927 1337 927 1225 750 c 1,14,15
 1117 575 1117 575 1120 389 c 2,16,-1
 1127 -8 l 1,17,18
 1127 -143 1127 -143 1152 -232 c 1,19,20
 1176 -331 1176 -331 1218 -376 c 1,21,22
 1246 -394 1246 -394 1308 -398 c 1,23,24
 1396 -402 1396 -402 1446 -342 c 1,25,26
 1494 -268 1494 -268 1494 -140 c 2,27,-1
 1494 -1 l 2,28,29
 1494 0 1494 0 1494 0 c 1,30,31
 1488 11 1488 11 1492 15 c 0,32,33
 1493 16 1493 16 1494 16 c 1,34,-1
 1494 708 l 2,35,36
 1494 721 1494 721 1516 706 c 0,37,38
 1520 704 1520 704 1524 701 c 0,39,40
 1536 691 1536 691 1545 678.5 c 128,-1,41
 1554 666 1554 666 1554 659 c 2,42,-1
 1554 -189 l 2,43,44
 1554 -320 1554 -320 1503 -397 c 1,45,46
 1450 -462 1450 -462 1355 -457 c 0,47,48
 1306 -454 1306 -454 1269.5 -442 c 128,-1,49
 1233 -430 1233 -430 1197 -391 c 1,50,51
 1124 -315 1124 -315 1094 -190 c 1,52,53
 1067 -98 1067 -98 1067 40 c 1,54,-1
 1061 437 l 2,55,56
 1058 627 1058 627 1167 806 c 1,57,58
 1282 986 1282 986 1489 998 c 0,59,60
 1679 1009 1679 1009 1828 831 c 0,61,62
 1847 808 1847 808 1865 783 c 0,63,64
 2005 584 2005 584 2005 263 c 0,65,66
 2005 -182 2005 -182 1741 -417 c 0,67,68
 1738 -420 1738 -420 1726.5 -414 c 128,-1,0
 1715 -408 1715 -408 1703.5 -396.5 c 128,-1,1
312 -63 m 0,69,70
 306 -59 306 -59 300 -54 c 0,71,72
 229 8 229 8 200 80 c 0,73,74
 170 153 170 153 170 241 c 0,75,76
 170 395 170 395 259 481 c 0,77,78
 345 564 345 564 449 564 c 0,79,80
 581 564 581 564 686 462 c 0,81,82
 745 405 745 405 771 341.5 c 128,-1,83
 797 278 797 278 802 202 c 0,84,85
 809 92 809 92 772 19 c 1,86,-1
 1502 20 l 2,87,88
 1509 20 1509 20 1521 11.5 c 128,-1,89
 1533 3 1533 3 1543 -9 c 0,90,91
 1564 -34 1564 -34 1553 -38 c 0,92,93
 1552 -39 1552 -39 1551 -39 c 2,94,-1
 726 -40 l 2,95,96
 714 -40 714 -40 693 -19 c 0,97,98
 681 -8 681 -8 675.5 3 c 128,-1,99
 670 14 670 14 673 18 c 0,100,101
 752 94 752 94 743 250 c 0,102,103
 739 317 739 317 718 367 c 128,-1,104
 697 417 697 417 670 442 c 1,105,106
 643 469 643 469 598.5 487 c 128,-1,107
 554 505 554 505 498 505 c 0,108,109
 399 505 399 505 315 424 c 0,110,111
 229 341 229 341 229 192 c 0,112,113
 229 113 229 113 252 57 c 0,114,115
 274 4 274 4 304 -24 c 0,116,117
 307 -26 307 -26 310 -28 c 1,118,119
 313 -32 313 -32 317 -36 c 0,120,121
 325 -45 325 -45 330 -54 c 0,122,123
 331 -55 331 -55 331 -56 c 0,124,125
 332 -57 332 -57 332 -58 c 0,126,127
 334 -64 334 -64 333 -67 c 0,128,129
 331 -76 331 -76 312 -63 c 0,69,70
EndSplineSet
EndChar

StartChar: mE
Encoding: 3343 3343 110
Width: 2082
GlyphClass: 2
Flags: W
LayerCount: 2
Fore
SplineSet
1522 700 m 0,0,1
 1534 690 1534 690 1543 678 c 128,-1,2
 1552 666 1552 666 1552 659 c 2,3,-1
 1554 -189 l 2,4,5
 1554 -441 1554 -441 1379 -464 c 0,6,7
 1378 -465 1378 -465 1377 -465 c 0,8,9
 1296 -461 1296 -461 1231 -408 c 0,10,11
 1149 -340 1149 -340 1119 -239.5 c 128,-1,12
 1089 -139 1089 -139 1089 11 c 1,13,-1
 1083 400 l 2,14,15
 1080 607 1080 607 1189 785 c 1,16,17
 1312 979 1312 979 1512 978 c 0,18,19
 1620 977 1620 977 1712 940.5 c 128,-1,20
 1804 904 1804 904 1886 820 c 0,21,22
 2038 666 2038 666 2038 494 c 0,23,24
 2038 343 2038 343 1921 265 c 1,25,26
 1987 218 1987 218 2026 144 c 0,27,28
 2078 45 2078 45 2078 -79 c 0,29,30
 2078 -230 2078 -230 2005 -343 c 1,31,32
 1929 -456 1929 -456 1796 -456 c 0,33,34
 1742 -456 1742 -456 1721 -449 c 1,35,36
 1695 -445 1695 -445 1670 -408 c 0,37,38
 1656 -387 1656 -387 1667 -386 c 0,39,40
 1670 -385 1670 -385 1673 -386 c 0,41,42
 1677 -388 1677 -388 1685 -393 c 1,43,44
 1704 -397 1704 -397 1748 -397 c 0,45,46
 1874 -397 1874 -397 1947 -288 c 1,47,48
 2018 -178 2018 -178 2018 -30 c 0,49,50
 2018 85 2018 85 1974 171 c 1,51,52
 1959 198 1959 198 1947.5 210 c 128,-1,53
 1936 222 1936 222 1917 232 c 0,54,55
 1901 241 1901 241 1881 246 c 0,56,57
 1867 249 1867 249 1848 269 c 0,58,59
 1837 281 1837 281 1832.5 291 c 128,-1,60
 1828 301 1828 301 1833 304 c 0,61,62
 1978 378 1978 378 1978 543 c 0,63,64
 1978 690 1978 690 1866 804 c 0,65,66
 1816 856 1816 856 1738 887 c 128,-1,67
 1660 918 1660 918 1560 918 c 1,68,69
 1367 920 1367 920 1247 730 c 1,70,71
 1139 555 1139 555 1142 351 c 2,72,-1
 1148 -37 l 1,73,74
 1148 -172 1148 -172 1174.5 -260.5 c 128,-1,75
 1201 -349 1201 -349 1231 -374 c 0,76,77
 1266 -402 1266 -402 1329 -405 c 1,78,79
 1495 -382 1495 -382 1494 -141 c 1,80,-1
 1494 -1 l 2,81,82
 1494 0 1494 0 1494 0 c 1,83,84
 1488 11 1488 11 1492 14 c 0,85,86
 1493 15 1493 15 1494 16 c 1,87,-1
 1492 708 l 2,88,89
 1492 720 1492 720 1514 706 c 0,90,91
 1518 704 1518 704 1522 700 c 0,0,1
312 -63 m 0,92,93
 306 -59 306 -59 300 -54 c 0,94,95
 229 8 229 8 200 80 c 0,96,97
 170 153 170 153 170 241 c 0,98,99
 170 395 170 395 259 481 c 0,100,101
 345 564 345 564 449 564 c 0,102,103
 581 564 581 564 686 462 c 0,104,105
 745 405 745 405 771 341.5 c 128,-1,106
 797 278 797 278 802 202 c 0,107,108
 809 92 809 92 772 19 c 1,109,-1
 1502 20 l 2,110,111
 1509 20 1509 20 1521 11.5 c 128,-1,112
 1533 3 1533 3 1543 -9 c 0,113,114
 1564 -34 1564 -34 1553 -38 c 0,115,116
 1552 -39 1552 -39 1551 -39 c 2,117,-1
 726 -40 l 2,118,119
 714 -40 714 -40 693 -19 c 0,120,121
 681 -8 681 -8 675.5 3 c 128,-1,122
 670 14 670 14 673 18 c 0,123,124
 752 94 752 94 743 250 c 0,125,126
 739 317 739 317 718 367 c 128,-1,127
 697 417 697 417 670 442 c 1,128,129
 643 469 643 469 598.5 487 c 128,-1,130
 554 505 554 505 498 505 c 0,131,132
 399 505 399 505 315 424 c 0,133,134
 229 341 229 341 229 192 c 0,135,136
 229 113 229 113 252 57 c 0,137,138
 274 4 274 4 304 -24 c 0,139,140
 307 -26 307 -26 310 -28 c 1,141,142
 313 -32 313 -32 317 -36 c 0,143,144
 325 -45 325 -45 330 -54 c 0,145,146
 331 -55 331 -55 331 -56 c 0,147,148
 332 -57 332 -57 332 -58 c 0,149,150
 334 -64 334 -64 333 -67 c 0,151,152
 331 -76 331 -76 312 -63 c 0,92,93
EndSplineSet
EndChar

StartChar: mo
Encoding: 3346 3346 112
Width: 1204
GlyphClass: 2
Flags: W
LayerCount: 2
Fore
SplineSet
246 420 m 1,0,-1
 252 421 l 1,1,2
 341 568 341 568 473 568 c 0,3,4
 508 568 508 568 539 559 c 0,5,6
 627 534 627 534 692 441 c 0,7,8
 763 339 763 339 763 214 c 0,9,10
 763 96 763 96 698 9 c 1,11,12
 635 -77 635 -77 512 -77 c 0,13,14
 469 -77 469 -77 429 -62 c 0,15,16
 384 -45 384 -45 338 -4.5 c 128,-1,17
 292 36 292 36 258 89 c 0,18,19
 170 227 170 227 170 407 c 0,20,21
 170 691 170 691 334 833 c 0,22,23
 499 975 499 975 679 975 c 0,24,25
 849 975 849 975 996 884 c 0,26,27
 1025 865 1025 865 1051 845 c 1,28,29
 1175 743 1175 743 1175 621 c 0,30,31
 1175 521 1175 521 1062 449 c 1,32,33
 1114 410 1114 410 1148 358 c 1,34,35
 1199 283 1199 283 1199 195 c 0,36,37
 1199 68 1199 68 1114 -3 c 1,38,39
 1026 -73 1026 -73 908 -73 c 0,40,41
 865 -73 865 -73 844 -71 c 128,-1,42
 823 -69 823 -69 805 -60 c 0,43,44
 794 -54 794 -54 782 -42.5 c 128,-1,45
 770 -31 770 -31 764 -20 c 0,46,47
 759 -10 759 -10 761 -5.5 c 128,-1,48
 763 -1 763 -1 774 -6 c 0,49,50
 794 -14 794 -14 859 -14 c 0,51,52
 973 -14 973 -14 1058 54 c 1,53,54
 1140 122 1140 122 1140 243 c 0,55,56
 1140 319 1140 319 1103 374 c 0,57,58
 1089 394 1089 394 1073 408 c 1,59,60
 1057 420 1057 420 1028 431 c 1,61,62
 958 431 958 431 888 430 c 0,63,64
 881 430 881 430 869 439 c 128,-1,65
 857 448 857 448 847 460 c 0,66,67
 826 485 826 485 837 489 c 0,68,69
 838 490 838 490 839 490 c 0,70,71
 909 490 909 490 979 490 c 1,72,73
 1116 564 1116 564 1116 670 c 0,74,75
 1116 758 1116 758 1052 810 c 0,76,77
 1036 823 1036 823 1016 835 c 0,78,79
 886 916 886 916 728 916 c 0,80,81
 552 916 552 916 390 776 c 0,82,83
 229 637 229 637 229 358 c 0,84,85
 229 190 229 190 305 71 c 0,86,87
 326 39 326 39 345 22 c 128,-1,88
 364 5 364 5 393 -6 c 0,89,90
 425 -18 425 -18 463 -18 c 0,91,92
 580 -18 580 -18 641 64 c 0,93,94
 704 149 704 149 704 262 c 256,95,96
 704 375 704 375 648 454 c 0,97,98
 636 471 636 471 622.5 481.5 c 128,-1,99
 609 492 609 492 583 500 c 0,100,101
 555 509 555 509 522 509 c 0,102,103
 393 509 393 509 307 360 c 0,104,105
 306 359 306 359 305 358 c 0,106,107
 301 355 301 355 289.5 362 c 128,-1,108
 278 369 278 369 267 380 c 1,109,-1
 263 385 l 1,110,111
 251 396 251 396 246.5 406.5 c 128,-1,112
 242 417 242 417 246 420 c 1,0,-1
EndSplineSet
EndChar

StartChar: mk
Encoding: 3349 3349 115
Width: 1609
GlyphClass: 2
Flags: W
AnchorPoint: "Anchor-0" 866 1111 basechar 0
LayerCount: 2
Fore
SplineSet
673 107 m 1,0,1
 690 70 690 70 710 46 c 0,2,3
 756 -10 756 -10 850 -10 c 0,4,5
 943 -10 943 -10 1021 87 c 0,6,7
 1090 173 1090 173 1116 277 c 1,8,9
 1131 342 1131 342 1133 500 c 1,10,-1
 622 497 l 1,11,-1
 621 369 l 1,12,13
 633 197 633 197 671 120 c 0,14,15
 675 112 675 112 673 107 c 1,0,1
562 500 m 1,16,17
 533 502 533 502 462 498 c 1,18,19
 423 494 423 494 374 479 c 1,20,21
 325 467 325 467 297 440 c 1,22,23
 268 414 268 414 250 364 c 1,24,25
 229 315 229 315 229 245 c 0,26,27
 229 128 229 128 290 49 c 1,28,29
 337 -10 337 -10 429 -10 c 0,30,31
 488 -10 488 -10 536 39 c 0,32,33
 586 89 586 89 612 160 c 1,34,35
 573 247 573 247 562 417 c 1,36,-1
 562 500 l 1,16,17
1132 559 m 1,37,38
 1118 719 1118 719 1051 833 c 0,39,40
 1042 848 1042 848 1032 860 c 0,41,42
 987 916 987 916 890 916 c 0,43,44
 758 916 758 916 691 790 c 1,45,46
 634 687 634 687 624 557 c 1,47,-1
 1132 559 l 1,37,38
1193 500 m 1,48,49
 1193 301 1193 301 1175 224 c 1,50,51
 1148 118 1148 118 1078 31 c 0,52,53
 997 -69 997 -69 899 -69 c 0,54,55
 770 -69 770 -69 675 47 c 0,56,57
 666 59 666 59 656 72 c 1,58,59
 631 21 631 21 593 -17 c 0,60,61
 542 -69 542 -69 478 -69 c 0,62,63
 349 -69 349 -69 253 53 c 0,64,65
 170 160 170 160 170 294 c 0,66,67
 170 367 170 367 191 418 c 1,68,69
 210 469 210 469 241 497 c 1,70,71
 270 525 270 525 322 538 c 1,72,73
 371 553 371 553 411 557 c 1,74,75
 484 561 484 561 514 559 c 2,76,-1
 563 557 l 1,77,78
 564 720 564 720 633 845 c 1,79,80
 702 975 702 975 841 975 c 0,81,82
 972 975 972 975 1066 859 c 0,83,84
 1085 836 1085 836 1100 811 c 0,85,86
 1166 700 1166 700 1186 559 c 1,87,-1
 1275 559 l 2,88,89
 1279 559 1279 559 1286 556 c 1,90,91
 1420 550 1420 550 1511 451 c 0,92,93
 1563 395 1563 395 1584 336.5 c 128,-1,94
 1605 278 1605 278 1605 207 c 0,95,96
 1605 94 1605 94 1536 10 c 0,97,98
 1469 -73 1469 -73 1362 -73 c 0,99,100
 1359 -73 1359 -73 1354 -73 c 0,101,102
 1329 -73 1329 -73 1316.5 -72 c 128,-1,103
 1304 -71 1304 -71 1286 -64.5 c 128,-1,104
 1268 -58 1268 -58 1250 -45 c 0,105,106
 1238 -36 1238 -36 1228.5 -23.5 c 128,-1,107
 1219 -11 1219 -11 1218 -3 c 0,108,109
 1217 4 1217 4 1223 4 c 0,110,111
 1230 4 1230 4 1242 -4 c 1,112,113
 1262 -14 1262 -14 1313 -14 c 0,114,115
 1414 -14 1414 -14 1479 66 c 0,116,117
 1546 147 1546 147 1546 256 c 0,118,119
 1546 318 1546 318 1528.5 366 c 128,-1,120
 1511 414 1511 414 1487 440 c 0,121,122
 1466 463 1466 463 1424 480 c 128,-1,123
 1382 497 1382 497 1322 497 c 1,124,-1
 1322 497 l 1,125,126
 1318 497 1318 497 1311 500 c 1,127,-1
 1193 500 l 1,48,49
EndSplineSet
EndChar

StartChar: mK
Encoding: 3350 3350 116
Width: 1605
GlyphClass: 2
Flags: W
AnchorPoint: "Anchor-0" 941 1111 basechar 0
LayerCount: 2
Fore
SplineSet
242 485 m 1,0,1
 314 594 314 594 461 594 c 0,2,3
 498 594 498 594 530 586 c 0,4,5
 572 575 572 575 615.5 545 c 128,-1,6
 659 515 659 515 694 467 c 0,7,8
 768 362 768 362 768 209 c 0,9,10
 768 92 768 92 703 6 c 0,11,12
 640 -77 640 -77 504 -77 c 0,13,14
 454 -77 454 -77 410 -62 c 1,15,16
 367 -46 367 -46 323.5 -10 c 128,-1,17
 280 26 280 26 248 75 c 0,18,19
 170 198 170 198 170 374 c 0,20,21
 170 447 170 447 179 511 c 0,22,23
 205 706 205 706 311 823 c 1,24,25
 453 975 453 975 653 975 c 0,26,27
 856 975 856 975 1015 828 c 0,28,29
 1104 746 1104 746 1142.5 651.5 c 128,-1,30
 1181 557 1181 557 1181 445 c 0,31,32
 1181 187 1181 187 1052 11 c 1,33,-1
 1541 11 l 1,34,-1
 1541 949 l 2,35,36
 1541 962 1541 962 1563 947 c 0,37,38
 1567 945 1567 945 1571 942 c 0,39,40
 1583 932 1583 932 1591.5 919.5 c 128,-1,41
 1600 907 1600 907 1600 900 c 2,42,-1
 1600 -43 l 2,43,44
 1600 -48 1600 -48 1595 -48 c 2,45,-1
 1000 -48 l 2,46,47
 988 -48 988 -48 967 -27 c 0,48,49
 955 -16 955 -16 949.5 -5 c 128,-1,50
 944 6 944 6 947 10 c 0,51,52
 1122 196 1122 196 1122 493 c 0,53,54
 1122 597 1122 597 1090 675.5 c 128,-1,55
 1058 754 1058 754 1004 803 c 1,56,57
 883 916 883 916 702 916 c 0,58,59
 507 916 507 916 368 766 c 0,60,61
 271 660 271 660 242 485 c 1,0,1
235 436 m 1,62,63
 229 383 229 383 229 325 c 0,64,65
 229 161 229 161 295 57 c 0,66,67
 311 33 311 33 327.5 19 c 128,-1,68
 344 5 344 5 374 -5 c 0,69,70
 411 -18 411 -18 455 -18 c 0,71,72
 585 -18 585 -18 646 62 c 0,73,74
 709 145 709 145 709 258 c 0,75,76
 709 397 709 397 652 478 c 0,77,78
 626 514 626 514 572 528 c 0,79,80
 543 535 543 535 510 535 c 0,81,82
 352 535 352 535 284 404 c 0,83,84
 282 400 282 400 271.5 404.5 c 128,-1,85
 261 409 261 409 249 420 c 0,86,87
 242 427 242 427 235 436 c 1,62,63
EndSplineSet
EndChar

StartChar: mg
Encoding: 3351 3351 117
Width: 1486
GlyphClass: 2
Flags: W
AnchorPoint: "Anchor-0" 861 1111 basechar 0
LayerCount: 2
Fore
SplineSet
1170.5 -54 m 128,-1,1
 1159 -42 1159 -42 1154.5 -31.5 c 128,-1,2
 1150 -21 1150 -21 1154 -19 c 0,3,4
 1279 58 1279 58 1349 194 c 0,5,6
 1422 338 1422 338 1422 506 c 0,7,8
 1422 690 1422 690 1336 811 c 0,9,10
 1328 823 1328 823 1320 832 c 0,11,12
 1258 908 1258 908 1154 908 c 0,13,14
 1037 908 1037 908 939 808 c 0,15,16
 865 732 865 732 854 520 c 2,17,-1
 849 415 l 1,18,-1
 849 321 l 1,19,20
 846 127 846 127 775 21 c 1,21,22
 710 -73 710 -73 569 -73 c 0,23,24
 482 -73 482 -73 414 -41 c 0,25,26
 368 -19 368 -19 325 22 c 128,-1,27
 282 63 282 63 255 112 c 0,28,29
 170 262 170 262 170 466 c 0,30,31
 170 822 170 822 424 970 c 0,32,33
 429 973 429 973 440.5 966.5 c 128,-1,34
 452 960 452 960 463 948 c 128,-1,35
 474 936 474 936 479 925.5 c 128,-1,36
 484 915 484 915 479 913 c 0,37,38
 229 767 229 767 229 417 c 0,39,40
 229 223 229 223 306 87 c 0,41,42
 322 58 322 58 338.5 42.5 c 128,-1,43
 355 27 355 27 383 13 c 0,44,45
 440 -14 440 -14 520 -14 c 0,46,47
 655 -14 655 -14 718 77 c 1,48,49
 787 180 787 180 790 370 c 1,50,-1
 790 465 l 1,51,-1
 795 569 l 2,52,53
 806 786 806 786 882 865 c 1,54,55
 984 967 984 967 1105 967 c 0,56,57
 1244 967 1244 967 1355 832 c 0,58,59
 1367 816 1367 816 1379 799 c 0,60,61
 1481 655 1481 655 1481 457 c 0,62,63
 1481 285 1481 285 1407 139 c 1,64,65
 1336 2 1336 2 1209 -76 c 0,66,67
 1205 -79 1205 -79 1193.5 -72.5 c 128,-1,0
 1182 -66 1182 -66 1170.5 -54 c 128,-1,1
EndSplineSet
EndChar

StartChar: mH
Encoding: 3353 3353 119
Width: 1600
GlyphClass: 2
Flags: W
AnchorPoint: "Anchor-0" 907 1111 basechar 0
LayerCount: 2
Fore
SplineSet
239 405 m 1,0,1
 235 415 235 415 237.5 418.5 c 128,-1,2
 240 422 240 422 248 419 c 1,3,4
 338 568 338 568 469 568 c 0,5,6
 504 568 504 568 536 559 c 0,7,8
 574 548 574 548 614.5 519 c 128,-1,9
 655 490 655 490 687 444 c 0,10,11
 757 344 757 344 757 220 c 0,12,13
 757 98 757 98 690 11 c 0,14,15
 623 -77 623 -77 496 -77 c 0,16,17
 451 -77 451 -77 411 -63 c 0,18,19
 368 -48 368 -48 324.5 -11.5 c 128,-1,20
 281 25 281 25 249 74 c 0,21,22
 248 75 248 75 248 76 c 0,23,24
 170 200 170 200 170 374 c 0,25,26
 170 694 170 694 287 818 c 1,27,28
 433 975 433 975 638 975 c 0,29,30
 665 975 665 975 689 971 c 0,31,32
 744 961 744 961 799.5 924 c 128,-1,33
 855 887 855 887 901 825 c 1,34,35
 1003 971 1003 971 1201 971 c 0,36,37
 1329 971 1329 971 1449 880 c 0,38,39
 1522 825 1522 825 1555 763 c 128,-1,40
 1588 701 1588 701 1587 640 c 0,41,42
 1584 526 1584 526 1462 451 c 1,43,44
 1512 413 1512 413 1546 363 c 0,45,46
 1595 289 1595 289 1595 209 c 0,47,48
 1595 72 1595 72 1493 -3 c 0,49,50
 1392 -77 1392 -77 1272 -77 c 0,51,52
 1209 -77 1209 -77 1167 -61 c 0,53,54
 1158 -57 1158 -57 1145.5 -46 c 128,-1,55
 1133 -35 1133 -35 1126 -24 c 0,56,57
 1113 -4 1113 -4 1125 -3 c 0,58,59
 1128 -3 1128 -3 1132 -5 c 0,60,61
 1165 -18 1165 -18 1223 -18 c 0,62,63
 1339 -18 1339 -18 1438 55 c 0,64,65
 1536 127 1536 127 1536 258 c 0,66,67
 1536 325 1536 325 1501 378 c 0,68,69
 1477 413 1477 413 1430 435 c 1,70,-1
 1310 434 l 2,71,72
 1303 433 1303 433 1291 442 c 128,-1,73
 1279 451 1279 451 1269 463 c 0,74,75
 1248 488 1248 488 1259 492 c 0,76,77
 1260 493 1260 493 1261 493 c 0,78,79
 1322 494 1322 494 1382 494 c 1,80,81
 1524 570 1524 570 1527 689 c 0,82,83
 1530 785 1530 785 1456 841 c 0,84,85
 1362 912 1362 912 1250 912 c 0,86,87
 1239 912 1239 912 1228 911 c 1,88,89
 1229 910 1229 910 1229 909 c 0,90,91
 1235 898 1235 898 1231.5 894.5 c 128,-1,92
 1228 891 1228 891 1217 897 c 0,93,94
 1208 901 1208 901 1200 909 c 1,95,96
 1032 891 1032 891 945 749 c 1,97,-1
 945 -47 l 2,98,99
 945 -60 945 -60 924 -45 c 0,100,101
 920 -43 920 -43 916 -39 c 0,102,103
 904 -29 904 -29 895 -17 c 128,-1,104
 886 -5 886 -5 886 2 c 2,105,-1
 886 795 l 1,106,107
 864 834 864 834 843 856 c 0,108,109
 821 879 821 879 791 893 c 0,110,111
 745 916 745 916 687 916 c 0,112,113
 487 916 487 916 344 762 c 1,114,115
 229 640 229 640 229 325 c 0,116,117
 229 163 229 163 295 57 c 0,118,119
 312 31 312 31 328.5 17.5 c 128,-1,120
 345 4 345 4 374 -6 c 0,121,122
 408 -18 408 -18 447 -18 c 0,123,124
 568 -18 568 -18 633 66 c 0,125,126
 698 151 698 151 698 269 c 0,127,128
 698 379 698 379 644 456 c 0,129,130
 621 488 621 488 576 501 c 0,131,132
 550 509 550 509 518 509 c 0,133,134
 391 509 391 509 303 360 c 0,135,136
 299 354 299 354 287 361 c 2,137,-1
 279 365 l 2,138,139
 269 371 269 371 257 382.5 c 128,-1,140
 245 394 245 394 239 405 c 1,0,1
EndSplineSet
EndChar

StartChar: mc
Encoding: 3354 3354 120
Width: 1479
GlyphClass: 2
Flags: W
AnchorPoint: "Anchor-0" 915 1111 basechar 0
LayerCount: 2
Fore
SplineSet
1445 941 m 0,0,1
 1457 932 1457 932 1466 919.5 c 128,-1,2
 1475 907 1475 907 1475 900 c 2,3,-1
 1475 -47 l 2,4,5
 1475 -52 1475 -52 1470 -52 c 2,6,-1
 719 -52 l 1,7,8
 719 -52 719 -52 718 -53 c 0,9,10
 715 -55 715 -55 709 -52 c 1,11,-1
 223 -52 l 2,12,13
 216 -52 216 -52 203.5 -43.5 c 128,-1,14
 191 -35 191 -35 181 -23 c 1,15,16
 163 3 163 3 174 7 c 1,17,-1
 667 7 l 1,18,19
 838 112 838 112 845 259 c 0,20,21
 849 343 849 343 788 411 c 0,22,23
 768 434 768 434 725.5 451.5 c 128,-1,24
 683 469 683 469 623 469 c 0,25,26
 518 469 518 469 449 396 c 0,27,28
 380 322 380 322 380 222 c 0,29,30
 380 174 380 174 400 120 c 0,31,32
 404 108 404 108 396 109 c 0,33,34
 390 109 390 109 381 115 c 0,35,36
 369 122 369 122 358 134.5 c 128,-1,37
 347 147 347 147 343 156 c 0,38,39
 320 218 320 218 320 271 c 0,40,41
 320 376 320 376 392 453 c 1,42,43
 464 528 464 528 574 528 c 0,44,45
 643 528 643 528 702 503.5 c 128,-1,46
 761 479 761 479 815 419 c 0,47,48
 909 314 909 314 904 210 c 0,49,50
 899 96 899 96 800 7 c 1,51,-1
 1416 7 l 1,52,-1
 1416 949 l 2,53,54
 1416 962 1416 962 1437 947 c 0,55,56
 1441 945 1441 945 1445 941 c 0,0,1
EndSplineSet
EndChar

StartChar: mC
Encoding: 3355 3355 121
Width: 1938
GlyphClass: 2
Flags: W
AnchorPoint: "Anchor-0" 1040 1111 basechar 0
LayerCount: 2
Fore
SplineSet
181 -22 m 0,0,1
 163 3 163 3 174 7 c 1,2,-1
 659 7 l 1,3,4
 830 112 830 112 837 259 c 0,5,6
 841 343 841 343 780 411 c 0,7,8
 760 434 760 434 717.5 451.5 c 128,-1,9
 675 469 675 469 615 469 c 0,10,11
 510 469 510 469 441 396 c 0,12,13
 372 322 372 322 372 222 c 0,14,15
 372 174 372 174 392 120 c 0,16,17
 396 108 396 108 388 109 c 0,18,19
 382 109 382 109 373 115 c 0,20,21
 361 122 361 122 350 134.5 c 128,-1,22
 339 147 339 147 335 156 c 0,23,24
 312 218 312 218 312 271 c 0,25,26
 312 376 312 376 384 453 c 1,27,28
 456 528 456 528 566 528 c 0,29,30
 635 528 635 528 694 504 c 128,-1,31
 753 480 753 480 807 419 c 0,32,33
 901 314 901 314 896 210 c 0,34,35
 891 96 891 96 792 7 c 1,36,-1
 1159 7 l 1,37,38
 1093 107 1093 107 1063.5 222.5 c 128,-1,39
 1034 338 1034 338 1034 481 c 0,40,41
 1034 689 1034 689 1149 829 c 1,42,43
 1264 971 1264 971 1431 971 c 0,44,45
 1646 971 1646 971 1811 769 c 0,46,47
 1814 765 1814 765 1816 761 c 0,48,49
 1934 581 1934 581 1934 371 c 0,50,51
 1934 159 1934 159 1843 44 c 1,52,53
 1752 -73 1752 -73 1650 -73 c 0,54,55
 1537 -73 1537 -73 1433 49 c 1,56,57
 1381 108 1381 108 1360.5 174 c 128,-1,58
 1340 240 1340 240 1340 321 c 0,59,60
 1340 605 1340 605 1569 804 c 0,61,62
 1573 807 1573 807 1584 801 c 128,-1,63
 1595 795 1595 795 1606.5 783.5 c 128,-1,64
 1618 772 1618 772 1623.5 761 c 128,-1,65
 1629 750 1629 750 1625 747 c 0,66,67
 1399 551 1399 551 1399 272 c 0,68,69
 1399 199 1399 199 1417.5 141 c 128,-1,70
 1436 83 1436 83 1465 51 c 1,71,72
 1519 -14 1519 -14 1601 -14 c 0,73,74
 1697 -14 1697 -14 1786 100 c 1,75,76
 1875 212 1875 212 1875 420 c 0,77,78
 1875 615 1875 615 1773 774 c 1,79,80
 1658 912 1658 912 1480 912 c 0,81,82
 1319 912 1319 912 1206 773 c 0,83,84
 1093 635 1093 635 1093 432 c 0,85,86
 1093 288 1093 288 1126 170.5 c 128,-1,87
 1159 53 1159 53 1218 -27 c 1,88,89
 1232 -49 1232 -49 1222 -52 c 1,90,-1
 711 -52 l 1,91,92
 711 -52 711 -52 710 -53 c 0,93,94
 707 -55 707 -55 701 -52 c 1,95,-1
 223 -52 l 2,96,97
 216 -52 216 -52 203.5 -43.5 c 128,-1,98
 191 -35 191 -35 181 -22 c 0,0,1
EndSplineSet
EndChar

StartChar: mj
Encoding: 3356 3356 122
Width: 1397
GlyphClass: 2
Flags: W
AnchorPoint: "Anchor-0" 867 1111 basechar 0
LayerCount: 2
Fore
SplineSet
1002 212 m 1,0,1
 1017 197 1017 197 1023 186 c 2,2,-1
 1025 182 l 2,3,4
 1029 174 1029 174 1027 170 c 0,5,6
 1009 133 1009 133 1009 96 c 0,7,8
 1009 76 1009 76 1014 58 c 128,-1,9
 1019 40 1019 40 1023 32.5 c 128,-1,10
 1027 25 1027 25 1029 23 c 0,11,12
 1083 -17 1083 -17 1132 -18 c 1,13,14
 1230 -18 1230 -18 1280 31 c 1,15,16
 1333 80 1333 80 1333 149 c 0,17,18
 1333 211 1333 211 1296 250 c 0,19,20
 1285 262 1285 262 1254.5 273.5 c 128,-1,21
 1224 285 1224 285 1181 284 c 0,22,23
 1154 284 1154 284 1059 241 c 0,24,25
 1057 240 1057 240 1002 212 c 1,0,1
315 796 m 1,26,27
 237 717 237 717 237 598 c 0,28,29
 237 558 237 558 248.5 527 c 128,-1,30
 260 496 260 496 272 482 c 0,31,32
 273 482 273 482 274 481 c 0,33,34
 278 476 278 476 289.5 469.5 c 128,-1,35
 301 463 301 463 327.5 455.5 c 128,-1,36
 354 448 354 448 385 448 c 0,37,38
 456 448 456 448 501 509 c 0,39,40
 546 569 546 569 546 647 c 0,41,42
 546 704 546 704 516 738 c 1,43,44
 490 765 490 765 440 765 c 0,45,46
 404 765 404 765 375 747 c 0,47,48
 371 744 371 744 359.5 750.5 c 128,-1,49
 348 757 348 757 337 769 c 2,50,-1
 331 775 l 2,51,52
 322 784 322 784 315 796 c 1,26,27
332 811 m 1,53,54
 359 824 359 824 391 824 c 0,55,56
 469 824 469 824 539 751 c 0,57,58
 540 750 540 750 540 749 c 0,59,60
 605 678 605 678 605 598 c 0,61,62
 605 516 605 516 558 454 c 1,63,64
 511 389 511 389 434 389 c 0,65,66
 381 389 381 389 335.5 407 c 128,-1,67
 290 425 290 425 247 473 c 0,68,69
 206 518 206 518 192 558 c 128,-1,70
 178 598 178 598 178 647 c 0,71,72
 178 777 178 777 267 860 c 0,73,74
 280 873 280 873 296 884 c 0,75,76
 415 971 415 971 538 971 c 0,77,78
 655 971 655 971 778 864 c 1,79,80
 849 971 849 971 1019 971 c 0,81,82
 1124 971 1124 971 1250 874 c 1,83,84
 1392 763 1392 763 1392 604 c 0,85,86
 1392 473 1392 473 1283 382 c 0,87,88
 1248 354 1248 354 1208 334 c 1,89,90
 1219 331 1219 331 1228 327 c 0,91,92
 1273 311 1273 311 1318 264 c 0,93,94
 1392 185 1392 185 1392 100 c 0,95,96
 1392 26 1392 26 1337 -26 c 0,97,98
 1284 -77 1284 -77 1181 -77 c 1,99,100
 1114 -76 1114 -76 1032 -13 c 0,101,102
 1030 -12 1030 -12 1027 -10 c 0,103,104
 950 56 950 56 950 145 c 0,105,106
 950 166 950 166 955 188 c 1,107,108
 909 164 909 164 834 126 c 0,109,110
 834 125 834 125 833 125 c 0,111,112
 464 -69 464 -69 392 -72 c 1,113,114
 311 -77 311 -77 234 -3 c 0,115,116
 222 8 222 8 215 19 c 0,117,118
 171 91 171 91 170 155 c 0,119,120
 169 269 169 269 264 306 c 1,121,122
 307 339 307 339 543 339 c 2,123,-1
 910 339 l 2,124,125
 1102 339 1102 339 1227 439 c 1,126,127
 1333 528 1333 528 1333 653 c 0,128,129
 1333 776 1333 776 1255 837 c 1,130,131
 1157 912 1157 912 1068 912 c 0,132,133
 897 912 897 912 830 800 c 1,134,135
 829 745 829 745 829 623 c 2,136,-1
 829 438 l 2,137,138
 829 426 829 426 808 440 c 0,139,140
 804 443 804 443 800 446 c 0,141,142
 788 456 788 456 779 468 c 128,-1,143
 770 480 770 480 770 487 c 2,144,-1
 770 672 l 2,145,146
 770 781 770 781 771 836 c 1,147,148
 683 912 683 912 587 912 c 0,149,150
 468 912 468 912 351 827 c 0,151,152
 341 819 341 819 332 811 c 1,53,54
768 178 m 1,153,154
 768 178 768 178 769 179 c 0,155,156
 869 230 869 230 926 259 c 0,157,158
 950 271 950 271 967 280 c 1,159,160
 963 280 963 280 959 280 c 2,161,-1
 592 280 l 2,162,163
 358 280 358 280 320 248 c 0,164,165
 319 248 319 248 318 248 c 0,166,167
 228 213 228 213 229 107 c 0,168,169
 230 60 230 60 257 10 c 1,170,171
 294 -16 294 -16 343 -13 c 0,172,173
 410 -10 410 -10 768 178 c 1,153,154
EndSplineSet
EndChar

StartChar: mJ
Encoding: 3357 3357 123
Width: 2503
GlyphClass: 2
Flags: W
AnchorPoint: "Anchor-0" 1503 1111 basechar 0
LayerCount: 2
Fore
SplineSet
832 832 m 1,0,1
 677 743 677 743 600 570 c 0,2,3
 542 441 542 441 542 329 c 0,4,5
 542 192 542 192 617 73 c 0,6,7
 630 52 630 52 643 36 c 0,8,9
 683 -14 683 -14 742 -14 c 0,10,11
 887 -14 887 -14 970 108 c 1,12,13
 1051 233 1051 233 1051 388 c 0,14,15
 1051 547 1051 547 1010 628 c 0,16,17
 1009 631 1009 631 1008 634 c 0,18,19
 998 665 998 665 984 692 c 0,20,21
 961 736 961 736 926 768.5 c 128,-1,22
 891 801 891 801 832 832 c 1,0,1
447.5 -65 m 128,-1,24
 449 -73 449 -73 441 -72.5 c 128,-1,25
 433 -72 433 -72 421 -63 c 256,26,27
 409 -54 409 -54 398 -45 c 0,28,29
 170 142 170 142 170 456 c 0,30,31
 170 668 170 668 287 820 c 1,32,33
 418 961 418 961 551 961 c 0,34,35
 679 961 679 961 785 900 c 1,36,37
 903 971 903 971 976 971 c 0,38,39
 1145 971 1145 971 1255 834 c 1,40,41
 1311 766 1311 766 1333 687 c 128,-1,42
 1355 608 1355 608 1352 506 c 2,43,-1
 1347 302 l 2,44,45
 1345 218 1345 218 1365 154.5 c 128,-1,46
 1385 91 1385 91 1413 62 c 0,47,48
 1489 -18 1489 -18 1559 -18 c 0,49,50
 1725 -18 1725 -18 1818 142 c 1,51,52
 1819 546 1819 546 1819 949 c 0,53,54
 1819 962 1819 962 1841 947 c 0,55,56
 1845 945 1845 945 1849 942 c 0,57,58
 1861 932 1861 932 1869.5 919.5 c 128,-1,59
 1878 907 1878 907 1878 900 c 2,60,-1
 1877 99 l 1,61,62
 1885 88 1885 88 1894 78 c 0,63,64
 1932 31 1932 31 1974.5 6.5 c 128,-1,65
 2017 -18 2017 -18 2070 -18 c 0,66,67
 2225 -18 2225 -18 2332 127 c 0,68,69
 2439 273 2439 273 2439 472 c 0,70,71
 2439 640 2439 640 2376 744 c 0,72,73
 2306 859 2306 859 2221 921 c 0,74,75
 2209 930 2209 930 2199 942.5 c 128,-1,76
 2189 955 2189 955 2187 963 c 0,77,78
 2185 972 2185 972 2193 971 c 256,79,80
 2201 970 2201 970 2212 962 c 0,81,82
 2333 873 2333 873 2425 723 c 1,83,84
 2498 602 2498 602 2498 424 c 0,85,86
 2498 220 2498 220 2389 72 c 0,87,88
 2280 -77 2280 -77 2119 -77 c 0,89,90
 1991 -77 1991 -77 1866 71 c 1,91,92
 1771 -77 1771 -77 1608 -77 c 0,93,94
 1511 -77 1511 -77 1391 49 c 0,95,96
 1330 112 1330 112 1308 184.5 c 128,-1,97
 1286 257 1286 257 1288 351 c 2,98,-1
 1293 556 l 2,99,100
 1295 648 1295 648 1274.5 721 c 128,-1,101
 1254 794 1254 794 1220 835 c 0,102,103
 1164 905 1164 905 1047 911 c 0,104,105
 1036 912 1036 912 1025 912 c 0,106,107
 961 912 961 912 858 853 c 1,108,109
 897 827 897 827 932 796 c 0,110,111
 995 739 995 739 1032 672 c 0,112,113
 1052 636 1052 636 1065 596 c 1,114,115
 1110 502 1110 502 1110 340 c 0,116,117
 1110 180 1110 180 1027 53 c 1,118,119
 942 -73 942 -73 790 -73 c 0,120,121
 749 -73 749 -73 701.5 -46 c 128,-1,122
 654 -19 654 -19 608 37 c 0,123,124
 587 62 587 62 569 92 c 0,125,126
 483 230 483 230 483 378 c 0,127,128
 483 493 483 493 541 624 c 0,129,130
 614 786 614 786 754 875 c 1,131,132
 684 901 684 901 599 901 c 0,133,134
 472 901 472 901 344 764 c 1,135,136
 229 615 229 615 229 407 c 0,137,138
 229 263 229 263 274.5 158 c 128,-1,139
 320 53 320 53 398 -11 c 0,140,141
 406 -17 406 -17 414 -24 c 0,142,143
 426 -33 426 -33 436 -45 c 128,-1,23
 446 -57 446 -57 447.5 -65 c 128,-1,24
EndSplineSet
EndChar

StartChar: mw
Encoding: 3358 3358 124
Width: 2165
GlyphClass: 2
Flags: W
AnchorPoint: "Anchor-0" 1121 1111 basechar 0
LayerCount: 2
Fore
SplineSet
1435 846 m 1,0,1
 1242 716 1242 716 1206 575 c 0,2,3
 1206 574 1206 574 1206 574 c 1,4,5
 1148 455 1148 455 1148 329 c 0,6,7
 1148 172 1148 172 1231 40 c 0,8,9
 1237 31 1237 31 1243 24 c 0,10,11
 1257 7 1257 7 1289.5 -6 c 128,-1,12
 1322 -19 1322 -19 1372 -17 c 0,13,14
 1495 -10 1495 -10 1582 96 c 128,-1,15
 1669 202 1669 202 1669 388 c 0,16,17
 1669 477 1669 477 1647 556 c 0,18,19
 1621 649 1621 649 1568.5 718.5 c 128,-1,20
 1516 788 1516 788 1435 846 c 1,0,1
237 405 m 1,21,22
 233 415 233 415 235.5 418.5 c 128,-1,23
 238 422 238 422 246 419 c 1,24,25
 334 568 334 568 465 568 c 0,26,27
 498 568 498 568 527 560 c 0,28,29
 568 549 568 549 610 519 c 128,-1,30
 652 489 652 489 685 442 c 0,31,32
 757 338 757 338 757 211 c 0,33,34
 757 92 757 92 694 6 c 0,35,36
 633 -77 633 -77 514 -77 c 0,37,38
 465 -77 465 -77 423 -63 c 0,39,40
 378 -47 378 -47 332.5 -10 c 128,-1,41
 287 27 287 27 253 78 c 0,42,43
 170 206 170 206 170 384 c 0,44,45
 170 674 170 674 317 827 c 0,46,47
 446 962 446 962 560 975 c 0,48,49
 628 983 628 983 683.5 972 c 128,-1,50
 739 961 739 961 792 923 c 0,51,52
 852 880 852 880 900 803 c 1,53,54
 935 891 935 891 1029 933 c 0,55,56
 1125 977 1125 977 1195 975 c 0,57,58
 1305 972 1305 972 1392 911 c 1,59,60
 1503 971 1503 971 1636 971 c 0,61,62
 1849 971 1849 971 2012 785 c 0,63,64
 2013 784 2013 784 2014 783 c 0,65,66
 2160 609 2160 609 2160 388 c 0,67,68
 2160 237 2160 237 2101 127 c 0,69,70
 2036 6 2036 6 1911 -72 c 0,71,72
 1907 -75 1907 -75 1895.5 -68.5 c 128,-1,73
 1884 -62 1884 -62 1873 -50.5 c 128,-1,74
 1862 -39 1862 -39 1857 -28 c 128,-1,75
 1852 -17 1852 -17 1856 -15 c 0,76,77
 1979 62 1979 62 2043 181 c 0,78,79
 2101 289 2101 289 2101 437 c 0,80,81
 2101 638 2101 638 1982 780 c 1,82,83
 1866 912 1866 912 1685 912 c 0,84,85
 1563 912 1563 912 1461 860 c 1,86,87
 1533 804 1533 804 1588 736 c 0,88,89
 1662 644 1662 644 1696 544 c 0,90,91
 1728 449 1728 449 1728 340 c 0,92,93
 1728 148 1728 148 1639 39.5 c 128,-1,94
 1550 -69 1550 -69 1422 -76 c 0,95,96
 1298 -83 1298 -83 1210 22 c 0,97,98
 1196 40 1196 40 1183 60 c 0,99,100
 1089 210 1089 210 1089 378 c 0,101,102
 1089 507 1089 507 1147 628 c 1,103,104
 1183 766 1183 766 1362 892 c 1,105,106
 1311 914 1311 914 1243 916 c 0,107,108
 1177 918 1177 918 1083 874 c 1,109,110
 972 825 972 825 946 710 c 0,111,112
 946 707 946 707 944 706 c 1,113,114
 945 703 945 703 945 701 c 2,115,-1
 945 -47 l 2,116,117
 945 -60 945 -60 924 -45 c 0,118,119
 920 -43 920 -43 916 -39 c 0,120,121
 904 -29 904 -29 895 -17 c 128,-1,122
 886 -5 886 -5 886 2 c 2,123,-1
 886 749 l 2,124,125
 886 753 886 753 888 755 c 1,126,127
 844 851 844 851 803 880 c 0,128,129
 772 902 772 902 721.5 912.5 c 128,-1,130
 671 923 671 923 611 916 c 0,131,132
 501 903 501 903 373 770 c 0,133,134
 229 620 229 620 229 335 c 0,135,136
 229 170 229 170 299 61 c 0,137,138
 316 35 316 35 335 20 c 128,-1,139
 354 5 354 5 386 -6 c 0,140,141
 422 -18 422 -18 465 -18 c 0,142,143
 578 -18 578 -18 637 62 c 0,144,145
 698 145 698 145 698 260 c 0,146,147
 698 372 698 372 642 454 c 0,148,149
 629 472 629 472 613 483.5 c 128,-1,150
 597 495 597 495 566 503 c 0,151,152
 542 509 542 509 514 509 c 0,153,154
 387 509 387 509 301 360 c 0,155,156
 298 354 298 354 285 361 c 2,157,-1
 277 365 l 2,158,159
 267 371 267 371 255 382.5 c 128,-1,160
 243 394 243 394 237 405 c 1,21,22
EndSplineSet
EndChar

StartChar: mt
Encoding: 3359 3359 125
Width: 1036
GlyphClass: 2
Flags: W
AnchorPoint: "Anchor-0" 592 1111 basechar 0
LayerCount: 2
Fore
SplineSet
1027 759 m 0,0,1
 1022 757 1022 757 1010 764 c 128,-1,2
 998 771 998 771 987 783 c 0,3,4
 938 836 938 836 842 871 c 1,5,6
 735 912 735 912 618 912 c 0,7,8
 454 912 454 912 341 859 c 0,9,10
 229 806 229 806 229 655 c 0,11,12
 229 583 229 583 289 531 c 0,13,14
 291 529 291 529 293 527 c 0,15,16
 309 518 309 518 351 511 c 128,-1,17
 393 504 393 504 447 504 c 2,18,-1
 657 504 l 2,19,20
 750 504 750 504 810.5 489.5 c 128,-1,21
 871 475 871 475 922 432 c 1,22,23
 1031 336 1031 336 1031 237 c 0,24,25
 1031 93 1031 93 915 10 c 1,26,27
 802 -73 802 -73 634 -73 c 0,28,29
 511 -73 511 -73 398 -30 c 0,30,31
 274 17 274 17 193 103 c 0,32,33
 181 115 181 115 176.5 125.5 c 128,-1,34
 172 136 172 136 176.5 138.5 c 128,-1,35
 181 141 181 141 192 134.5 c 128,-1,36
 203 128 203 128 215 116 c 0,37,38
 265 64 265 64 362 27 c 0,39,40
 468 -14 468 -14 585 -14 c 0,41,42
 749 -14 749 -14 860 67 c 0,43,44
 972 148 972 148 972 285 c 0,45,46
 972 353 972 353 918 401 c 0,47,48
 900 416 900 416 841.5 430.5 c 128,-1,49
 783 445 783 445 706 445 c 2,50,-1
 496 445 l 2,51,52
 453 445 453 445 432 446 c 128,-1,53
 411 447 411 447 380.5 452 c 128,-1,54
 350 457 350 457 326.5 470 c 128,-1,55
 303 483 303 483 281 505 c 1,56,57
 170 603 170 603 170 703 c 0,58,59
 170 862 170 862 287 917 c 0,60,61
 402 971 402 971 569 971 c 0,62,63
 692 971 692 971 805 928 c 1,64,65
 929 883 929 883 1012 793 c 0,66,67
 1019 786 1019 786 1023.5 778.5 c 128,-1,68
 1028 771 1028 771 1029 766 c 128,-1,69
 1030 761 1030 761 1027 759 c 0,0,1
EndSplineSet
EndChar

StartChar: mT
Encoding: 3360 3360 126
Width: 1162
GlyphClass: 2
Flags: W
AnchorPoint: "Anchor-0" 641 1111 basechar 0
LayerCount: 2
Fore
SplineSet
1157 421 m 0,0,1
 1157 211 1157 211 1018 69 c 1,2,3
 881 -73 881 -73 680 -73 c 0,4,5
 473 -73 473 -73 320 83 c 1,6,7
 240 166 240 166 205 256.5 c 128,-1,8
 170 347 170 347 170 453 c 0,9,10
 170 670 170 670 293 820 c 0,11,12
 418 971 418 971 621 971 c 0,13,14
 841 971 841 971 999 809 c 0,15,16
 1084 723 1084 723 1120.5 628.5 c 128,-1,17
 1157 534 1157 534 1157 421 c 0,0,1
1098 468 m 0,18,19
 1098 573 1098 573 1066 656 c 128,-1,20
 1034 739 1034 739 981 792 c 1,21,-1
 979 793 l 1,22,23
 927 847 927 847 848.5 879.5 c 128,-1,24
 770 912 770 912 670 912 c 0,25,26
 473 912 473 912 350 764 c 0,27,28
 229 617 229 617 229 405 c 0,29,30
 229 307 229 307 259 229 c 128,-1,31
 289 151 289 151 340 99 c 0,32,33
 390 47 390 47 464 16.5 c 128,-1,34
 538 -14 538 -14 631 -14 c 0,35,36
 827 -14 827 -14 961 125 c 1,37,38
 1098 265 1098 265 1098 468 c 0,18,19
EndSplineSet
EndChar

StartChar: md
Encoding: 3361 3361 127
Width: 2005
GlyphClass: 2
Flags: W
AnchorPoint: "Anchor-0" 1130 1058 basechar 0
LayerCount: 2
Fore
SplineSet
447.5 -65 m 128,-1,1
 449 -73 449 -73 441 -72.5 c 128,-1,2
 433 -72 433 -72 421 -63 c 256,3,4
 409 -54 409 -54 398 -45 c 0,5,6
 170 142 170 142 170 456 c 0,7,8
 170 668 170 668 287 820 c 1,9,10
 387 960 387 960 551 961 c 1,11,12
 612 964 612 964 665 939 c 0,13,14
 706 919 706 919 745 879 c 128,-1,15
 784 839 784 839 809 794 c 1,16,17
 840 749 840 749 848.5 684.5 c 128,-1,18
 857 620 857 620 854 506 c 2,19,-1
 849 302 l 2,20,21
 847 218 847 218 867 154.5 c 128,-1,22
 887 91 887 91 915 62 c 0,23,24
 991 -18 991 -18 1061 -18 c 0,25,26
 1227 -18 1227 -18 1320 142 c 1,27,28
 1319 542 1319 542 1318 942 c 0,29,30
 1318 954 1318 954 1340 940 c 0,31,32
 1344 938 1344 938 1348 934 c 0,33,34
 1360 924 1360 924 1369 912 c 128,-1,35
 1378 900 1378 900 1378 893 c 0,36,37
 1379 496 1379 496 1379 99 c 1,38,39
 1387 88 1387 88 1396 78 c 0,40,41
 1434 31 1434 31 1476.5 6.5 c 128,-1,42
 1519 -18 1519 -18 1572 -18 c 0,43,44
 1727 -18 1727 -18 1834 127 c 0,45,46
 1941 273 1941 273 1941 472 c 0,47,48
 1941 640 1941 640 1878 744 c 0,49,50
 1808 859 1808 859 1723 921 c 0,51,52
 1711 930 1711 930 1701 942.5 c 128,-1,53
 1691 955 1691 955 1689 963 c 0,54,55
 1687 972 1687 972 1695 971 c 256,56,57
 1703 970 1703 970 1714 962 c 0,58,59
 1835 873 1835 873 1927 723 c 1,60,61
 2000 602 2000 602 2000 424 c 0,62,63
 2000 220 2000 220 1891 72 c 0,64,65
 1782 -77 1782 -77 1621 -77 c 0,66,67
 1493 -77 1493 -77 1368 71 c 1,68,69
 1273 -77 1273 -77 1110 -77 c 0,70,71
 1013 -77 1013 -77 893 49 c 0,72,73
 832 112 832 112 810 184.5 c 128,-1,74
 788 257 788 257 790 351 c 2,75,-1
 795 556 l 2,76,77
 797 651 797 651 787 721 c 128,-1,78
 777 791 777 791 764 808 c 0,79,80
 761 813 761 813 759 817 c 0,81,82
 743 847 743 847 730 860.5 c 128,-1,83
 717 874 717 874 697 884 c 0,84,85
 656 904 656 904 600 901 c 1,86,87
 442 901 442 901 344 765 c 1,88,89
 229 615 229 615 229 407 c 0,90,91
 229 263 229 263 274.5 158 c 128,-1,92
 320 53 320 53 398 -11 c 0,93,94
 406 -17 406 -17 414 -24 c 0,95,96
 426 -33 426 -33 436 -45 c 128,-1,0
 446 -57 446 -57 447.5 -65 c 128,-1,1
EndSplineSet
EndChar

StartChar: mD
Encoding: 3362 3362 128
Width: 2045
GlyphClass: 2
Flags: W
AnchorPoint: "Anchor-0" 1123 1111 basechar 0
LayerCount: 2
Fore
SplineSet
1981 478 m 1,0,1
 1940 405 1940 405 1899 371 c 0,2,3
 1851 332 1851 332 1769 332 c 0,4,5
 1732 332 1732 332 1699 343 c 0,6,7
 1662 356 1662 356 1623 387 c 128,-1,8
 1584 418 1584 418 1554 461 c 0,9,10
 1485 562 1485 562 1485 691 c 0,11,12
 1485 815 1485 815 1558 894 c 1,13,14
 1659 987 1659 987 1734 975 c 0,15,16
 1784 967 1784 967 1829 939 c 0,17,18
 1928 878 1928 878 1980 750 c 1,19,20
 2036 608 2036 608 2040 449 c 0,21,22
 2040 436 2040 436 2040 424 c 0,23,24
 2040 220 2040 220 1911 71 c 0,25,26
 1782 -77 1782 -77 1621 -77 c 0,27,28
 1493 -77 1493 -77 1368 71 c 1,29,30
 1273 -77 1273 -77 1110 -77 c 0,31,32
 1013 -77 1013 -77 893 49 c 0,33,34
 832 112 832 112 810 184 c 128,-1,35
 788 256 788 256 790 351 c 2,36,-1
 795 555 l 2,37,38
 798 662 798 662 784 740 c 128,-1,39
 770 818 770 818 751 843 c 0,40,41
 748 847 748 847 746 852 c 0,42,43
 741 861 741 861 735.5 867 c 128,-1,44
 730 873 730 873 716.5 881 c 128,-1,45
 703 889 703 889 671 896 c 128,-1,46
 639 903 639 903 600 901 c 1,47,48
 472 901 472 901 344 764 c 1,49,50
 229 615 229 615 229 407 c 0,51,52
 229 335 229 335 241 272 c 0,53,54
 276 80 276 80 414 -24 c 0,55,56
 426 -33 426 -33 436 -45.5 c 128,-1,57
 446 -58 446 -58 447.5 -66 c 128,-1,58
 449 -74 449 -74 441 -73 c 128,-1,59
 433 -72 433 -72 421 -63 c 0,60,61
 225 84 225 84 182 316 c 0,62,63
 170 382 170 382 170 455 c 0,64,65
 170 668 170 668 287 820 c 1,66,67
 418 961 418 961 551 961 c 1,68,69
 615 964 615 964 668 945 c 128,-1,70
 721 926 721 926 769 868 c 0,71,72
 784 850 784 850 795 829 c 1,73,74
 832 776 832 776 844.5 700.5 c 128,-1,75
 857 625 857 625 854 506 c 2,76,-1
 849 302 l 2,77,78
 847 218 847 218 867 154.5 c 128,-1,79
 887 91 887 91 915 62 c 0,80,81
 991 -18 991 -18 1061 -18 c 0,82,83
 1227 -18 1227 -18 1320 142 c 1,84,85
 1319 542 1319 542 1319 942 c 1,86,87
 1318 954 1318 954 1340 940 c 0,88,89
 1344 937 1344 937 1348 934 c 0,90,91
 1360 924 1360 924 1369 912 c 128,-1,92
 1378 900 1378 900 1378 893 c 2,93,-1
 1379 99 l 1,94,95
 1413 54 1413 54 1444 29 c 1,96,97
 1478 0 1478 0 1521 -11 c 0,98,99
 1546 -18 1546 -18 1572 -18 c 0,100,101
 1728 -18 1728 -18 1854.5 127.5 c 128,-1,102
 1981 273 1981 273 1981 472 c 2,103,-1
 1981 478 l 1,0,1
1980 514 m 1,104,105
 1974 659 1974 659 1924 786 c 0,106,107
 1892 865 1892 865 1849 891 c 0,108,109
 1819 910 1819 910 1779 916 c 0,110,111
 1712 926 1712 926 1615 838 c 1,112,113
 1544 761 1544 761 1544 642 c 0,114,115
 1544 527 1544 527 1599 447 c 0,116,117
 1611 429 1611 429 1623.5 419 c 128,-1,118
 1636 409 1636 409 1660 401 c 0,119,120
 1687 391 1687 391 1720 391 c 0,121,122
 1798 391 1798 391 1843 428 c 0,123,124
 1886 463 1886 463 1930 545 c 0,125,126
 1931 547 1931 547 1934 547 c 2,127,-1
 1936 547 l 2,128,129
 1943 547 1943 547 1956 537 c 128,-1,130
 1969 527 1969 527 1980 514 c 1,104,105
EndSplineSet
EndChar

StartChar: mN
Encoding: 3363 3363 129
Width: 2181
GlyphClass: 2
Flags: W
AnchorPoint: "Anchor-0" 1243 1111 basechar 0
LayerCount: 2
Fore
SplineSet
920 -40 m 0,0,1
 908 -30 908 -30 899 -18 c 128,-1,2
 890 -6 890 -6 890 1 c 2,3,-1
 891 644 l 2,4,5
 891 783 891 783 889 797 c 0,6,7
 889 798 889 798 889 798 c 1,8,9
 873 827 873 827 855 843 c 1,10,11
 836 862 836 862 803 878 c 0,12,13
 733 913 733 913 631 913 c 0,14,15
 511 914 511 914 374 764 c 1,16,17
 229 608 229 608 229 331 c 0,18,19
 229 169 229 169 299 61 c 0,20,21
 316 34 316 34 333 20 c 128,-1,22
 350 6 350 6 379 -5 c 0,23,24
 414 -18 414 -18 457 -18 c 0,25,26
 555 -18 555 -18 627 58 c 1,27,28
 700 133 700 133 700 258 c 0,29,30
 700 320 700 320 684 370.5 c 128,-1,31
 668 421 668 421 643 452 c 0,32,33
 595 509 595 509 516 509 c 0,34,35
 389 509 389 509 303 360 c 0,36,37
 300 354 300 354 287 361 c 2,38,-1
 279 365 l 2,39,40
 269 371 269 371 257 382.5 c 128,-1,41
 245 394 245 394 239 405 c 1,42,43
 235 415 235 415 237.5 418.5 c 128,-1,44
 240 422 240 422 248 420 c 1,45,46
 336 568 336 568 467 568 c 0,47,48
 580 568 580 568 676 452 c 0,49,50
 722 396 722 396 740.5 338 c 128,-1,51
 759 280 759 280 759 209 c 0,52,53
 759 79 759 79 684 2 c 1,54,55
 609 -77 609 -77 506 -77 c 0,56,57
 458 -77 458 -77 416 -62 c 1,58,59
 372 -45 372 -45 328 -8 c 128,-1,60
 284 29 284 29 252 79 c 0,61,62
 170 206 170 206 170 380 c 0,63,64
 170 662 170 662 317 821 c 0,65,66
 457 973 457 973 582 972 c 0,67,68
 679 972 679 972 758.5 939.5 c 128,-1,69
 838 907 838 907 903 828 c 1,70,71
 996 969 996 969 1172 968 c 1,72,73
 1365 968 1365 968 1492 816 c 1,74,75
 1591 971 1591 971 1742 972 c 0,76,77
 1882 972 1882 972 2033 809 c 0,78,79
 2110 726 2110 726 2143 631 c 128,-1,80
 2176 536 2176 536 2176 421 c 0,81,82
 2176 252 2176 252 2097 129 c 0,83,84
 2011 -5 2011 -5 1889 -72 c 0,85,86
 1884 -75 1884 -75 1872.5 -68 c 128,-1,87
 1861 -61 1861 -61 1850 -49.5 c 128,-1,88
 1839 -38 1839 -38 1834.5 -27.5 c 128,-1,89
 1830 -17 1830 -17 1834 -14 c 0,90,91
 1955 52 1955 52 2040 184 c 0,92,93
 2117 305 2117 305 2117 469 c 0,94,95
 2117 576 2117 576 2087 661 c 128,-1,96
 2057 746 2057 746 2008 799 c 0,97,98
 1903 913 1903 913 1791 913 c 0,99,100
 1638 912 1638 912 1538 743 c 1,101,102
 1536 685 1536 685 1536 542 c 2,103,-1
 1537 -49 l 2,104,105
 1537 -62 1537 -62 1516 -47 c 0,106,107
 1512 -45 1512 -45 1508 -41 c 0,108,109
 1496 -31 1496 -31 1487 -19 c 128,-1,110
 1478 -7 1478 -7 1478 0 c 2,111,-1
 1477 591 l 2,112,113
 1477 729 1477 729 1479 788 c 1,114,115
 1457 821 1457 821 1433 842 c 0,116,117
 1407 866 1407 866 1364 883 c 0,118,119
 1302 909 1302 909 1221 909 c 0,120,121
 1040 910 1040 910 949 754 c 1,122,123
 950 751 950 751 948 749 c 1,124,125
 950 725 950 725 950 595 c 2,126,-1
 949 -48 l 2,127,128
 949 -61 949 -61 927 -46 c 0,129,130
 924 -44 924 -44 920 -40 c 0,0,1
EndSplineSet
EndChar

StartChar: mx
Encoding: 3364 3364 130
Width: 1474
GlyphClass: 2
Flags: W
AnchorPoint: "Anchor-0" 903 1111 basechar 0
LayerCount: 2
Fore
SplineSet
818 839 m 1,0,1
 814 836 814 836 810 834 c 0,2,3
 695 748 695 748 604 574 c 0,4,5
 556 483 556 483 556 329 c 0,6,7
 556 192 556 192 631 73 c 0,8,9
 646 48 646 48 660 31 c 0,10,11
 678 8 678 8 696.5 -3 c 128,-1,12
 715 -14 715 -14 742 -14 c 0,13,14
 872 -14 872 -14 955 108 c 1,15,16
 1036 233 1036 233 1036 388 c 0,17,18
 1036 546 1036 546 995 628 c 1,19,20
 917 772 917 772 822 836 c 0,21,22
 820 837 820 837 818 839 c 1,0,1
738 878 m 1,23,24
 673 901 673 901 599 901 c 0,25,26
 472 901 472 901 344 764 c 1,27,28
 229 614 229 614 229 407 c 0,29,30
 229 335 229 335 241 272 c 0,31,32
 276 80 276 80 414 -24 c 0,33,34
 426 -33 426 -33 436 -45.5 c 128,-1,35
 446 -58 446 -58 447.5 -66 c 128,-1,36
 449 -74 449 -74 441 -73 c 128,-1,37
 433 -72 433 -72 421 -63 c 0,38,39
 225 84 225 84 182 316 c 0,40,41
 170 382 170 382 170 455 c 0,42,43
 170 668 170 668 287 820 c 1,44,45
 418 961 418 961 551 960 c 0,46,47
 657 960 657 960 751 913 c 0,48,49
 761 908 761 908 771 903 c 1,50,51
 773 904 773 904 775 905 c 0,52,53
 873 970 873 970 988 975 c 0,54,55
 1186 983 1186 983 1328 811 c 0,56,57
 1342 794 1342 794 1355 776 c 0,58,59
 1472 612 1472 612 1469 379 c 0,60,61
 1468 242 1468 242 1403 122 c 0,62,63
 1338 4 1338 4 1217 -72 c 0,64,65
 1213 -75 1213 -75 1201.5 -68.5 c 128,-1,66
 1190 -62 1190 -62 1179 -50.5 c 128,-1,67
 1168 -39 1168 -39 1163 -28.5 c 128,-1,68
 1158 -18 1158 -18 1162 -15 c 0,69,70
 1281 60 1281 60 1345 177 c 256,71,72
 1409 294 1409 294 1410 428 c 0,73,74
 1412 647 1412 647 1312 787 c 1,75,76
 1304 800 1304 800 1295 811 c 0,77,78
 1202 922 1202 922 1037 916 c 0,79,80
 933 912 933 912 842 855 c 1,81,82
 961 761 961 761 1048 601 c 0,83,84
 1048 600 1048 600 1048 599 c 0,85,86
 1095 505 1095 505 1095 339 c 0,87,88
 1095 180 1095 180 1012 53 c 1,89,90
 927 -73 927 -73 790 -73 c 0,91,92
 755 -73 755 -73 711.5 -47 c 128,-1,93
 668 -21 668 -21 625 32 c 0,94,95
 603 59 603 59 583 92 c 0,96,97
 497 229 497 229 497 378 c 0,98,99
 497 536 497 536 546 628 c 0,100,101
 631 791 631 791 738 878 c 1,23,24
EndSplineSet
EndChar

StartChar: mX
Encoding: 3365 3365 131
Width: 1460
GlyphClass: 2
Flags: W
AnchorPoint: "Anchor-0" 901 1110 basechar 0
LayerCount: 2
Fore
SplineSet
739 7 m 1,0,-1
 1396 7 l 1,1,-1
 1396 497 l 2,2,3
 1396 615 1396 615 1366 702 c 128,-1,4
 1336 789 1336 789 1290 833 c 0,5,6
 1205 915 1205 915 1083 915 c 0,7,8
 974 915 974 915 856 807 c 0,9,10
 739 700 739 700 739 511 c 2,11,-1
 739 7 l 1,0,-1
680 7 m 1,12,-1
 680 560 l 2,13,14
 680 754 680 754 799 864 c 1,15,16
 921 975 921 975 1034 975 c 0,17,18
 1180 975 1180 975 1305 853 c 0,19,20
 1387 774 1387 774 1421 675.5 c 128,-1,21
 1455 577 1455 577 1455 448 c 2,22,-1
 1455 -47 l 2,23,24
 1455 -53 1455 -53 1450 -53 c 2,25,-1
 224 -53 l 2,26,27
 217 -53 217 -53 205 -44 c 128,-1,28
 193 -35 193 -35 183 -23 c 0,29,30
 170 -8 170 -8 170 1 c 2,31,-1
 170 948 l 2,32,33
 170 961 170 961 192 947 c 0,34,35
 196 944 196 944 200 941 c 0,36,37
 212 931 212 931 220.5 919 c 128,-1,38
 229 907 229 907 229 900 c 2,39,-1
 229 7 l 1,40,-1
 680 7 l 1,12,-1
EndSplineSet
EndChar

StartChar: mf
Encoding: 3366 3366 132
Width: 995
GlyphClass: 2
Flags: W
AnchorPoint: "Anchor-0" 586 1111 basechar 0
LayerCount: 2
Fore
SplineSet
258 -64 m 0,0,1
 246 -55 246 -55 236 -42.5 c 128,-1,2
 226 -30 226 -30 224 -22 c 0,3,4
 170 219 170 219 170 389 c 0,5,6
 170 681 170 681 311 825 c 1,7,8
 428 965 428 965 583 971 c 0,9,10
 733 977 733 977 851 885 c 1,11,12
 981 782 981 782 982 642 c 0,13,14
 983 519 983 519 858 452 c 1,15,16
 908 417 908 417 941 368 c 0,17,18
 990 297 990 297 990 220 c 0,19,20
 990 102 990 102 887 8 c 0,21,22
 785 -85 785 -85 630 -85 c 0,23,24
 552 -85 552 -85 530 -76 c 0,25,26
 520 -72 520 -72 508 -61 c 128,-1,27
 496 -50 496 -50 489 -39 c 0,28,29
 475 -18 475 -18 490 -19 c 0,30,31
 491 -19 491 -19 493 -20 c 0,32,33
 511 -26 511 -26 581 -26 c 0,34,35
 732 -26 732 -26 830 65 c 1,36,37
 931 156 931 156 931 269 c 0,38,39
 931 333 931 333 898 380 c 0,40,41
 897 382 897 382 896 383 c 0,42,43
 875 415 875 415 819 435 c 1,44,45
 749 435 749 435 679 435 c 0,46,47
 672 435 672 435 660 443.5 c 128,-1,48
 648 452 648 452 638 464 c 0,49,50
 617 489 617 489 628 494 c 0,51,52
 629 494 629 494 630 494 c 0,53,54
 701 494 701 494 771 495 c 1,55,56
 924 559 924 559 923 691 c 0,57,58
 922 795 922 795 855 848 c 0,59,60
 766 917 766 917 632 912 c 0,61,62
 482 906 482 906 368 769 c 1,63,64
 229 627 229 627 229 340 c 0,65,66
 229 173 229 173 283 -65 c 0,67,68
 285 -73 285 -73 277 -73 c 1,69,70
 270 -72 270 -72 258 -64 c 0,0,1
EndSplineSet
EndChar

StartChar: mF
Encoding: 3367 3367 133
Width: 1485
GlyphClass: 2
Flags: W
AnchorPoint: "Anchor-0" 901 1111 basechar 0
LayerCount: 2
Fore
SplineSet
1161.5 957 m 128,-1,1
 1157 967 1157 967 1161.5 970 c 128,-1,2
 1166 973 1166 973 1177 967 c 0,3,4
 1251 924 1251 924 1311.5 860 c 128,-1,5
 1372 796 1372 796 1409 721 c 1,6,7
 1480 583 1480 583 1480 428 c 0,8,9
 1480 199 1480 199 1363 61 c 256,10,11
 1246 -77 1246 -77 1110 -77 c 0,12,13
 1091 -77 1091 -77 1072 -74 c 0,14,15
 1016 -65 1016 -65 958 -25.5 c 128,-1,16
 900 14 900 14 849 81 c 1,17,18
 807 13 807 13 740 -36 c 0,19,20
 740 -37 740 -37 740 -37 c 1,21,22
 661 -77 661 -77 592 -77 c 0,23,24
 444 -77 444 -77 301 93 c 1,25,26
 232 177 232 177 201 269.5 c 128,-1,27
 170 362 170 362 170 472 c 0,28,29
 170 630 170 630 243 763 c 1,30,31
 315 899 315 899 454 971 c 0,32,33
 459 973 459 973 470.5 966 c 128,-1,34
 482 959 482 959 493 947.5 c 128,-1,35
 504 936 504 936 509 925.5 c 128,-1,36
 514 915 514 915 509 913 c 0,37,38
 372 842 372 842 301 708 c 1,39,40
 229 577 229 577 229 424 c 0,41,42
 229 322 229 322 257.5 237 c 128,-1,43
 286 152 286 152 334 94 c 0,44,45
 428 -18 428 -18 543 -18 c 0,46,47
 608 -18 608 -18 685 21 c 1,48,49
 761 78 761 78 804 158 c 1,50,51
 804 158 804 158 804 159 c 0,52,53
 803 160 803 160 804 161 c 1,54,-1
 804 939 l 2,55,56
 804 951 804 951 826 937 c 0,57,58
 830 934 830 934 834 931 c 0,59,60
 846 921 846 921 854.5 909 c 128,-1,61
 863 897 863 897 863 890 c 2,62,-1
 863 113 l 2,63,64
 863 112 863 112 863 111 c 0,65,66
 891 66 891 66 916 41 c 0,67,68
 943 14 943 14 978 -1 c 0,69,70
 1017 -18 1017 -18 1061 -18 c 0,71,72
 1191 -18 1191 -18 1306 117 c 256,73,74
 1421 252 1421 252 1421 477 c 0,75,76
 1421 624 1421 624 1356 750 c 0,77,78
 1327 808 1327 808 1290.5 846.5 c 128,-1,79
 1254 885 1254 885 1200 916 c 0,80,81
 1189 923 1189 923 1177.5 935 c 128,-1,0
 1166 947 1166 947 1161.5 957 c 128,-1,1
EndSplineSet
EndChar

StartChar: mn
Encoding: 3368 3368 134
Width: 1485
GlyphClass: 2
Flags: W
AnchorPoint: "Anchor-0" 861 1111 basechar 0
LayerCount: 2
Fore
SplineSet
1177.5 -54 m 128,-1,1
 1166 -42 1166 -42 1161.5 -31.5 c 128,-1,2
 1157 -21 1157 -21 1161 -19 c 0,3,4
 1288 54 1288 54 1354 185 c 0,5,6
 1421 317 1421 317 1421 466 c 0,7,8
 1421 575 1421 575 1393 662 c 128,-1,9
 1365 749 1365 749 1319 804 c 0,10,11
 1227 912 1227 912 1110 912 c 0,12,13
 967 912 967 912 862 737 c 1,14,15
 863 734 863 734 863 733 c 2,16,-1
 860 -45 l 2,17,18
 860 -57 860 -57 838 -43 c 0,19,20
 835 -40 835 -40 831 -37 c 0,21,22
 818 -27 818 -27 809.5 -15 c 128,-1,23
 801 -3 801 -3 801 4 c 2,24,-1
 804 781 l 2,25,26
 804 782 804 782 804 782 c 1,27,28
 772 839 772 839 722 878 c 1,29,30
 653 912 653 912 592 912 c 0,31,32
 463 912 463 912 346 773 c 1,33,34
 229 631 229 631 229 422 c 0,35,36
 229 271 229 271 298 145 c 1,37,38
 328 87 328 87 367.5 48.5 c 128,-1,39
 407 10 407 10 468 -21 c 0,40,41
 478 -27 478 -27 490 -38.5 c 128,-1,42
 502 -50 502 -50 507.5 -61 c 128,-1,43
 513 -72 513 -72 509.5 -75.5 c 128,-1,44
 506 -79 506 -79 496 -74 c 0,45,46
 418 -34 418 -34 352.5 30.5 c 128,-1,47
 287 95 287 95 246 171 c 0,48,49
 170 311 170 311 170 470 c 0,50,51
 170 685 170 685 289 829 c 1,52,53
 408 971 408 971 543 971 c 0,54,55
 614 971 614 971 698 928 c 0,56,57
 703 926 703 926 708 922 c 0,58,59
 771 876 771 876 818 814 c 1,60,61
 922 971 922 971 1061 971 c 0,62,63
 1210 971 1210 971 1350 806 c 0,64,65
 1420 724 1420 724 1450 629.5 c 128,-1,66
 1480 535 1480 535 1480 417 c 0,67,68
 1480 264 1480 264 1412 131 c 0,69,70
 1345 -2 1345 -2 1216 -76 c 0,71,72
 1212 -79 1212 -79 1200.5 -72.5 c 128,-1,0
 1189 -66 1189 -66 1177.5 -54 c 128,-1,1
EndSplineSet
EndChar

StartChar: mW
Encoding: 3369 3369 135
Width: 1485
GlyphClass: 2
Flags: W
AnchorPoint: "Anchor-0" 981 1111 basechar 0
LayerCount: 2
Fore
SplineSet
265.5 376 m 128,-1,1
 254 387 254 387 247 398.5 c 128,-1,2
 240 410 240 410 243 415 c 0,3,4
 328 568 328 568 465 568 c 0,5,6
 501 568 501 568 533 558 c 0,7,8
 573 545 573 545 614.5 512 c 128,-1,9
 656 479 656 479 688 433 c 0,10,11
 757 333 757 333 757 209 c 0,12,13
 757 91 757 91 688 8 c 0,14,15
 616 -77 616 -77 504 -77 c 0,16,17
 445 -77 445 -77 395 -54 c 0,18,19
 351 -33 351 -33 309 8 c 128,-1,20
 267 49 267 49 238 99 c 0,21,22
 170 220 170 220 170 459 c 0,23,24
 170 462 170 462 172 464 c 1,25,26
 170 467 170 467 170 470 c 0,27,28
 170 685 170 685 289 829 c 1,29,30
 408 971 408 971 543 971 c 0,31,32
 614 971 614 971 698 928 c 0,33,34
 703 926 703 926 708 922 c 0,35,36
 771 876 771 876 818 814 c 1,37,38
 922 971 922 971 1061 971 c 0,39,40
 1210 971 1210 971 1350 806 c 0,41,42
 1420 724 1420 724 1450 629.5 c 128,-1,43
 1480 535 1480 535 1480 417 c 0,44,45
 1480 264 1480 264 1412 131 c 0,46,47
 1345 -2 1345 -2 1216 -76 c 0,48,49
 1212 -79 1212 -79 1200.5 -72.5 c 128,-1,50
 1189 -66 1189 -66 1177.5 -54 c 128,-1,51
 1166 -42 1166 -42 1161.5 -31.5 c 128,-1,52
 1157 -21 1157 -21 1161 -19 c 0,53,54
 1288 54 1288 54 1354 185 c 0,55,56
 1421 317 1421 317 1421 466 c 0,57,58
 1421 575 1421 575 1393 662 c 128,-1,59
 1365 749 1365 749 1319 804 c 0,60,61
 1227 912 1227 912 1110 912 c 0,62,63
 967 912 967 912 862 737 c 1,64,65
 863 734 863 734 863 733 c 2,66,-1
 860 -45 l 2,67,68
 860 -57 860 -57 838 -43 c 0,69,70
 835 -40 835 -40 831 -37 c 0,71,72
 818 -27 818 -27 809.5 -15 c 128,-1,73
 801 -3 801 -3 801 4 c 2,74,-1
 804 781 l 2,75,76
 804 782 804 782 804 782 c 1,77,78
 772 839 772 839 722 878 c 1,79,80
 653 912 653 912 592 912 c 0,81,82
 463 912 463 912 346 773 c 1,83,84
 229 631 229 631 229 422 c 0,85,86
 229 418 229 418 228 417 c 1,87,88
 229 413 229 413 229 410 c 0,89,90
 229 181 229 181 289 75 c 0,91,92
 307 43 307 43 322.5 27.5 c 128,-1,93
 338 12 338 12 363 1 c 0,94,95
 404 -18 404 -18 455 -18 c 0,96,97
 561 -18 561 -18 631 64 c 0,98,99
 698 144 698 144 698 258 c 0,100,101
 698 368 698 368 644 447 c 0,102,103
 629 469 629 469 614 480.5 c 128,-1,104
 599 492 599 492 572.5 500.5 c 128,-1,105
 546 509 546 509 514 509 c 0,106,107
 383 509 383 509 301 360 c 0,108,109
 298 355 298 355 287.5 360 c 128,-1,0
 277 365 277 365 265.5 376 c 128,-1,1
EndSplineSet
EndChar

StartChar: mp
Encoding: 3370 3370 136
Width: 1561
GlyphClass: 2
Flags: W
AnchorPoint: "Anchor-0" 910 1112 basechar 0
LayerCount: 2
Fore
SplineSet
1523 -36 m 0,0,1
 1511 -26 1511 -26 1502.5 -13.5 c 128,-1,2
 1494 -1 1494 -1 1494 6 c 2,3,-1
 1494 950 l 2,4,5
 1494 962 1494 962 1515 948 c 0,6,7
 1519 945 1519 945 1523 942 c 0,8,9
 1535 932 1535 932 1544 920 c 128,-1,10
 1553 908 1553 908 1553 901 c 2,11,-1
 1553 -43 l 2,12,13
 1553 -56 1553 -56 1531 -41 c 0,14,15
 1527 -39 1527 -39 1523 -36 c 0,0,1
312 -66 m 0,16,17
 306 -62 306 -62 300 -57 c 0,18,19
 229 5 229 5 200 77 c 0,20,21
 170 150 170 150 170 237 c 0,22,23
 170 392 170 392 259 478 c 0,24,25
 345 561 345 561 449 561 c 0,26,27
 581 561 581 561 686 459 c 0,28,29
 745 402 745 402 771 338.5 c 128,-1,30
 797 275 797 275 802 199 c 0,31,32
 809 89 809 89 772 16 c 1,33,-1
 1502 17 l 2,34,35
 1509 17 1509 17 1521 8.5 c 128,-1,36
 1533 0 1533 0 1543 -12 c 0,37,38
 1564 -37 1564 -37 1553 -42 c 0,39,40
 1552 -42 1552 -42 1551 -42 c 2,41,-1
 726 -44 l 2,42,43
 714 -44 714 -44 693 -23 c 0,44,45
 681 -11 681 -11 675.5 0 c 128,-1,46
 670 11 670 11 673 14 c 0,47,48
 752 91 752 91 743 246 c 0,49,50
 739 314 739 314 718 364 c 128,-1,51
 697 414 697 414 670 439 c 1,52,53
 643 466 643 466 598.5 484 c 128,-1,54
 554 502 554 502 498 502 c 0,55,56
 399 502 399 502 315 421 c 0,57,58
 229 338 229 338 229 189 c 0,59,60
 229 110 229 110 252 54 c 0,61,62
 274 0 274 0 304 -27 c 0,63,64
 307 -29 307 -29 310 -32 c 256,65,66
 313 -35 313 -35 317 -39 c 0,67,68
 325 -48 325 -48 330 -57 c 0,69,70
 331 -58 331 -58 331 -59 c 0,71,72
 332 -60 332 -60 332 -61 c 0,73,74
 334 -67 334 -67 333 -70 c 0,75,76
 331 -79 331 -79 312 -66 c 0,16,17
EndSplineSet
EndChar

StartChar: mP
Encoding: 3371 3371 137
Width: 1776
GlyphClass: 2
Flags: W
AnchorPoint: "Anchor-0" 907 1111 basechar 0
LayerCount: 2
Fore
SplineSet
1056 -38 m 0,0,1
 1044 -28 1044 -28 1035.5 -16 c 128,-1,2
 1027 -4 1027 -4 1027 3 c 2,3,-1
 1027 559 l 2,4,5
 1027 767 1027 767 1138 873 c 1,6,7
 1243 964 1243 964 1334 966 c 0,8,9
 1443 968 1443 968 1521.5 944.5 c 128,-1,10
 1600 921 1600 921 1663 855 c 1,11,12
 1728 790 1728 790 1750 697 c 128,-1,13
 1772 604 1772 604 1771 455 c 2,14,-1
 1769 -49 l 2,15,16
 1769 -54 1769 -54 1764 -54 c 0,17,18
 1673 -52 1673 -52 1470 -52 c 0,19,20
 1463 -52 1463 -52 1451 -43 c 128,-1,21
 1439 -34 1439 -34 1429 -22 c 0,22,23
 1408 3 1408 3 1419 7 c 0,24,25
 1420 8 1420 8 1421 8 c 0,26,27
 1618 8 1618 8 1710 6 c 1,28,-1
 1712 504 l 2,29,30
 1712 634 1712 634 1690.5 724.5 c 128,-1,31
 1669 815 1669 815 1645 838 c 0,32,33
 1643 840 1643 840 1642 841 c 0,34,35
 1617 867 1617 867 1548.5 888 c 128,-1,36
 1480 909 1480 909 1383 907 c 0,37,38
 1297 905 1297 905 1195 816 c 1,39,40
 1086 713 1086 713 1086 510 c 2,41,-1
 1086 -45 l 2,42,43
 1086 -58 1086 -58 1064 -44 c 0,44,45
 1060 -41 1060 -41 1056 -38 c 0,0,1
312 -66 m 0,46,47
 306 -62 306 -62 300 -57 c 0,48,49
 229 5 229 5 200 77 c 0,50,51
 170 150 170 150 170 237 c 0,52,53
 170 392 170 392 259 478 c 0,54,55
 345 561 345 561 449 561 c 0,56,57
 581 561 581 561 686 459 c 0,58,59
 745 402 745 402 771 338.5 c 128,-1,60
 797 275 797 275 802 199 c 0,61,62
 809 89 809 89 772 16 c 1,63,-1
 1502 17 l 2,64,65
 1509 17 1509 17 1521 8.5 c 128,-1,66
 1533 0 1533 0 1543 -12 c 0,67,68
 1564 -37 1564 -37 1553 -42 c 0,69,70
 1552 -42 1552 -42 1551 -42 c 2,71,-1
 726 -44 l 2,72,73
 714 -44 714 -44 693 -23 c 0,74,75
 681 -11 681 -11 675.5 0 c 128,-1,76
 670 11 670 11 673 14 c 0,77,78
 752 91 752 91 743 246 c 0,79,80
 739 314 739 314 718 364 c 128,-1,81
 697 414 697 414 670 439 c 1,82,83
 643 466 643 466 598.5 484 c 128,-1,84
 554 502 554 502 498 502 c 0,85,86
 399 502 399 502 315 421 c 0,87,88
 229 338 229 338 229 189 c 0,89,90
 229 110 229 110 252 54 c 0,91,92
 274 0 274 0 304 -27 c 0,93,94
 307 -29 307 -29 310 -32 c 256,95,96
 313 -35 313 -35 317 -39 c 0,97,98
 325 -48 325 -48 330 -57 c 0,99,100
 331 -58 331 -58 331 -59 c 0,101,102
 332 -60 332 -60 332 -61 c 0,103,104
 334 -67 334 -67 333 -70 c 0,105,106
 331 -79 331 -79 312 -66 c 0,46,47
EndSplineSet
EndChar

StartChar: mb
Encoding: 3372 3372 138
Width: 1886
GlyphClass: 2
Flags: W
AnchorPoint: "Anchor-0" 961 1111 basechar 0
LayerCount: 2
Fore
SplineSet
272.5 376 m 128,-1,1
 261 387 261 387 254 398.5 c 128,-1,2
 247 410 247 410 250 414 c 0,3,4
 335 568 335 568 445 572 c 0,5,6
 483 573 483 573 517 562 c 0,7,8
 555 550 555 550 595 518 c 128,-1,9
 635 486 635 486 666 440 c 0,10,11
 668 437 668 437 670 435 c 0,12,13
 725 334 725 334 722 253 c 1,14,15
 714 99 714 99 644 8 c 0,16,17
 578 -77 578 -77 487 -75 c 1,18,19
 430 -75 430 -75 381 -48 c 0,20,21
 339 -25 339 -25 302.5 15.5 c 128,-1,22
 266 56 266 56 244 101 c 0,23,24
 170 248 170 248 170 459 c 0,25,26
 170 462 170 462 172 464 c 1,27,28
 170 467 170 467 170 470 c 0,29,30
 170 676 170 676 296 829 c 1,31,32
 415 971 415 971 550 971 c 0,33,34
 621 971 621 971 705 928 c 0,35,36
 710 926 710 926 715 922 c 0,37,38
 778 876 778 876 825 814 c 1,39,40
 928 971 928 971 1051 971 c 0,41,42
 1200 971 1200 971 1336 805 c 0,43,44
 1407 718 1407 718 1435.5 623 c 128,-1,45
 1464 528 1464 528 1459 417 c 0,46,47
 1447 162 1447 162 1311 13 c 0,48,49
 1309 11 1309 11 1306 8 c 1,50,-1
 1821 6 l 1,51,-1
 1822 949 l 2,52,53
 1822 962 1822 962 1844 947 c 0,54,55
 1848 945 1848 945 1852 942 c 0,56,57
 1864 932 1864 932 1872.5 919.5 c 128,-1,58
 1881 907 1881 907 1881 900 c 2,59,-1
 1880 -48 l 2,60,61
 1880 -53 1880 -53 1875 -53 c 2,62,-1
 1245 -51 l 2,63,64
 1232 -51 1232 -51 1211 -30 c 0,65,66
 1200 -18 1200 -18 1194.5 -7 c 128,-1,67
 1189 4 1189 4 1192 7 c 0,68,69
 1222 35 1222 35 1254 69 c 0,70,71
 1388 216 1388 216 1400 466 c 0,72,73
 1405 570 1405 570 1378.5 657 c 128,-1,74
 1352 744 1352 744 1302 805 c 0,75,76
 1214 912 1214 912 1100 912 c 0,77,78
 974 912 974 912 869 737 c 1,79,80
 870 734 870 734 870 733 c 2,81,-1
 869 -45 l 2,82,83
 869 -57 869 -57 848 -43 c 0,84,85
 844 -40 844 -40 840 -37 c 0,86,87
 828 -27 828 -27 819 -15 c 128,-1,88
 810 -3 810 -3 810 4 c 2,89,-1
 811 781 l 2,90,91
 811 782 811 782 811 782 c 1,92,93
 779 839 779 839 729 878 c 1,94,95
 660 912 660 912 599 912 c 0,96,97
 470 912 470 912 353 773 c 1,98,99
 229 623 229 623 229 422 c 0,100,101
 229 418 229 418 228 417 c 1,102,103
 229 413 229 413 229 410 c 0,104,105
 229 207 229 207 297 72 c 0,106,107
 313 41 313 41 325 27 c 128,-1,108
 337 13 337 13 355 4 c 0,109,110
 390 -15 390 -15 438 -16 c 0,111,112
 523 -17 523 -17 587 64 c 1,113,114
 655 152 655 152 663 302 c 1,115,116
 665 373 665 373 620 458 c 1,117,118
 606 478 606 478 591.5 489 c 128,-1,119
 577 500 577 500 549 507 c 0,120,121
 524 514 524 514 495 513 c 0,122,123
 390 509 390 509 308 360 c 0,124,125
 305 355 305 355 294.5 360 c 128,-1,0
 284 365 284 365 272.5 376 c 128,-1,1
EndSplineSet
EndChar

StartChar: mB
Encoding: 3373 3373 139
Width: 1098
GlyphClass: 2
Flags: W
AnchorPoint: "Anchor-0" 586 1111 basechar 0
LayerCount: 2
Fore
SplineSet
255 -63 m 0,0,1
 243 -54 243 -54 233.5 -42 c 128,-1,2
 224 -30 224 -30 222 -21 c 0,3,4
 170 251 170 251 170 390 c 0,5,6
 170 687 170 687 305 831 c 1,7,8
 443 975 443 975 637 975 c 0,9,10
 734 975 734 975 811 950.5 c 128,-1,11
 888 926 888 926 958 866 c 0,12,13
 1093 748 1093 748 1093 619 c 0,14,15
 1093 592 1093 592 1079 569 c 0,16,17
 1038 502 1038 502 938 503 c 0,18,19
 902 503 902 503 833 527 c 0,20,21
 832 528 832 528 831 528 c 0,22,23
 768 553 768 553 738 553 c 0,24,25
 678 553 678 553 637 514 c 1,26,27
 596 473 596 473 596 419 c 0,28,29
 596 402 596 402 600.5 388 c 128,-1,30
 605 374 605 374 608 369 c 128,-1,31
 611 364 611 364 613 362 c 0,32,33
 624 354 624 354 653 347 c 128,-1,34
 682 340 682 340 718 340 c 0,35,36
 742 340 742 340 786 346 c 1,37,38
 829 350 829 350 854 350 c 0,39,40
 905 350 905 350 940 342 c 128,-1,41
 975 334 975 334 1009 310 c 0,42,43
 1039 289 1039 289 1058 262 c 128,-1,44
 1077 235 1077 235 1083 213 c 0,45,46
 1096 164 1096 164 1093 141 c 1,47,48
 1086 48 1086 48 1003 -13 c 0,49,50
 916 -77 916 -77 746 -77 c 0,51,52
 649 -77 649 -77 495 -39 c 0,53,54
 486 -37 486 -37 473.5 -27 c 128,-1,55
 461 -17 461 -17 453 -5 c 0,56,57
 437 17 437 17 448 20 c 0,58,59
 450 20 450 20 453 19 c 0,60,61
 603 -18 603 -18 697 -18 c 0,62,63
 863 -18 863 -18 948 44 c 1,64,65
 1027 103 1027 103 1034 192 c 0,66,67
 1036 211 1036 211 1025 255 c 0,68,69
 1023 263 1023 263 1019 268 c 1,70,71
 1006 277 1006 277 974 284 c 128,-1,72
 942 291 942 291 903 291 c 0,73,74
 878 291 878 291 837 287 c 1,75,76
 792 281 792 281 767 281 c 0,77,78
 716 281 716 281 680.5 290.5 c 128,-1,79
 645 300 645 300 609 332 c 0,80,81
 608 332 608 332 607 333 c 0,82,83
 537 396 537 396 537 467 c 0,84,85
 537 526 537 526 580 571 c 1,86,87
 624 612 624 612 689 612 c 0,88,89
 724 612 724 612 795 584 c 1,90,91
 859 562 859 562 890 562 c 0,92,93
 983 561 983 561 1021 624 c 0,94,95
 1034 645 1034 645 1034 668 c 0,96,97
 1034 765 1034 765 953 836 c 0,98,99
 912 871 912 871 843 893.5 c 128,-1,100
 774 916 774 916 686 916 c 0,101,102
 497 916 497 916 362 775 c 1,103,104
 229 633 229 633 229 342 c 0,105,106
 229 204 229 204 281 -65 c 0,107,108
 283 -73 283 -73 275 -73 c 1,109,110
 268 -72 268 -72 255 -63 c 0,0,1
EndSplineSet
EndChar

